<mxfile host="app.diagrams.net" agent="Mozilla/5.0 (Macintosh; Intel Mac OS X 10_15_7) AppleWebKit/537.36 (KHTML, like Gecko) Chrome/135.0.0.0 Safari/537.36" version="26.2.4">
  <diagram name="Page-1" id="hoLOuQ75kh8G5WfXae1T">
    <mxGraphModel dx="1014" dy="577" grid="1" gridSize="10" guides="1" tooltips="1" connect="1" arrows="1" fold="1" page="1" pageScale="1" pageWidth="827" pageHeight="1169" math="0" shadow="0">
      <root>
        <mxCell id="0" />
        <mxCell id="1" parent="0" />
        <mxCell id="aaofqSygZkqPP-v-TxHg-2" value="" style="shape=image;verticalLabelPosition=bottom;labelBackgroundColor=default;verticalAlign=top;aspect=fixed;imageAspect=0;image=data:image/png,iVBORw0KGgoAAAANSUhEUgAAAfQAAAH0CAYAAADL1t+KAAAAAXNSR0IArs4c6QAAIABJREFUeF7snQdYVEnW92/u3E1Dk3MQGMxiGDOjGDArMmZMqAgqZjEHzGNWxJzFrDMGDGt2zGJWMAEKSGyg4+2bv73uzH6777u77+7I7Dg9dZ8HCX1vVZ3fOT7/W1WnqmAIXIAAIAAIAAKAACDwuycA/+4tAAYAAoAAIAAIAAKAAAQEHQQBIAAIAAKAACBgBwSAoNuBE4EJgAAgAAgAAoAAEHQQA4AAIAAIAAKAgB0QAIJuB04EJgACgAAgAAgAAkDQQQwAAoAAIAAIAAJ2QAAIuh04EZgACAACgAAgAAgAQQcxAAgAAoAAIAAI2AEBIOh24ERgAiAACAACgAAgAAQdxAAgAAgAAoAAIGAHBICg24ETgQmAACAACAACgAAQdBADgAAgAAgAAoCAHRAAgm4HTgQmAAKAACAACAACQNBBDAACgAAgAAgAAnZAAAi6HTgRmAAIAAKAACAACABBBzEACAACgAAgAAjYAQEg6HbgRGACIAAIAAKAACAABB3EACAACAACgAAgYAcEgKDbgROBCYAAIAAIAAKAABB0EAOAACAACAACgIAdEACCbgdOBCYAAoAAIAAIAAJA0EEMAAKAACAACAACdkAACLodOBGYAAgAAoAAIAAIAEEHMQAIAAKAACAACNgBASDoduBEYAIgAAgAAoAAIAAEHcQAIAAIAAKAACBgBwSAoNuBE4EJgAAgAAgAAoAAEHQQA4AAIAAIAAKAgB0QAIJuB04EJgACgAAgAAgAAkDQQQwAAoAAIAAIAAJ2QAAIuh04EZgACAACgAAgAAgAQQcxAAgAAoAAIAAI2AEBIOh24ERgAiAACAACgAAgAAQdxAAgAAgAAoAAIGAHBICg24ETgQmAACAACAACgAAQdBADgAAgAAgAAoCAHRAAgm4HTgQmAAKAACAACAACQNBBDAACgAAgAAgAAnZAAAi6HTgRmAAIAAKAACAACABBBzEACAACgAAgAAjYAQEg6HbgRGACIAAIAAKAACAABB3EACAACAACgAAgYAcEgKDbgROBCYAAIAAIAAKAABB0EAOAACAACAACgIAdEACCbgdOBCYAAoAAIAAIAAJA0EEMAAKAACAACAACdkAACLodOBGYAAgAAoAAIAAIAEEHMfBHJYCGh4drLRaLI8uyuEKhgEiS5F6/fv0GgiDujwoF2A0IAAK/XwJA0H+/vgMt/wwCGzZs6DRgwIBeHMc58TyvIAgCwzAsYN++fQnx8fEZn1E0eBQQAAQAgd+EABD03wQ7qPS3JnDs2LHZs2fP3lq3bl1h69attcLCwh4qlUqnO3fuzO3WrduIq1ev2n7rNoL6AQFAABD4TwgAQf9PaIF77YbAnj17FsfGxs7w8vKS7dq1q9vmzZuvHTlyxEBR1M2oqKiYy5cvv7MbY4EhgAAg8IcgAAT9D+FmYOT/JPD48eNRcrm8CY7jr+RyuQFBkG5Wq9XJZrPlxcTEDHv69KkFUAMEAAFA4PdEAAj678lboK3VQqBLly6emzZtmigIQjaO4wLHcYLNZiNQFIWvXbuWNXjw4CvVUtHfFwLPmzdP/OJ//rMgCJ/+/82fP//T97lz5wriz+7u7qhWq4UtFgvy870KhYL/9ttv6V+hXaBIQAAQsBMCQNDtxJFfghmdO3fWIgjSfPv27XV5nm/j6urayGw2ozAMCz+JFyf+/GftEr9gGIYR8R/xZ7H9giD++dP18z3iTaKoic//5QNBEP/28z3i959j+O/K+Pl+qVQKWa1WCEH+oo0sy1ZCEGRlWVbLcRyt0zlKUBSV/fQZbLFYIYLABYqiIJlMBvH8X/X3r4gFQWzfJzHmxc8RBIYE4VM7ob807f9fYhkmkwnCcfxTeSRJQhzHffpdIpH8rc1/te9noRdt+Ll+giA+QbDZbBBN04LRaDzfs2f0sMzMTMOX4HvQBkAAEPjtCQBB/+19YDctePv27VR3d/dWCII4chwnFQRBJ4olDMNyGIZFYcdEMRbF9W+F/G9E+e9YiIIm3it+/xux/3TPT6L+d+L+830/CeGn2GZZ9pNwsiwrWCwWluO4LIqiKBRF9SdOnNhoMFRIhg+Pm4QgiK9Op3NgWVYi1il+iaKOouhf3zL++rbxl5eLTy8lKIr+VYh/euEQeJ7/9AIiCALPsizN87y4DI7leV4UfVZ8BoZhjuM4y19ecGAOggRMEARW1GxBEMRCUQgSbBzHMxiGcwxDV2IYbiYIgrPZSEYmkwVu3rxp1cSJU07YTQABQwABQOCzCABB/yx84OG/JXD06NH1vXv3HhseHo5nZmYy/4yO2JPv1KlTPRzHe2IYJpFKpVKxJy4Kb4MGDdDbt2+zYg+WYRhR9z+Jo6h+oiD+PETOMAxEEATKsiyPYRiJIAguCrBEIuFJkkQJgkBYlv30AiGKOUEQrM1mM6EoKo4KKMXvCIKwMhmOWSw2mGWZIgzDOIPBdIFl2SoIYhCCwMnz568UnDx50hIeHo7+rU0xMTHokSNH/m69elhYGFGzZk0Ux3H3iooKvqioiPH397fgOP6p945hmNft27dft2jRyIskeUwqRRCWRbwEgeHF4X6eR6p4nvdCUbT86dOnjzw8ZGhpKcM6OjrCV69eNVdWlnXDMMJ31KjR++Lj4xq/eJHVdPToxHkgCgEBQAAQ+NTRARgAgeogMHLkSHnfvn2XtGnTJunmzZvRCxcuPO3n5+eXlpb2qn379oro6GjvzMzMIgRBJDzPV9atW9d30aJFH+fPn6+6f/9+xenTp3G5XM716tWLiIyMDGFZllu+fHmWs7OzS5cuXZoqlUqxmbTRaPwKQRCOIAgDwzAuUqlU/JsoxjRBEHVsNhsrkUgqIAjKgSBIfEgNw7CjyWQSWJaFlUolDsOwwWg0OqhUKqsgcJUSiURtNpudGIapwDA8FEVhNctyxSiKOUOQ8F58cfD09NJ8/FioYBgmH4Jgac2aNSVZWVlir9rM8xyJ43iBu7tHK39/vzcsy3a2Wq0VZrPFHBgYQMhkMpnZbIa0Wq37rVu3XtStW9cHRTHxBaQMx/FQkrSWyuUyHUVR5Tqds9fHj0UV+fl5d9VqB0zs4SMIfDQ7++6NZs06nRcESK1Wq87rdLouK1eu3Dd58tQF1eE/UAYgAAj8/gkAQf/9+/CLsGDkyJH45MmTjy9fvnwdy7I3du3aZRs4cGDIvn37Xq1YsUIXFRXV++7du0+LiopUTZs2Lahdu/YeBEEYkrTYtFrtIZK0JcpkkvdVVYaXGIb62Wx06LhxSf3XrVvtplZrWj548MD4/n3uIycn56Zv3rwuxXG8XKNxUEVEtMo9eTKDUiql2uLi0uYYhiEBAf7ZV65cetm7d59RhYWFnMFg+DRvzTBMmdVKIhzHmmAYdoBhmOF56J1areANBqM3hhF3fXw8a4k9/fLyykyaJt0JUc1RDGcYRpw2EDegEYfiDVqtg5Xnha8pikYVCjlLkuQTuVxez2ajcxEE8hMEwUQQBEmSpDhSQUilEsZstjiiKAYxDM3yPFREEGgJDEN6DEMrzGaKVKlUlrp1g/m3bwvxoKCgMj8/nzFyuXw+Sdounjjx/T4URW+gKKrq16+PuCHOpPT0/clJSRO3fBEBABoBCAACvzkBIOi/uQvspwGXL19e7Ofn1+7Vq1c5SqVSJSZ3WSwWcQu2otq1a1sMBsNri8XCKJVKo1ardUZR1CqKnzi3DcOITiKR4CaT0aJQKGkcR4iXL7OzgoNryDmOV+j1ejY/P18fGFgD/fAhj+I4AdVqNXBIyFfQ7ds3eXHU/i9z1gxXo0YN7MWLbMHDw/XTUHd+/keOIDBEHKanaRbmeRYWh+TFBDVxrlrsuXMcx+I4Bnl7+xAcx0nKyspk4hC8IAiU+HeW5aQYhhE8z6M8L4j3MzAMkRIJQaMoiptMZlQqlUpomnGCYYhGEAiDIBTjOA5TKORimWJdrIODA8wwrNRqNStVKrWUYWhYzPOTSmWwIPCQh4cHQpJWAcNwISgoyNNqtQYqFAqBpulSFMXecxzLFxUVIygKE3v37uo7Y8a81/YTQcASQAAQ+BwCQNA/hx549h8S8PPzk544cWJxYGBgx8uXL18rLCw0isIZFxfnxbKsGoKgWhKJxOsvyXF/yTkTk9cwDBMTyWCxhyxmp4vXz1ne4lz4TwIsJpSJAlfBsuxHGIZguVxhNJlMZgzDIZqmxAxyTtzHlWFolKZZBoJ4OYqibhRFi0lsYuIZy7KslCBwuKioxIjjOC2VSp0cHDTOKpVK81PSmpgQ9ynpTqxXzFAX5/LFjHlx3/efr596/n9t79/aItokXqJd4nNi7158qRDLFX/+uVzxHjF7XSzr57LFz8ScAjF1ICsr69UPP/xwUBD4QpalHqSkLHsCQg8QAAQAgf9JAAg6iIlfhUBoaKhTRkbGdoZhxN7ubYvFQjZo0ICjKEpIS0u7HRMT40HTdLRSKQ/XarVSvV5vE0VNFDqapiFnZ2dcFFeVSuUkCqL4mfgC8NOQt7h23IaimAWGBdhsttDiHLpoiCjABEGIn4sJdLCYNEcQEoznOYUosDRN8yqVShAT58RkOZZlKfEwFrF3LZFI5AzDMjKZlDWbzZaqqioxIZ4Xk/M8PT1xm80mKSkpeU+SNloQOI6maSuKojaCIHiW5WmOY/Ucx1FhYaFShuEolmUay+UKpdFoeiGXy8oYhvHCMCxHfJkoLi6m3N3dlTzPvZLLFbQ4KnDgQHqJQqG2dOrUsR7PC84VFfoQjUbTKCcnZ+8337SdCkHQP000/FWcCAoFBACB3xUBIOi/K3f9vhobExMTcvjw4cNlZWWn4uPjNw0ZMqSvo6OjS4sWLURxQpo2bSqx2cqUERFdfVevXv1AtG7ixARvDJMGh4SEqnv06N4RhpEwhUJZnyAIiSiuggBREgkh9uLF2BWXiNmkUml5VZVBFGIKQVCbxWKmcBxneF4Q58o5DIMrOI5D79/PLHr69ClkNBogBEF5cah/5MiRWoqi2P37991p3fqbdsHBQa95XgiUSPBju3bty54xY0bZ3LnTfAYPHuYLw9iABw8ePrh//y7HMJwjgkCfuuoSiUQQ5+7F3rVCITcNGDCgAUUxlTzPO6EoUoTjhJfRaHj650z7WRRFvRJ73RcuXFzSunWr5TAMPVIqFUEymdyTJK16DMNeYhgeplAoZHq9Xnrjxo/pHTu2bxMfnzjmyJEj135fEQBaCwgAAv9NAkDQ/5u0/4B1hYeHu+/cuXMliqKZYq9XqVT2/7OAzjIajRKDwWB1c3Ppo9PpogoLC00EIZGFhoaaBIF3ycnJPePt7dVGLpcZV69eNz8rK0tctiZhWdaWlJSkcXXViUvSuIyM80xlZRmnVjsKAQG+3vv3H7xQUlLCzZyZ3LhOnTocDGN0ZWWlQa8vIR4+zDTVr99AKZUqAzEMET58KCj08/Oph+OSexaLKcTV1aWp0Wh6IAhQpF5ffpEkSTEjnxOz00tKStQqlcrN0dHJ9OHD+9cwDNXAMDyQJEkehuE7wcHBbSorK8Wh/ydaraOL1Wqt1GjUrqWlpXe/+iqsc3b2qxUODqp+Uqks22Qy17LZLDsdHZ0TVSqV2Kt/Z7ORUmdnZyPP8y1Ylnvo4uLkbLXarO/f570NCAhsOmnSxAt79uzf/QcMIWAyIAAI/JsEgKD/m6DAbb+cQI8eHf3S04/vKC0t3We2mNtiOHFDX1b1cs6c6S+++27pqZycvOu5uTmvunfv3ujcuYzvBw4cOCAuLn7mxo0bRms0molWqyWBothYgiBUFovlsEqlGmOz2fKlUulDm80WSBDEUxiGybt37wa/f/9+z4ULFywpKSk9XVxcwi0Wy6H4+PhbPXv2lJeVlSlomi4zm834iBEj5AsWLPhAEBwjlWpLw8LCOvTu3Svh3r0Hq1mWDXn58uXRw4cPm2fOnBnk4+NjPX36tE0mkyGBgYHe69evf9mlS5egs2fPPi0rK+PFIf601LQ5+YX5m96+fUv7eHjUL62oICsrK588ePBAujk1NSj98GFj3bp1sU2bNr1s1apV85s3b+pnzZrV7dWrl6UKhfT2mTMZmFrt5DFnzqzgkpKinLVr1xRMmDCBzsp626BFi2ajp06d8t3OnXuO/nIvgCcBAUDA3gkAQbd3D38B9un1ZZMhCIklKepWbu47W05OXqVGpVWqNAoopEaNVjzP5pSUlN3z9vb03blz97XExNGd16xZdy8hIX6uXK6wbtu2ZUmvXjHfiBu2GI3GhS4uLhMYhnmWnJx8vmPHjgFFRUVIdHS0x5MnT/ysVuv1Bw8emKZMmfIVx3EBPM9nHj16tNzHx8e1sLDQ1qVLF4PFYvFmGIbat2/ffQ8P1yCG4XPr16/jodM517p27caL6OjuzQ0G0yuGYTwVCpWKYZhyuVxOieWJz5lMJicHBwclTdMsR7M8ZbPRSrWqsV5fnktRjEIQOFyj0VJW0mpTq5QyF1c3hGEZNUVRFpvNxgiCIGb481qt1tFiMZWI8/gsy7poNBpCq9WiNpsNNlkMjNbBkXXQaF1SU9Mmr1mzZsfbt2/F+X5wAQKAACDwDwkAQQeB8asTsFrNew8ePJwRERlRMHrE6LcRERE2tVrNtIvqMNTNxbWHSiFvYzQaaYVCIR6Q8injXRROMUsNQRBxrluAYRSVSCSM1Wot5HleI/6M47hZEAQZSZJaGBZXoomrwzirmJFuMBjEZWRiNrtN3I3OarWyGIYVsywrVygUrhRF5TMMY4QgTkKSNrmDgwYX14jDMCzuWqc2GAzicjsLy/Lv5XJ5FcMwpUajsUqhUHzIz8+v3LBhAytm2yOCIO7zylZUVLAcBNE4jleSJKkX20YQhJgxz0dHR4+OjIwUN6FpMHv27G0QBFHevt6uvXpFd8EQOFgul1c8e/b0UXr6oQuiM4KDg2Bvbw+hoKDQacyYcYuCg0OdCgoKxM1ywAUIAAKAwD8lAAQdBMevToBmqfTikpKLVhtDJSUk3B0eH68MDg1t4+To4DpzyrRba9eu3nbz5o9zSkvLwjAMQxs0CPeSy6UqrdaxDgzDH0eMGDbo0qXr4s5v1XI5OjpC586d2xQYGNivqqqiAIKg93/Zdx5RlZWV3YmNHTo6OzvbhiCIuGWsuCsdn5eXJ57SIn6JC8r/1/7u/6phc+fOTQ4NDb3/6NEj0+vXr0sTExNVy5Yt0yxZtmwZhsBPpFKJ1cnJqUNhYeF1nc7JmWU5M44jYva89v37goeNGjVZ9VO91WI/KAQQAATskwAQdPv06xdlFcXYjpWUlF+00TZs2qQp5wcOGeLs4OAgqVW7Zq/kqVOuLk5ZuPnrr5vVGjp0aAmOIwMbNmxcv127yFiWZR0RBL3Zvn2HPpcvXy6sTqOeP3++wNXVNcRorLrDcUKmUilvJ5FIuh0/fuL+iBEj46qzrklTpszy9/dVjkkYk9y2bduWk6ZM6rgxbfODhSkLNsKCcJggCC8vL882RUXFHyBIoHief6pSKU9JJNjUmTPnrNu8eduh6mwPKAsQAATskwAQdPv06xdlFSuwD4YNGzGvVp06lQaL5UPPbt0ULM830zmo5Qq50qyQEttyc3OvC4LgSBCEjuf5Ew4ODsPF3dE0GvXHESMGf3v8+FmxJ11t1+3bt9e7uLhgPM8WCwJ8RS6Xzlar1c137ty5PilpwrRqq+jPZ7VOnTp1emho6MNT588XlhYUvF+wYIHLypUrA1asXjWBpWz31WqNs6OjdrjVar2GIIjNaDTI1BoVw/O8Y8aZc6eHDYtb/NPoQHU2C5QFCAACdkYACLqdOfQLNAc22cylsYOHDF24cFGj8vKyl3KVihUEuCcECfeVOE57uruvLi4uOq5SqdmioqJ3BEEEOjs794RhmFaplK87duz87fXr1/Or07bbt2+nOTk5NUFRGEdR9CBB4ENlMrn7wYMH54wenbiyOuuav2jRTDd394tnvv8+7+3bt5XDhg1TL09NRVs3bOgbFRUV7Onp3rh58+ZjxdwBcZc8k8mY56RzLBUPi1EqlGVyuVocMfi0cQ64AAFAABD4ZwSAoIPY+FUJREZGao6fOvFu/YbUMWG1Qu68epOjqV+3ntOK71bnd46Kcjh+6BB7+vTJK8XFxQ94ng8MCAjQ6vV6DU3T73ier3BycrL27du/b0ZGRnF1NvTy5cvbHR0dWxUW5h+kafb7unXrjHZ1dem4efPmBRMnTq7WA0/mLVy4xC/Q98f9B448atWokaxx06a1Z8+b93JA3xhvQ4XBPSwstFmXLl1Gl5aWkjqdDjMYDE+sVtMDJ2dnXOCg0NDQsA4lJSWW6rQflAUIAAL2RwAIuv359IuyaO+hvdHdu/X87kVWVuLx4z+8VTuoardo3txx7oJFmS2bN5fduHqVPH386MPKysoquVyu1Gg0mNFoNBYXl1xycHAg1GqVYuDA2L4nT54sqU7Drl27tlutVjeVSPBDMIxexHE0ydPTs8mmTVtmT5gwYUd11rVh06blqCDsuXzzpq1T+/aNPTw8jEuWLSsYOWKE8m12tkfNmiGdIyPbx1ZWVuqdnJwechxTZrWRfhq1OhMS0EhfX78m5eXlpupsEygLEAAE7I8AEHT78+kXZdGBg/u3RXXr6h8/ZvygyFatvkIJFPcPDFTNW7AoK8DHh/HU6RyTksbeQhDko8FgEA9HgcrKyt+wLHOdIHAvb28fl3btOsTcvHnzQ3UadufOnWNardYDRaE0mubyYJgf4+7uUX/nzt1LqlPQmzRpoj578UJaSO26k2L79XOI7tEj9Ma9e/ce3rnj06FjRyQ/541rnTp1I6OiohLEE+UwDD0hCFChRIrVRGD0Lo5LEj08vAKqqqqqqtN+UBYgAAjYHwEg6Pbn0y/Kon379+x09fQknj1/spjmBczJwZkObxzeevrkaffq1Kul690zRhFet/bxgoL8781mS2uSJJ8pFIrbNE094jihb40aQUFdunTrdf369TfVadjt27cv6HS6BhzHrBUE7hKGSRa5urr679ixbcn48ZM2V1ddQWFhYdeuXN7SuEF4d39/f97b29v1/v37uUFBQX4qnQqq91U9j5CQwKjo6JgpRUVFH2AYtioUipcsR7tJJdJjCIItCg529/jwwVBZXW0C5QACgIB9EgCCbp9+/WKs2r1n5xYIhrGSkvJbjk5OVt8AX4wgZOb5KSmZq1YsH+3j4RmjUsgD8vPzx1ks1niStHCCAKGZmQ/mde7cpRNBEO2HDBnW9fz58w+r06hbt25ddXR0bPju3ZsVOC7Z4urqst3f36/J3r17FiUmjqu2pLgW37QIP3z42NK4wUMHrV2/vifFMB6Vxsp72c+z5DaWqmItNl1QUEDdtm3bTiFJ63OeF56oVKq7FG0bJ5NKlkAQui0gIEgHNpapTu+DsgAB+yQABN0+/frFWLV7986lNppyMRiN5xs1bOKGQNDlGQsX6hEMY+ZOmzK+Xp26Y5y0Dup3797NNhqNYxEEeUQQxNtp06YcX7x46QhnZ+cu/fr16XLlyo1qPWnszp07txwdHWuTpGkPTdPpUql8qYeHR/CBAwdSx4wZt6C6ADZp0iT8dMaZZd8OGJioUhAqXjwfTsDNLZo2crdYKK6Gv3+Yv7+vc6tWrWbl5OQsUKvVUQRBPGY5ut7+A+nrEkYlHvHzCwA7xVWXQ0A5gIAdEwCCbsfO/RJM27p1Ux+12qFTlcl8IqJ1yymVlZWn3+bkPdM5uahLS4tkXzdt0tJNpxvw+vXrxQiCjMIwbC4MQ8yFC5deRkS06ujr69c7MrLdhMePH/+pOu25c+fODUdHR3eWZY7bbNQzhUIW6ezsHLV///4tY8cmzaquur7++usG35/8Ycn6Des2VBmqbGYr/RHFMBbiKenQoUNVwf5BtX/44fvKPn367mMY+lpZWfk9DMPeubk592ZYtkStcogFgl5d3gDlAAL2TQAIun379ze3bt68efLQ0JCt27fvmGdiTAyBE7hcJpe5ar3wr74Ksj19+lS6e/fOk7m5ucYzZ84catGi2VWW5VzUalUjHJd0cXZ29h05Mq77kSMnqlXQ7927d0Wn0ykePHiwH8fxH/z8fBb6+/t3PXjw4Jb4+IQp1QUurF5YvSt/urqhSaPGXcStZFevXq1gWdbHy9s71knnqHyf+67whx/OnFq7dvWNkpLi7TRN0TwPhcvkEi+OZd/odK7NgoKC3T98+ADm0KvLKaAcQMBOCQBBt1PHfkFmwTab9QPL8oUrVqyY4e3rG/7NN637sIwgQVH07oTx4zbt3r0znSTJQLPZnEdRtts8z21gWSG6Ro2gMSqVSrpr186ooUPjzlWnTU+fPj3r5ubW3GQybCNJ6xW5XLHIycmpZnp6+vrRoxPHV1ddtWvX1p45f3bx1xFtZnu6aWTtW7Z379SpU/CHjx+LCIKwHT247VVMn6Fde3TrtuPduzerFi9efjI+ftQYFxdHuaOTY4WEkPcNCgp2BXPo1eURUA4gYL8EgKDbr2+/FMvg3Nx3L5+9yDr98OGDrD0/nDqWumxZVMGHDxhNcpknTx4ljn9/4mZxUaF44gnDMMxOlrM9cnJyHiGXyRsoZEp5Xt6HHjVq1DhZnQZlZ2cfdHZ2rnPhwoXUysrynA4d2+9wc3Nz2bF916qxY5OqrYcutjk1NXVCRkbGnwIDAyVPnz6F16emtq9ds+by8VOm1GrWtJGsXv0GPYL8/KdmPny4fGPaxvvz5s4byzIMqlAqJGq1g6+Hm3swWLZWnd4HZQEC9kkACLp9+vVLsgpOT9+3s3//gaNT01LjlyxasmnZihXdV3333dnMrl1NNY/8UPv23ev3OY6zlZZ+NLEcN+HK1UuVHdp32Ovp6YnLCIUmNzenZ0BAjVPVaVR2dnaas7OuV2Fh/s3KyooVQTVqHNDpnDw3pW2bIpAjAAAgAElEQVRJSkqakFqddS1cuHCcm5tb5ru8POenjx69WrBoQZ3weuGHho0YEfnk4cNbqzesXRge3mBCRUXl1sx7d3NCgkMaOjg4eOASwgnHpOc1KtVECILY6mwTKAsQAATsjwAQdPvz6ZdmESwIXPo337Qd0bFz5wGrV6zYt//g0ZYL58++E1K7tsePP/6I3735Y6bRaLSUlhXdhSAhbf/+feT4CeOna1QaDW1ja1ut5m5eXn5nqtOw7OzsNS4uukE0Td+wkuYqDMO6Ojs7yzempg2ZNGlqtZ5uJgr6nTt3rvkE+KhyXudQ8xcv/rpJgwbrR48d29rVyemGt793Ssy3384grdbvSCt5hSJt89UalQnDcK+1q9etW7hwYbW+YFQnR1AWIAAIfDkEgKB/Ob6w15bAZ8+e2T1r1pz46JjoQWtXr9136OiJbuNnzzhrNJnEQ8j9rt24/qBMX55eVlxIkpTttrOrM+7l6RnHsTwiI+QN373L7RQaGlqtc+jZ2dmrXVx0Q4xG01lBoN8zLNfM3cO9wZZNW0VBP1adzli+fPnk8+fP36xdu7bjq1evnsxdtEg9csiQ8kFDh9biafp+jbAaKe3atU8yGkxT9OVl77UODlN5QXivUasbzpsz/7s1a9YAQa9Oh4CyAAE7JQAE3U4d+wWZBaen79/Vv/+AkQsXLuy1du3aU8dPnk5MWbzwsKurqzTz1gPJ46f3M/PzC3ZXVpblqFQqDEGhEU5OTnkKhQIyVVmaVlUZOwUFBf0agp5UVla6B4KEXATB+rq7u/tv2bK538SJU05UJ78NGzZMP37y5DUURWHKYrEuWbm8VtzIoddXr1gb9eOt6+cb1m04oV27yITnL16MWbFmxZWJY8cnBgQE4ARB9JqWPGvBlrQ0IOjV6RBQFiBgpwSAoNupY78gs+B9+/bsGDgwNn7mzJm9Dh06dHzLlp31FiyY/SqsQQPVveu3dXfv33yY/yF/65mMEznh4Y1KHJ2049VqdYFarXamSTb848fijmFhYdW6bC07O3utq6vrGL2+9A3FkFtlEkUXFxfX5lu2bO5T3YK+cuXK6adOndpLEEQlx3HSwLAwhy3r1+d8t369H2MyycJqhcVHRrYdazAYx/ACbyAtlm8cHBx4QiLpPSN55syNGzdu/IL8CZoCCAACXygBIOhfqGPsqFnwgQMHdvSbPn30jEGDBm7fsuXA0R9+GLB4/tJLbr5uvs8ePKm8c+/Hh0VFRZd5ni4irSSPSdD6GIIddPdw7wHzaHhUVMf2ly5dvVidTMSkOA8Pj45VVZWvTSbzQYLA5ru5ublu3ry13+TJk49XY11IxrmMBen70jMQAhGyst7AaWlpTadNmrRv0XdLW2Q/fVEcFBw4slnTZrFpm1IH9uzZW8GwVG+ckHzQqNQxYxLGJu/cuTOtGtsDigIEAAE7JQAE3U4d+wWZBaenp+/q379/3OzZsxunpKTc6RIT4/b6SQ7VPCI8MLJ1W0mv3t2vFRcXLZBK8HoWizlb7aCOFQTovEQqaYBBeFjv3t92OHfu3KXqtOnNmzcH3d3du1gs5hdVVYZDMCxMcnd3d9i8eeug6hT0pk2byjIunFs6fPDQ3WOSxoQuW7zsSs2aNVX3X7wwrVi2+Ou792/eD/ELntOsWbMRZrMxgWVZmmW4/gql6opao06amDRxLuihV6fnQVmAgP0SAIJuv779UiwTe+i7+/XrF7d7375uK5cvP7sudVOnxSlLHnjX8PEePiDWtWHjBoc+fizcJECsE4HjJTaK9MBxaYaLi24yS/FB0dExHc6fP3+lOg3Kzc29rlarHUnScq6qqvK6Wu2wQa1WOqelpcVOnz7rSHXVFR4eLr948eLyTt067enZo7f/se+/z1q+ZEmjRStXnpo7fXr3S5fP3aodWjOhU+fOCfvS9/dydXb+Kjy8YW8Mge84ODj2HTdu/Ow0MIdeXe4A5QACdk0ACLpdu/eLMA7es2fPrtjY2BErV66NXL36uyvxY8bUP3boUF5Y/fq1Rg0b4VOvXq3NJpNxOsfRvVQqlVIml2orqipWKuXKOETAAnv37tXh3LmLV6vTmry8vDytVltqtZqe8zxfl+eFEC8vL2LNmtV9J0yo3iH3goKChcNGjvxh8MAB/ebOmTunfv368JEjR0wPnz5tcfz4YaRZk2b9Wke0GvHs+dM4HJfIXVx0veQS+XWtVjth5Mj4Gdu2bQNJcdXpfFAWIGCnBICg26ljvyCzxCH3nf379x91+PCx6GXLFn8/dOho550706rqNWoWEjd4YINadWpuNBpNw1mO7IzA8DOO55pQDPWjv6//IMbG+UdHx3Q8d+7cZwn6oEGDfLy8vDwlEkkZBEHqqKio8SiKlnl6euiUSnktjoP8MQxT3b59e0dGRsYtGIY/KBSKqsePH786deqU9XN4pqamLtyxY8fOiIiIgMzMzEdTZk1xXJW6TT9rysRGmbduWsNq1hrTpm3bXh8/FiULHKeSSCR+arX6RxwnVo4ZM3bK9u3bq+189s+xAzwLCAACXzYBIOhftn/soXWioG/u379/0p8uXUpclJKybfF3q3pNmTHtXGhgoFe/3t92adai6aysFy+7yVXSBTiGGnXOuhCcQOMJXLqEsXEB337bu+Pp079Y0OF58+aNmjBhQrTRaFQQBCGTSCSS7Ozs+8uXL1+LoqhcXE5WUVFR+e7dO1vTpk3R/v37t9FoNO3lcjnm4eGBFRUVecvlclNJScmty5cvn8vIyKigaZplGKb4+fPn+v9rF7eUlJS5N27cOJeYmNi5sLAwA5Ng7rt37L44a968cCdHTQ2VStnfz9fv6/yCD8lyiaxNbm4unZOTe7Z3796rx40bP2H7n0+2sYdAADYAAoDAr0sACPqvyxeUDkHwoUOHNvbp02fC7NnzYvfu3bVn9/7DjVcuW/hWoXEKHT0yrkOTrxtNGTM2sdu4MYk9vL29ZDaaCiZQfIJULtkK8WhATEyfjmfOnPlFc+ghISGqzMxMcU78qV6vrymTyUgEQWoplcogHMctCILQDMOQWVlZN69cuZKl1+vzYBjOf/bs2dMTJ07ok5OT/Ww2W3uGYZT169fHOnXq5CcIgj+CCDhNU2+ePn1ZnpWVhREYZiqvqKiU4tJSjqPNsIAV3H98P1fs3aeuXz957fr1u/z8/EiapqkGzZu7Hz2517x+2fowU4WJDg4Oml+rVq3WZWVl86VSaa2srKzyW7duVSUnJ08bPHho/N69e/eCQAIEAAFA4P8iAAT9/yIEPv9cAuIc+qbY2Njxi5cuHbJi27b9h7fuXLBk+eItAf7+REyv3t82bhw+fe3qNT2GDBs0889Hi+5wdXed8PjRo/GNGjZezVDsJ0E/e/bs5V/SkDp16iju37+/p2fPnkvu3bv3SqlUoiiKEt7e3urk5OSWgiB0rV+/vodOpwsRRVsqlTIQBDF6vd5SVVVlEQThLkVRz86ePXv/2rVreoIgTCiKsmazmTQYDHBOTo4glUpRm83GRbWNcm4X1Xag1tGplpzAadJG0bwACeGNwn3LSsu8pTKpgZBIdh48ePDV+fPnTfHx8VxFRQlXq1btkbVr1+09deqkTikpi5uYzWZBLpe7SaXS+GnTpo/atGnTwV9iO3gGEAAE/lgEgKD/sfz9W1grJoDtjImJGTl/4cIOc2ftunDjdnr7JSlLn7p4Orn06dX724g2rSeXlpYs5Xmmg0wqy5IppM1Gj4zvuX3XjoM2Cx3Yp0+/DhcuXPhFgh4UFCR58+bN2nXr1l1OSko6/I8AREVFqT08PFpDEOQaGRkp79SpkyOCIK44jutomlYIguBGkpZAiqJMWq3DewRBq8rLyytE0X/w4GGexWgpozm6nGEYi1wu1zMMk5OcnGz4ua5x48b5xA0d2kHrqJNjBCY1Go2uHMcFQBBUKgjcK5VK4a5WO4y6fv36iXbt2vEkadVWVVUR/v4BrUePTkzYtGnTrt/CcaBOQAAQ+H0RAIL++/LX77G18P70/bsGzJg56vzmrckrVizfMmfR0vCps2fc9A8IEAZ165HUvGWzuSaTcQUE8SNhBLqAILD02eNnKxt/3WQTbWP8+vUb0PHixf87yz0iAsIkkg4h7du3DRs4cHBPFEUiZTI5gSAQqtdX5iQnT55RVWWu4DjuxdmzZ43/AiYCQdDPX5CXlxdKURQqCALcrVs3qE2bVk1ZVugmlUp8mjZppnR1dfWTSKWuNEUhBEEIPM9zhspKToBgVuA5TiqXwziOmzmOq4IQWMZxHEdRFG+z2fKePHl48dCho+9JkqwyGAwfHj16VDZu3DjP0NDgOBhGatSuXYeTyWSuDmqNm/hywXPc/Vt37xzds2OHXpwroFi24t27d29ycnL++gLxewwS0GZAABD4fAJA0D+fISjhXxOA9x88sHtA335xW3fsiF6Smpqxc8367nNnz78VFBSg6xXTo+03ES0XlpaWLbBYLQOkEuKWRqOOTIgfG7Uvfe9Bs9EU0Lfvtx3Pn7/01zn0VatWydRqdaggCD4sS6kRDA6T4DJdQICvpn79hnVQDFZYLdQDpVKSYzbbypRKObl9+w5u2PChc6USOW8wVGRevny9TK8vN5nN1iwIgioIgiimKKp04sSJL/4Th0ZERDhotdqvFAqFN0VRmFqthiIjI7XdunQLtdE2ZxRGJLiEkJIk6cNxnJLAcGeNRiOjaBJCEASCYBQiCIKxWCxFPM+/zcjIKLJarRwMwwUQBL2oX79+UUBAAGuz2RSTJ08WRw6gVq1a4d27d/elaTqQ53lzfn5+7ps3b1AYhj0ZhiEQBCkiSbIEw7AqQRBIjUZjYln2af/+/cv/E9vAvYAAIPD7IgAE/fflr99ja+H0Awf29O/XL+7W3btL5sybt3fe3Pk9p02adqjGVyHOsQP7Bjdq1GBzSUnJSqvV2hlBoM2BQUGdbt68vaNhgwZzOZYLXLRo4bDQ0K9cYmJiYiUSSW2ZTAZRFGW0Wsk8GOXNggDhpaUl1wSeD5VJ5dfv3LnzSi6XQ6GhIX01Wi3MsWywvrx8x4MHme+7de+2SqPReHEcBxmNJgaBcRpF0Y8IgtSWSqUIDMMCDMO82Wx+IwjC/UuXLl0T14yzLGukaZqhaTrr/PnzRb/QEf/r/9vOnTs1DMOEEQRR12q1uuE4HtSjRw+FXC53kclk7gzDuAuCgMMwTDEM8xrH8cfXrl17lJ6e/t5msxXYbLbKx48fF+bl5dkgCPpUfvv27eW9evWqQ1FUhFwu91GpVAoPDw+iXr16HizLBpjNZvH3P+n1+ssTJ06sLC8vNyuVynd5eXkfMjMzP2uJ3i/kAh4DBACBaiAABL0aIIIi/iWBnwV9SOaTF+0mTJnwInnStHob1296qNIqg0aOGOrcumXzI+8LPqzVl+kj5HIZ5enpGRifOLrNti3bDlJWMphhmGSOY2MQBJFdvXptna+vbxN3d/dXPM8LMMqzNM11lCvk53iWHQNBULHFarnAULRRKpf7Gior3+h0LgN4gXuuUqmasQzjXFFRladUKxVGgwEmcDmOYdh1iUTSTqvV+okvAoIgfPqiKIojSZKEIIjgeb5KTHxTKpU5t27dKhUT13ieF0U+h+O4QokEM1ut1McNGza80Ov11MePHwUIgngxwe6n7/92mEREREidnZ2dRIFHUdRZrH/o0KGKtm3biiLtzPO8I03THhRFKZycnIx5eXnld+/eLZFKpa8wDKuUSqUVLMvm7t2798OZM2coDw8PcTRACA4OdsQwzEur1To3aNAAi42NDSFJsoZUKsWsVqsRRVH8+fPnCpqmcZZlJYIgmGEYrtRoNLaKigrxd7VEIrHBMIybzWZcKpXCNptNIAiCFY2TSCS4XC6nDAZDCY7jHzAMM5w/f/5uampq4f+1tO/fhgNuBAQAgX9KAAg6CI5fmwB86MiRPX1iYobez3w8fMG8lB8jIr9x27Njf3azVg0Dekf3CIpo3XrHmzevlxOEpAcuIb6X4ESrUSPi4zdvTTtIYERIYuLozsnJM/wQBB2wevWa6UOHDpns6+urLCkpeQdBLAQjSGMERR/qy8ttVgt5tkF4/TQEQfQcx9VEEMSmUCgkFosFgmFYHN6mUBQhCwoKIQzDzDwnbKMollEqlRH+/v5RLMuKwvSJSXl5uTjPnodhmBNJko+VSmUlwzDBVVVVNpqmDVqtNlKpVMrEY15J0gKJIwfiRVGUQFFUJUVRhR8/fszYuXPHm6oqA0TTFEtRrDg8/uzZs2eV1QQeXbFiRVOe5+s7OTmF0jRNtGrVSuLv7+8hkUgCGIZxE21HEOTM3r17b7548cLEMAxE07TYo39eUFDw6urVq+LPn64hQ4ZIw8LCwlEUbapSqYJhGIbF+zmO42mavlurVq17HTp0eB4dHd3VxcVFfEGATSYTolKpoJiYGE2DBg1cWZaFEQTRSKXSCBzH/WmaPtSiRYup9+/fL64mm0ExgAAg8A8IAEEHYfFrE4C/P/n97h7degx98erVrKSkSdfmL5jvN3vurBseTq4eI+Pjvm7atPHyV1lZQ2QKxTibjTzq7e3dYfLEqRPXp65LJy3WoPHjx/VOTp451mq16FEU+wBBUAO5XFpK04wDabOIc9hacS5ZJpcFYihmxTBcSpJWM03TjhzHmSUSidZisZQ5ODi4GU3G9Xt37z3RuUvnHUqV6hECoQ9QFBnDcbzRxcUlTKPRiEL/aX6bYRiG53m6tLTUjGEYCcOwEYbhEJ1OB1VVVVWhKOqo0WjE3uwnhjiO8+IzLMviYuJbRUUFy/PCc5ZlvMVd6Hiehy0WS05ZWWkJDKOQ2OOHINhCkmQpx3GvRe0Uk+dgGM5TKpUfkpKSzGVlZYJSqYTMZrP4QiKgKMqL8+IfP34Ue/5ixeJIwN9dERERmFardaysrHTBMMwBQRBCvCEhIQEJCwsL4zguWOyB22w2B47jBIZhUJPJxBkMBkoqlYpD7nkQBJlwHM/dvXv3y3Pnzpm0Wi3XsmVLbsiQIYPbtWu3oaSk5I5UKq0plUrFc9sx0TZxFIAkSatMJjPZbLbHVVVVd0iS1Gk0ms7l5eXPRo0alXz16tXsXzvgQPmAwB+VABD0P6rn/3t2wwcOHdjTr0+/wXkFHxdMnTrt1rikce6zpi34IbCmj6J/796jv4loNW3I4NiuKYsWLeF5/h2GYTUsJuNcnYvrQtpGBSQmJvRds2btApvNpiEIYhtJkgEURZVotdoPgsBGZWZmvq9dp04zjUbjp1Kp0NLS0teVFZU4x/McyzK3JFJJGwRBM50cHTv/ePPH727fvHV+dGLCmaqKqktGo1nm5eXVTVyf7ubmJojD5YIgECzLko6OjhIcxzFx1F0ciud5HpJKpaKYf/pZFFiapsurqqrEzWp8IAgyUhQlDt97URSVg2GiOENRKIq8hSCkjOc5K4IgfjhOUA4O6hBBgOQkSYniK2bUSw0Gw4UXL15UNGrUyBvHcXEdeqDYO7ZarZDYA7ZarVaKosT57tsYhhVcu3at4PvvvzfjOF5kNptfv379+s3f9rb/HRe3b99eMX369K8Yhundrl278RRFSUTbxNEGMc8ARVHBZDKJGfQGhmHK8vLybkyaNGnqihUr1tevXz9/69atWGVlpRLDMLxjx46y4OBgL5IkQ8xmc2VFRcXpOnXqLPDz83N4+fLlRY7jnCMiIr7OzMz8pTkI/45J4B5A4A9LAAj6H9b1/zXD4SPHju2NiY4eODl5Vptnz1/oW7dq6bBv17ZX9Rp+XSt+5JCBDRuGx45NHNc9acK4NWq1JkMqk3pRVmu62kG7kGMY//j4UQNWrFixiqJosYe7j6ZpB63WwVMQhDOCALdesWLlvsmTJ66GIMjLaiWzURR+TtNMgIODQ4jVShq9vb3cMAyjGYaV5ed/eFlRUVHm6uralKbpKqVKxsAwiqtUSk+tVgs/fvyYUSgUOI7jjFwuJx0cHKRiD1ecUy/X68vFbHOlXG6qNBjKFHK5I0mS+TTDVnAMXYcTBFYuler1+ooqpVKtlcvlsDiXjeOEH0mRFU5OThCOYY9JivJVyOUNMRSTSyUyB5qmYbVajRUWFsY/fvw429/fP9LNzS3Yycnp23Xr1q08fPjwp9Pfvv76a0lCQoIrRVHeFotFJ5PJZDAM60wmk9h2uqioyGC1WnmlUqkgSbJCJpOV/jT1YMRx/OPu3bvfZWVlkUajUTAajaRcLq94+fIlHRMTgxYXF7ugKOrZo0cPbceOHb/iOM6FJEkZiqJqlUpls9lsD1AUzWMYJuTMmTOVnTt39h49evTWmzdvWn7OERBHBliWVZnNZl3Lli3lQ4YMoTdv3vzW2dnZxdXVVRMbG7ty06ZNB5KTk/f816IPVAQI/IEIAEH/Azn7NzL15x76oGMnT8bt23vgfVTHjsqtm7Y/qNugdu244YOH1a1bq9fwEXE9ZyQnT+cFKMNB6+Bw+crl/Z07dkpHYSR45MgR365fn7qW4xhjebn+0Jw5s25v3LjpuNVqXULTdL+lS5fMnjt33natViuKlZRhGNhsNhfrdLqg4uISk5eXp0yj0RAKhUKc7xXnrjUvX77MF7duZTjmmMVqJsLrhy/TarVSk8kEkST5QkwG0+v1pLOzc01eEEp4llNyAvcDz/IUjMDfTJ0yI2H+/NkdGYZpiRN4icALOQiKtLPZqPffnzixNTKy/UQHBw3u7x/QymQyMRKZVGslyecsw/wJI3DbuzfvytUqZfNaNev0IkkSFtuWk5MzatiwYde7dOkS2KhRo5C2bdsunTJlyoRVq1b926eteXl5yYYMGdLSarWGyuVyXa1atZDu3bu7QRBUF4bh2hiGScRZAUEQcg0Gw/nU1NRiFxcXaVxcXEhqauqdsrKyRyzLFoq9/3+U8X7mzJn+zZo1c8/Ozr7StGnThz9l1v+vYX8x1lJTU5VlZWV8q1at4s6dO3dcbA/Hcd1SUlIW/EaxCKoFBOyaABB0u3bvF2Ec/MPJH/Z079Y99u379yOSxk3I+fPmZ26r1qy64efpGxYXN3h8o4YN2g0fOqTn5KnTVuIEcd/b0/Pr4cMG99i77+BBymYLiY0d1HvJkqUzBIHnb9y4NUWlkvH164evYRjmrEQi6Zqbm5sRFhaWSNPUVbPZqlSplG4URRXgOP6VIAg6sbut0+kQMXnt3bu3GVVVhh8lEul0k8nIQ7BQ7O/v58nzvJKiKDGhrdBitewUBEEpQNAdqUQyRuCgtIqqcg8nJ52HWqmSUQztXlxcUuHu5laLY1kPluNUOI6/EEVZIpW4v897/0YuU3iInXpcQpAsy2phBCm0kaS3TCYvsFqs5qLiIpubm0c5hiCwm5tbpKOjY8PXr18v27t37/6EhIQ2MpnMWavVTp80adK4devW/duC/o887ufnJ2bNO4hz5hiGIRqNBlm8eLEnjuN+JEm64DhOiPkGNE2HyGQyTqPRUDzPM2Imv0QieZKQkHDo3r1778V8v0OHDs149erVKX9///JBgwb9q6FzcRoBmjBhgsPEiRN7pqWlZTx8+NC5efPm3WfPnp3yRUQmaAQgYGcEgKDbmUO/QHPgvfv27Rk0cODg129zZkybPvNGQHBA3t70dFt05+5NE0bHTQ4I8Gs0dNiw3suXLdtstZJrfH19Bp88c2pw546d9kK8EHTo0JGBERGtliAIorTZyGdVVYbLGo2mj1wu17i5uXmVl5ffRxAkQCaTsTKZXCWREEqbzcbYbLYck8n8cMeO7U9UKhU2evTo7gUFBczu3Xt7JCTEX0ZRtFZllZ7UOTujDE1/KC4uRmwU9adHmQ/PhYWFRRNSiZFnOXelSqk5fOjQzubNWzYOq/nVaLVazVgt1jc4jmdQDGWGeF7DsuxdmmZrYATxjcVsEry9fOvLZDJHAYYMLMuWb9yYml6jRgj/p2t/2i9RSYypS1L1K9asaeGm07EdO3ZcqtVqWz979mz6kSNHzMOHD+/y+vXrzA4dOiQnJSV9tqD/kpgQN8xp3rx56x49ekQ3bNgw6vDhw+lZWVlrR40alZqVlXVr4MCBKz9+/PhP16yvXLnSe9KkSflDhgxxS0pKih0zZkzamjVrZh87dixn6dKlm35Jm8AzgAAg8K8JAEEHEfJrE4AvXb60r22btrE/3robt3zFsudhNWtatxw48K5L68jAqRPH7/Dx9aw5aPDAHmtWrZ2lkMtfmkwml01pm+bMnT//IM+yfizL3oFhuF55eXkJiqJu4mloUqmUf//+vbGiQm+xWi3PZTJZOccJeWK2+MyZk8oQRC6IE79Wq9Xyk/BgL148m69SKdsVFn48SBC4WSKR9qMoulKpVATQNL1TrdYMrKysfMiyrNnBQRP16NHjnHr16riKu64JAv9SEGAnluX8lUqluAENrtFo9ASBePKCIM159z4/Oztbr9Gos1QqldFgMWXfvHbzzaNnzwK3bkqb1LhR429HjxvXIGXOnFvzUha3mzd7RsaKFSvCcnJyKqZPn57m5ubW482bN3OOHz9+JSoqqu2TJ08kQ4YMSR47duzY1NTUz+qhf46DxSH8iIgIn5EjR7ZEEORrmqbdatSooSosLHw+f/78vYWFhc+ePn0qzqNDAwYM8IqLi+ujUqkMz58/z7JYLJb27dv7uLq68nq9PsjDwyN+wYIFAxctWvTgc9oEngUEAIF/TAAIOoiMX5sAzPDs0W6du/bXubvXLs4vNQQG1rBeuZJhjGjfPiBxZPy+4JCgoMQxY/stWbxoD8/x21AcC00YFT9jf3r6IavF4oth2Ltbt25dPn36dLbFYmElEsmzkpISw7Fjx179JxuWJCdPajR58rTtxcXF1ywWq5NMJi1XKpXBOI7XELPjNRqNj7hEDUVRlUwmvTl8+NDxycmzEnQ6J1gmk+/5ibgAACAASURBVIZgGK4Tj11FEAQmSZLiOO7GkSNHLl+/fu3t7dv3zr169cr0P2HWrVu35v6D6YtbNW85aFRiYs0lKSkPlixZ4jt9+vS3a9av7+Cq01Fdu3Zdi+N4nT+vTU8aNWrU9wsWLOjz7t07h+HDh0+fMmXKmI0bN278tZ30n5TftGlT2bFjx2aqVKppZWVlh44dO5YxZcoUMXGPWb58eeuoqCgfFEUlMAxX+Pj41MdxXDzYpqfNZlvm7Ow87z+pC9wLCAAC/z4BIOj/Pitw5y8jAJsspmNdO3ftH1qrbuvigo/ltWrVMR85su9jkyYt/SdNSjpYs3ZYQP8BA/uuW7dmDU0xV5ycHNslxI/uvjFt40HSSnoMHjy415kzZ8TT1sS1159zIQ8e3D1es2ateiUlJcybN2/PeXv7YDAM18jNzc1v3LhxXzExTsxor6ysrKRpWtwY5mV2dnYxy7JvMQwTBTtn/vz5L8U15CzLijvCiTvJ/cOkMLGhISEhIce//2FOy65dRo/s1y9kaUrKo3mLlteZN3Pqw+9Wr27z7NGj8vnz56f5+fk1Ky4unpOVlXVPKpU2f//+PRYTEzN+7NixI9PS0vZ9jtG/0rN4QkJCUGRkZIuqqqpgHx8fXc2aNWUURand3NzEQ2qU4tr0goIC48uXL4suXry4ZdWqVWLP/C+L9sEFCAAC1U4ACHq1IwUF/g8CMC/wRzp36jzA2dMzJO/DB9OIuDh087p1+po167tPnJR0uEaNwKDomF59Nm7YuFGtcXhK01To0LgRfY4ePHCQZVi3qKioqCtXrlyrDrJ9+vQJFgSh8dq1q1MWLVo428PD2xYfHx+bkJDw3d69ew/xPO+OouinqsrKynLc3d0DP6desYe+bfuOhR3atxs8bvykb4+eOXlq0az5fbt37bg2Zcny9rlvst+mpKTscXV1bZ6VlTV1y5Ytu+Li4qLy8/NDOnfuHJ+QkBCblpZ25nPa8F96FunZs6fWyclJxv/lEhPtkMrKysKzZ89S/6U2gGoAgT80ASDof2j3/1eMh60229HBgwYN7BcbG3N4/6G3k2ZMLZ6YmGgKqVUvcOzokVv9A/xCRifEd1+yZNlCCYZvlcllMSNHjJy9dfu2gxzD6rp27Rp148aNahH0ny3Ozs7O+e6775ZVVVXl79ix40hiYmKDDRs2HNZoNHXEe8RNVV6+fHmpTp06kZ9D6auvvqp16kzGosYN2w0aNDS63tqzp+7M+3ZA8IsXj7NGjB7TYefWTZlLlizZ5evr2/H8+fMTxJ3apFLpV0VFReaoqKjY8ePHx2zatOne57QBPAsIAAJ/DAJA0P8Yfv4trYSrTMbjg/oPGKBxcm1cVFxakbJgnjZl6cJ3nq6uXhPHjd8SGhocGtOnT4/Vq1Zuk0olhwlCWnfEqFGzd2zbekjgeHWvXr2iLl68+OMvNEKM8b+N80+/v3r1Knf16tULi4qK8k+cOHHmypUrfi1atDhAEIS4L/qnneBycnJGhISEbPuF9X56LCysbs0zZ04t6Daof9zyBYu+iWoz+nTK4iHtZ8+Yenrtxo3h/gEBtqbh4Rs1Gk2r48ePJ2ZnZ1dMmTIlguf5Erlc3nvMmDFd09LScj6nDeBZQAAQ+GMQAIL+x/Dzb2klbLKYz/X9tk9f/0D/HvoyfcG0aTMCZ8yYdTMgwM9j+Ii45XXr1Arp369fdMrihWOUcuUTraO2a9/+fRIPHzh80GqxKqKjoztdunTpxn9ixKhRo1q1bNkyKDo62t9kMvkg4iktNpu4jamjVqutEg9jmThxYsrHko/5Rw4fPXP08JFwuUqRHNUxKkYqkUICJECFhR9X9e7Va/G9e/f0/0ndf3tvw4YN6x8/8cPimN69+syZs6BJ584drs5fuLDj3FmzTi1duqLF48cPcjZsTN3pqHVsbzBWzYZ4KP/V69dNr1y9XDh50pSuEydMiFy/fr14SAy4AAFAABD4lwSAoIMA+bUJwCar+XJ0j159atas2Tkvr+D9rHmzoBlTZ38ICQkMGjlq1JLgkMCguGHDBy5cvGgBRuD35BJZ+NC4uHHp+/YepEibQ3R0dNR/Kuhdu3b9Wi6Xe6tUKmTevHmCVCrtwvN8F47j3uj1+lyZTNY0JSVlmpgtf+KH78/s2r2nt8CzXiNHjloOQzBE2kjx/wb3Pjfv0tmz/4+99wCLKln3vVfu1blpMk2WHARBgqKoGDCigllUzDnnwZzjqDOOcdQZc3bMCRWziIgEE0lybELn1SvevTwz59vfvfecPbPvnjkz267n4SH06l5Vv6rm31X11v+9uXf+/Pl3/pmAruDg4PAH6Y82+/l6D5w1a5bXihUr8tatW6datmxZ2fbt20Py8vKMX+/ccVYhV4SWfCre9vr1m3pXV9fuaWl3nixcsLD3zBkz4w4cOGDJUf57j1LL61sI/BsQsAj6v0En/smbALZoWp4O6D9giJevV0ejzli7aGlq2OIFix94eLjbzpk7a62Pj3fr/gkJA7/esWNxSVnZiojwNl9Nnjh59YlTJ04b9Ubrf0bQL168OPFvQVq7+ExiAADwX5/q6uou8MLOp+6+dOnShdOnT38LQZDdj0ePrly8aNFKgUBQsXbd2qMQDCtwAS4CIdAVxwTWGIbpL168uO3GjRv8GXXeE523PP0vI9v/vj+iojqE30+/v8nNJThx2rQR3dasWXlj45YtXZYuWnRr9+69A4VCrCF59Kh9MAwHajQtq3Ah3vCxoLD11ctXKyZOmhDvZO8Y+yfvX0v1LAQsBP4kBCyC/ifpiH/jaoC1DfWZwwYPGRYRHR37qai0ZPnypaYlS1aqPT3dVNNnTNvi5+cTPnLEiMS169fNamlpvtnK0ytl2tSp074/fOg0ZSat+D30+/fvP/otjMLDw+UikSgoMjLS8W8GLmc/fvw4YdWqVXfnzp07wM3NzScpKWn3p0+fjHHx8bY7t26Nf/369Yfz588/3rx1S6FMJsNBADSo1Q1GkVDUZDKZajQajVAikfB2qWUBAQH96+rqPpup/KMSFhYVfuvWjY2BgX6JS5Ysi5o/f/ajtWvXei1fvvx9165d7ePi4mynz5p5UiqRBJdXlI29fuV6c1BwUO/0h48+xsV16RfboWOXf3QPy+MWAhYCFgI8AYugW8bB700ALCkrzZw4bvyIcRPGRV04d6EydcUK25XLlj11c3MTz5g566RnK4/gseNThny9dccGGIHOYphg+NgxKZNOnjl1ijCY5IMGDeqblpaW/s9U9O7du0u6dOmyoaqqKvXYsWPVKpWqdc+ePVUAAEAKhaKFpCj9i4wM+tnzJ000S6dNnzJjNWEyNeBCUXZaWhoydPDg1mazOQRBEFuapm0xDHvm5ubW59cKelSHDuFP0h+td3K0HzR5+vTodatWPdy9e3fnGTNm3N25c49vZubTmh+PH7vJMkx7M0nMJAyEOedtXtvnz56+6tSp89DYmI7/T1H2/wwzy3MsBCwE/poELIL+1+y3v1KtwfKK8mejR40e1btf79hXGW+qFi9e6L94ceo9Dw+V0/wFC/kl97Ahgwcnbft6+9cIAl+VyxUDk0eMHH7h0sVTeq1OmpSUlHTv3r0Hv7XR/fr1Ex09evSyUCgMIgjizc6dOxdfvXqV9PLyYgmC4A1hpBzGMU01TZxGo4FmzJrRNTExaQWO44xIJILU6obGUydObXZzc6uNjo5eLpPJgjQazXknJ6fpAACQv6Y+/JL73bu317Zq5T5kyZLU+Pnz51xbv2nL0NQli47u3L07qkWtzpw3f95diUTapUFdv4NhOLvq6kr89s3bVzvGdhwV2zG2+6+5j+UaCwELAQsBi6BbxsDvTQCsrq15MWTQ4FExMTFtPxQXV3y1dKl89fLlBR4eHg5Tp03f6ufv23bq5Cn9Fy5etMfOzvYYDCMDp06eMm3v/n2nGIpGExMTh9y/f593ivtNxcfHhz/DHouiaAVJkhIEQQK9vLxckpOT45qbm89AEBQsFIsrQZBjOY7rD4KQ8/t379KyXme9S0xM6sGbo7x6mXkzIyODFAqFjx0cHPzz8vKg35L9LCoqKvzOnbuzkpISZ82ePa/77NnL727eltprcGLi6W++2Rfi79+KbOXtdcjBwSGaYdjVAAAE5+fnYzdv3TrWsWOHCd3jusb/pkZbLrYQsBD4YglYBP2L7fo/rOFgYVHhy3lz56UsWLQgau93B8oWLVkcM2/h/CutXF2xefMXfOPj6x0+dkzKgM3btm4EQeCjXC7vNmp0yuBjP/5wkjKTcGJi4uB/RtD/by0cMWJE+IkTJ548ePBgZV5eXubRo0czpFIpeejIoW/d3NyHVVVVfqPR6IxyuWwQAIAPZBJJDxRFwfXr13/dr18//MyZM027du3ifcv/UUFSV6xIShk9ZrK10vrVoEHD98MwLaUoClAobLHS0sL6r75aaR0eEdrNwcE+gWEY/y3bNif7ePmE+Pr6driTdmdHp46d5sZ2iO3zj25kedxCwELAQoAnYBF0yzj4vQmAhSVFWZPGTxwbHBrsXlZSVpuauqL18uUrX3p6uihmzJy9xd/ft+2QYYP7rl29brxMIb1hY207d8jQYXNPnTxxiqUZeuDAgcl3796996+o6NKlS2M2bNjwOC0t7auMjIxjy5Yt43N6swVFRZtdnJ3HqpvUbyEQkrx7/2Gvn693v/zcfPzWrVtzhg4dOiIsLKzPnDlz+u/bt6/qH9Vl+fLlgeFRESk3rlw7zyEITBlJjCAIsdLW2tqg1RHzFs4jRAJhgNJG4cexgDPNMCbCbL4txDGrlpYWeW1trdrLy3vwyOEjhqanpxf9o/tZHrcQsBCwELAIumUM/N4EwMLiwuzZc2dPmDd3XszhI0ffLluS6rN48VcP7ewU4PwFi476+fmEDh46qP+mjZv3sAyb6eLqEjoiefiUMyfPnKQp2tC3b99xDx48+H8WdF9fX6djx47Ft27devObN29OvH///vDu3buLs7KyjAWFBXucVKpEk8lEcBxbLRQK6zBM0CV16VdjSkpKKo4dO/Y4KytrT2xs7MJfA+xeenq/Z0+fhi5PTV3799d37twZ4X9PT09n7O3tRQAAiO3t7bENmzZNiYxo216j1dDubh7CsvJSg95gsGrl7ulx/vz5mLFjxxb+mvtarrEQsBD4cglYBP3L7fs/quVgUXHxq4lTJ0zz9PC0qqqub1y/ak33pUuXXXFzcydnzp5+2tfXK2TIsMG9161Zv1goFDJ2dnZtx45JGXbkxx9OAiynS0pKGv+vmKHPmDEjfufOnadgGFa8evVq68GDB49UVFRU37x5U/uhqGCfq7NLf4PBwPDOdjKJtB1F0bKkgQPD9+3bt7msrEx+8ODBMVeuXPk/UqT+30A+ef48gabMoU8fZ/7UurUffvfu3eaysjKcz+VeYzazGTdv/h/ub1u2bHE4efIkMWLECFutVks/fPjQ9sGDB4+uXr06YeDAgX/GjGt/1Biy3MdCwELgVxCwCPqvgGS55P+JAFheWf544viJS0+fPd1mzKjxeX36xNfs2vVDvbe3ncP69ZuO+gf6tkkcMLDf+o0blkrEkvdKa+vWo1OSV58+eeYkSZg1CQkJE9LT09N+Yy3Avn37ukAQpGBZ1sHOzg7ftGnTQL1e744gSN2JEyd+GD9+fCe1Wv3u4sWL6YOHDl5pb2ffRyyR1jc01F3BMEHko0ePTzc2NDgnJyfPOn369I5z5849MZlMjQiCkBAE6W/fvl37XxnMPHv2bPDDx4/9GAC4HRUWRk2cOPF9RESEY2ldHS1FEGjTpq1dZs+ecUYgEIhpsZgpz8sDPD09TeHh4Z6TJk0S79672+5d3rumtLS0x1evXh2bkJBw7De233K5hYCFwBdGwCLoX1iH/080t7qm5uaUyZO3dOjQQZmZmV29dOniXjNmzDkrVkrMW9Zt2B0SEtytb0Kf/jt37JoIAkC5ja1tr1Ejk2dduXr1pFajaRk9evTEK1eu3P01dZ8xY4ZfmzZtZkqlUkWfPn1s6+rqChAECTKZTDIXFxdvvV5vvnTp0rHc3NyzRUVFDSiKkiiKGjZu3nTUzs4ulqLpcpoizygUCiDjRYZnbMfY3jRNUyRJ5uA4Hm0ymer454AgqG1sbKx88uQJodPpckAQTJswYUL+L3V8npEx5tq1Ky7r165fxy+zp6en07169RLU1NQI7e3tIVgslt64eLEiISHBdsqUKZJHjx7JnJ2dleVVVe4LFy40bty4kW0T1rpu+ODh98+fP58ybNiwo7+m/ZZrLAQsBL5cAhZB/3L7/g9reU193YWZ06bvP3DokPeY5JT36zeu77dw/sIrfn6+4uTkkfNahwZ3HDJocN+NmzdtkcnkV6QSSa9JUycu//HwjydNRpN26NChE+7cufOfgt6rVy9bEAStYBhWQhCEent7kxMnThygUCjiTCaTGACAUgRBrmEYhgoEgigAAAIRBPGCIKjZaDS+On369Jrp06fn/DK79vLykl29eX2lva1df4Vcwec/5/RGvQGBkXqapGr4WTkEQSE4jrtJJJLP3DQaDYDj+OesbAiCADqdDpDJZABFUTqtVpsplkr8cRwXEiYym6So3NSlX2UZDAZKq9UZIAjSMgxrsLdXmuLj48k7d+6UHjhwgJo7d27P8vJydXJKivLJkyfG0KAgNjk5+cHly5cHDRgw4Oof1mGWG1kIWAj8JQlYBP0v2W1/rUo3a1vOjR2Xcnj/3v1Bixcuzpsxa3bC+rUbLtnb20kmTpwwMSDIv8eo0cm916xau4mi6TQnldOg1NSlM7dv+/oEwHL60aNHTwFBUD18+PAxKIqKQkJCCJPJ1AKC4DsYhl0cHR0HQxAk0mq1IIqisEgkEsIwjPBiTxAECEEQJxKJmo4cOfLVTz/9lDl48GB469atlbm5uWY+Acvm7dujRg4btl4oEkawLGv8dvc3W9++fVuQuiRVEhAQMI0kSX8IgngrWYbjOEan0xEgCJa+fPnyKgiCNf7+/ikQBL15/vz5wwsXLpgxDIOt7eyguXPmxMtlikE0TYMYhgEgCAIEQVAYhhEQBJFmgiAQFNIUFhc3FRYUkEqlFW3QGxolUsl7HMM1JrPZKzoycvrdu3fDBw4cWPzX6nVLbS0ELAT+aAIWQf+jiX+B92vRai+MS0k53MqnlX1JSVlV6lfL2qxYtuqOq6uz3agxo3pHRbad0bdPn97bdmyffvPm7XM947snrF299sihw4dOAxyAkST5IjMz86GHhwen1WpbBAKBRKlUDrC2tvbnZ8QIgvDGMQ0EQbTgOE6r1WojgiCFL1++fHPlyhWGoihiwYIFjn5+fnNJkmymadrU3NxsIknyQ2lFafHFi5fpoKAg1ymTJ00tKipiJGKxxsbG1p4gCJlIKLTWarWvMAwrNRqNeRAElREEEQaCYG1xcbHpzJkzunXr1g0BAACRyWS8A10JhmH+Gp1WbjAaDY31jbe+//5IGgcxdoMGDhK3aRMWaTabguUKhRsHMNVSmazq5o3rOntbe6GPn4+3CBcpQAjCaYrCcRy3gSAIvnjx4rCkpKQzX+DQsTTZQsBC4DcQsAj6b4BlufSfI9Ci1V2YPmP6kTWrV3stWrD4/YZNW8LnLVx429HRQTRq1MiomHZRW4aPGBW/avWKr0UCgRGCQHD5ymUr93z73WkQAmVHjx0b3bVzl/7Ozs6dW1q0tE6nu3r58uVb9+/fb5RIcCwoKJSdNWtGdxRF25vNZkgsFslAEIQpikYQTADDCAJzHMvSFI3QDNPI0jSpNxgEJEW9z3mdfYKfKEdEhM1UKq07aTSaRoIgisRisYONjY2dUCgUkySp4TiuEQRBiKZp2mg0wmazmZHLZUKa5vBPnz41ikSiLBiGNQqFIoCiqGCTyfTSbDbXUhQV+uLFi9S0tDQjwzB0c3MzjSCIedu2bVN8fX3bcRynLy4uJFAUQVQqZ/u7d9POW1kpKrRNLR8TBvY/xTCM/ZWrVyclJg46+M/RtzzLQsBC4EshYBH0L6Wn/wfbSZips4MHDT4yZ84c98OHjxQvXrxUtXjx4gx7ZxU2fPiQLrEdY7ePShmVsPyr1NlSiagO4LjuK5evGL3v4N5TCIwoCMK8CgahxQaDPuv+/fQrL1++1NM0zTg5OQkmThw/nGEpWwzF62AYkmo0uk/19XWVt2/fem0wEIU0QFs72Dm0pkhKhgtF0LBhwxRiiUjO0qwNYSZwHEMFFEUpGIZxBEGQgWG4jk+3CsNwAwxD9SwLmFAUVaenPzAVFBSoW1paigCAedvQ0FI7c+a0MSiKi7755psHN2/efLdhw4bEgIAA76qqKpSiqOw9e/bc3rBhw0QURRkQBI0uLi6a5cuXywwGg1GhUFzu16/fyNbBgZECgcCJJMlWIrHY2ag3HEBQpC1hMl7ChaJJmEDgkpubc+PYsWM/AgwAmc1mnIMAkVAohAGAY81muhHDsE8ajUb/+vXrT/yZ+v/Brrbc2kLAQuB/kIBF0P8H4f+b3hpVqVT2ixcvtvby9QrnZ73+fv49J4ybNG7jxvWxCxcuebBp8+bec+bPv+Dq6oRNmjzVo5Vnq/3du3QLWrh0vouflxcklUu9v1r2VdZ3u3efwVDMQaNtmSyXyHYiCMLodEbTli1bZoaHh5vKysoMSUkDFFKpdKJGoznEcdwAg8GAikQiRX7+28s4jlshCPZWqVT2zsvL+3rt2rVl7u7uuEloYoEmQMjPzPl86SiK4giCSCAIYjt0iGI8PDyFiYmDZ2IYhguFghaKoh9WVlb0a2hQSzAM42fsJY8fP7w4ZMhQKwhCk/nVgPLy8kwbGxuBWCyO0Ov1rxUKRUNeXp7Oy8tLlZaWdv/Zs2eVI0aMGCqTyfJJkgxxdXWNsLW1VcAQIKIZphwGIXuaoYFH6Y/2BrYOaMzPf2uK7dBxh9La2pd3suM4zlBbU/taJpcVvch4funiuUvA8lUrZkml8nYYhmmEQiFVWVnZ8vjx4+9HjBix5990bFmaZSFgIfDfELAIumV4/MsIzJ49u++gIUO6xbRvn0gztDMMw6DZbOYEAoFh2JCRiYcOf985ZczYB+vWrQtLXbnymbOrs0vfPn2FXTrHHho7KqXbgoXzZyiVCi1Jk0Dqkq+O/XDsyGkMxZTnzp1f1rd3T3uGAULz8vJv2tra1tvY2MTQNG3FMqRUKBR5qRvUaRACubIs9xoAAB0IAlqFQu5D00A1hmHLs3Nz51y/cqVo5OjRqtz87I9v37yNYQDgkxCDna9du3k5Nze3MiUlJaJjxxj/+PjuPkKhJEEkEgbzEexqtXqJVquNpGmGn9LzR98KV6xYfSQ1dWl7V1f38NraWj4K/gWGYQreTvns2bONUVFR2R4eHnEcx1nhON5VLBYjOI5XkSRZpdPpKBsbGx+appsRGDRQNClkaY4DAECCoIgXDMP2IrHYhiJJAMUwgGWYz33EsixNEIQWx/F8AABRCAJbgxAi5jiOD7arEYlErNls1syaNavbgQMHeEtbS7EQsBD4gghYBP0L6uzfs6lTZ0xNSP1q2cLa2mrQ18/XGoERGYqithAIIXqDXj1o6IgBw5KSnK7fuVMxcvjINt8f+uGVysnBc+zYFKuoiLZ7hg0d0XPu/LkdHZ1sP8EgHDBvwbyH339/8IwQFwpra2oe29naKimKxhoaGu/v3bv3TmlpKUVRVFmQr6+gR59e4xEY9rGyskKcXVxEAAc0gBBw2WAw2l64cOld//79A27fvn0rLy/POSUlhU+lWu/u7r5Ep9MdI0lypFqtXvvs2bOHOTk5wKZNm+J0Ol0/hULhJpPJPGEYlqnV6u+bmpqa1Gq1DX/8TSwWV0MQdLq2ttaaZVkNwzDFjx49Ip2cnJQYhjn06tVrgY2NjYNEItEXFBS0NDY2Vufn53/9008/kQqFwmHKlCniiIiIWVKp1IVlWc5sNotwHJdzHCfgOA7kP0SQJAnwkfG8WPPR8XxSFxiGP/8OwzBHkiSNYVjjhw8fSk+cOLH13Llz2ePGjRuycOHCKbNmzUrevXv309+zvy2vbSFgIfDnI2AR9D9fn/wVawQ9fvp0o4uLqu7s6ZMZI0aMNmRkPMGzsrPD+/btryRJUj1n1pxTaffvTx03YcLTQQMGZB0+fFrqG+gdPGbkcJ/IqKhvR45OTkhd8tVChZU0DRfgEVOnT/3u0PffnwZBUA4AQDZhJGwUCrkLhuEgwzAcDMO8leqFyz/91KjRNutQFC12dXVpjO/ey7+iokx64dIlasGCBXYajU7OG788ffq0uVWrVpF2dna6srKy18HBwV1BEHwJAAAuEom0DQ0NvEgbWZbtIJfLFzo4ONhSFIVyHMep1eqDu3btOozjeJNCoUA9PT1dW7durbh69SpMUZQbnzs9JCQEcHd3byOVSs0vX758//LlS93UqVO1p06dqq2vr/dQKBTOnTp1cgkLCxvIMIzwl8RIvEj/Uv5evM1mM8CfeWcYBoAgiD/nzrc5E0GQ6szMzBdXrlzRAwDw5v79+9nx8fE+GIZhsbGxPWNiYsakpqaO2LZtW8ZfcSBZ6mwhYCHwzxOwCPo/z87yzJ8JhIeHi16+ermPpqkEGIZZAADM9fX1FEPTrEQhJx8+frR9csrE46+ys/tPnDTp0779+2NGjxlz3cnGRj9r1pyU8LZt14wcNSx+9Zq1w8VCIadQWHWZMmnyjP0H952SSqRShmUAEIQ/z1RNJhMgEooAfoGapkgAQ1B+CsvQFGVGUJQ0GY2swWAwgQDISqQSlqLoZ5cuXjpx6+4t/viauqSkpLpjx47u8fHxk3k3OYVCAbq5ufmIxWJRTU1Nrlgs1mIY1rOysvKBo6MjStN0FIIguNFo1IvFYqq6urqorq6OoCjKoFarzx8/eHQXFQAAIABJREFUfvwZb3AjFApV4eHh6NixY3sIBIJuDQ0NYltbW1wgEAhgGMYBAMB4EeeF+pcz6X8/gPR6/WeDGl7gEQTRNDY2Fubk5Ghpms7My8s7vnHjRo2Xl5dRpVLZkSRpNW/evAR7e/uBfP35lQGGYUwGg0Eqk8m4efPmjd25c+dPlgFqIWAh8GURsAj6l9Xfv0tr/SIjrXOfPTlD05QG4ABnFmDFAAeKIQi0wQS4QKPTNEydMiP5hx8Pt0keOeLVkiXLgKULF34EAIDesGHLqtA2IdNHJA/ttX7dhl0YihXYOdj7Tp4yceaBffv5RCpKlmVrOQ4QIQgqRRH085glCBLA8f/YX4YhGOBY9rNrG4x8TmYG0BQFICgKMDTN/40zESYDgiCvL1y48KGlpcVEUdRHfsne29tbW11dLfvw4YPbyJEjpZ6enm0YhvESCAQis9lchWFY+cGDB/Nra2v5s+yyN2/eFBUWFlIAAHgAAGDPL8lPmDDBE0GQDhAESfklc5qmARRF/5M1/zsv1gRBfHaX+2UmrtPpaL4eAACUoSha19TU9H7btm0GkiSr3d3dn/KBbjRNtyUIwpthGGdHR0djjx49OkIQ5CQQCFzFYvGro0ePnklOTnb46aefqgYNGhSLIAifbvViQUHBcYqicufNm/cPU73+LoPC8qIWAhYCfzgBi6D/4cj/sjeE4+LinAUCgTtN04J+/frJEhMTo0ma6icSiYUKhVSu0bScSEtLK3ny6OGDnr37hQUGBrpiIhzCUCRkxqzZ+3449GOrpKSk18uXLfNdv3FjloODAzh5/MQlkZFtkxIHDuy7bsO60VK5vEEmkQ5dsmj+iB27vuHPYaPDhw4Z9PRpxiuWZSG5XA5MnjwZ8/UNDDWbjb1CQ0P8fHx8PFiWtQUAQMHPfvmZMC+afPnlO79sbTAYALFYzO9H8w/SMAzTvPOb2WwmKYqiIQiqf/Xq1aVTp0496tevH/7o0SN0/fr10X+zi+3LcZy9VCrlZ+wwjuMQx3EIy7L88TaQoijeoe7z/fglcn4l4fOHCxjm+D1yAABMNE1XFhYW1hQWFqppmr6+YMGCy1qtlkNRlPby8uLPvKtcXV2l06dP70jTtNnd3T2Rt5cVi8Vio9G4W61We5lMphsQBHUvKSk5evDgwQa1Wm1ycHBwcXBwsFu8eHFHT0/PyRiG8ffhA+/AoKAg3nhHyq9qcBzXAkHQ9Xv37qUdPnyYX2GoTk9P/8Bz+MuOSEvFLQQsBP5/BCyCbhkQ/y2BiIgIh8mTJ0/18/NrFRMT49PY2OhqMplyEAThxcyJBYBcGAY/UBTpQzOMKwyAV0QSkYNOb8hjaCrSzDC2LioX4eixY77r06O324nTp994eHtX1JeVUba2ztJRY0Zuje3Yvn/KmDEJixYvmmBja3NfJlOMnj516vzde749BUGQIKFv/8SBAwcCX3/99YuioiLervXvCzRw4MAAsVjsLJFIbIcMGYKGhoZGkyTJz2IDUBR15j3d+SfwovuLwPOiyxdeeHmx/2XWzJu/QBDUwos1CIJSmqZ5C9nP1/BffOEFkn8tftbNB6vxf9dqtUYYht/zQklRVMOZM2de8mfCURRlWZY1oChaqFKp6kQikbNUKlUaDAYFgiDtBQIBFRQUFKhSqZRisbhRo9Hk8h9IpFKpNcdxT69du9Zw8+bNT2KxGJwxY4aEZdm4V69emUUiUbCPj49dSEhIG5qmFS0tLaUYhlVJpdJ733777fXdu3eXx8XFdQRB0I5PNBMZGakYMGBAawiCrAmCsMVx3Pzo0aNPTU1NjMlkKufPsvP2ujiOVw8bNuwdj8by1rAQsBD4axGwCPpfq7/+8NrW19cXfvr0qd7Hx0chEom8eHHkOI5lGEar1+s1NMuWUxR1+8WzZx/s7e1rWIR1cHJUdRNLpDfVDQ0Oq9dvunlw77dXR6eMXXXh7IUOgwcPvj1v3jzdrGnTCt68edOSk5t/tnVw4KBevXr13bt373SOYxzt7e2DDh060nvy1Em79Qa9nKaY7RgmGIJhmI1eZ5AWFhUff5f/NufRs8el9dUNOpYVFVVXv2XevXvHB4p9nqH//MUrMJiYmOg0cODAwRzHtbW3t8djYmIcYRgOwHH8c6aVX0SZn13zM/xfRP6XSPNfZvr84waDgRWJRJU5OTn5b9++baJpms+ydvLnRC/8bPzz0kDnzp1dra2tQzdv3txHKBR2lUgkIoIghBkZGT+0bds2+enTpzulUqmdn59fOQRBOfv372/S6/WiXbt2Pebr3KtXL4m1tXVUcnKyc/v27ecIBAJf3iOef4z3p8dxnP8OABBIqBsa7mG4QP386TNc3agGo9u1g+ztHRwpmspasXzZE12LjtWbTGaI40qbm5urnzx5wudi//ze79evn9fApKQhMAT69urdy8bG2taTpEg+7SxrNBhycKHoxcjhw5+ACEIbdTp++b7yxo0bfNpYS7EQsBD4kxGwCPqfrEP+bNWprq6u3LRp07zm5uZ3NE17tGvXznr48OGRJEl6CIXCUBhFcBhGalEMwXU6XUODuqFAIpMoWZp5CaMo9S4vPzO2U2zq6FFjt+3bv9d/6NDhT7v37Fn/5N49rclkgteuXbctKipy2NixY/svW7Zss0iE30QQJJGgyDlKK6tNLMNIWjSaarlCWUqSZuzc6fOP+yb05cRCaevGRrWc3zkXCvCS0tIy+6rqKq6psSmDJKl8uVzO0TTxYevWrbqioiJ+tvl5mZ33XO/Ro4ejVCoN4HORb968mc+u5oXjuB+Koq04jlMKBAKQJEn+vdFgNBo/sCzbyLJsc0NDQ/b69ev5lKuV9+7d+6BWq82TJk0SRkRE+BsMBjeapt0UCoVeJBL5hIaGuojF4tY6nc6Qk5NzPTw83JFhGMOsWbO+3b59+9ChQ4fu5Pva0dGRcnR0lCxcuNAuJyfHB4IgXxsbmzbx8fG8e100x3FygUDw+Rjbz8ldmIaGhk+8zazBYMgCIMiL47h0M0nqMzNfNHIcR3h5eTE4jrO1tbVIWFgYplQqBVqNXqrXa5GGhka4sbHBurq6lmUoqojjuOIjR45k5ubmUgMHDlRwCOIOMYwKF4vBXTt3BgEA62ImzHYIgjoIRUIpRdG1Tx4/qtMbjGYIgtQCFH3P2+KyLFt6+fLlkhMnThA/j2H+8Pwv3P9sw9pSHwuBf0sCFkH/t+zWf12jGhsb+Rk4ajAYvjp06JDhw4cP/DLt+/T09M+z4cGDBwu79+w5FBMIOvXt26e7Qq5QkXz0OYoBJEWyAACqOY6VJSYOGZQyJll54tS5T8uXpdquWL0iz0Wlkk+eMPGr8DahA1NSUpLWrl27jyRNGZ6erTqUV1ZudnZWJRMEYVNaVvqBodkXer2R/OnitXORkW2l+e/fBjx6cO/2iJSUqG5dug7/WPAhLyo6OqGpsfGn169fZ0ZHRK2zVlp70ywJalo0BQaDAdz5zTfb1Oo6kxgXlx09epRf2v4Px5ZfWeLj48OsrGys1q1bG6BUWseYTMY4uVzaTBCEob6+PkMkEvHOc+ry8nK8urr6pUqlcr5x48aTt2/fvr558ybJf6gICAjA2rRpEyKTyQLGjBnjFxkVNY1hOCkMgyDDcD+fM4cAmmYAFP2PI20sCwA/r/YDJPk5wE6v0WizS0s/FdIM9dHGRqncf2D/24qKCrNAKPmkEIsLXdxdRlsrbQPdPdxlQYEB7MZNW+7odRqmvqFRR5vNT69evaqeP39+uK+/bwKCYE4wBEFdunQGpFIZuHrNmkctmibGRFB1Jp0u/8qVK9V/hwjev39/AAMAPVEE8XdycBD06NHDH0EQfwAAeBtdPiiQzyxz32w2P580aVIJAAAtMAyX8gltjhw50mhZzv+VA85ymYXAbyRgEfTfCOxLu7y8vPyNnZ2dZuXKlUsHDx4cIZPJML1eX8LP6DiOc6Jp+mF9fT2cmpr6IapDhxAXlcp62fLlHSRSsY9MIm0vlvBBXSZmxoy5yVu3bFLNmjP/7aIli5VfLVuS765yd546efy8iPCwpFGjRvXfuHHjRqPRkKtUWkXSLH3fWmkdQlJ0cFVVpaahvvGKQCCgjxw+fCQpKak5682bVpfv3MmZNHq8d0y7yAXbd2zflZAwoGdDfW32tRs3Pq1dtXoWSVK5IjE+EGDZRxzAdZbLFU4MyxQKMIFNZsbLUzqdjt8rN23duvVW165dRQiCgIGBgW2OHj36YsCApHYCgQAhSVJiZSX3N5up/OjoqBF/W01PFwpxP5blvLRabRFNk9eNRqPk8uXL91QqleOtW7dqNBoNUlRU1DxnzhwHX1/fVjRN27As640giIdKpbIOCQlpheO4K8MwoJmkAaFQANA0y0EQxK8gkEaTkd+T11Ik1cyx7D0MxzGGoQkMEWB6g05JmkkGgLjXdTX1NSxAKZRKG1/elF4kkvAz5ZbyioqmurpqVq/XmyQSiSYoMKi9SCRCaZKuFAiFnhptc3Pemzy1wWSSmQiihQPoChsbGy4qKooUi2TuBoPWxGeaE+Jid5PJUJWVlYWQJG1HkgQFAVCxQqFo4mCYxIVI/f7d+3nXPmeCIBwwDKO2b9/uh2GYLU3TUrPZ7ERRlD+GYUIcx+v41YuamhomKyuLE4vFagiCiiiKqmEYRoMgCL9/X7Vnz57GO3fu0HywoJubG5GVlcWfKLAUCwELgV9BwCLovwLSl3yJWq0uzM3NPfrdd9+d3rp1q1V9fX3X7du3b1+5cuWE3NxcYZs2EU4Gg65MIlc07dq9K7e8vJy9funS+1+WWwcPHoydO3eOn52iJVVVexfNX3zcrZXbpztXrmgjYzoFTJ8ycWxQgH/KuHHjYuPj46OzszNzevdOEL57l6vp2iM+VeXk6F5X17AeBMDAT6VlgnOXLr2YNHGi0Eph46fX6+6VV1a0bdXKa0z6g7RdVkplna5FBz16+qiofXS09dkLF8o7REdH1NXXVy6cP7+PUqnoCELgUYAFPWAEKZ0ydVLlgrkLR65YsXzJvn37z4lEEhzDUNeHDx+udnFx6f23PfdrHz58AKOiovxIknxjba0ckJn58uvc3Fzi8uXL2RkZGfxeNODl5SWIi4sL5Tiu9eLFi+0dHR3jEQSJgmGYj4oH+CVzvvB79b8E5vE//82SljGazE1Go1F95uzZNJZmyhiGzCoqLUW/27Xr7i/j7ptvvgnp3bu/5Lt939pom/U1YR2iyq+dPctngHUMDfOLYVhGhIBItZOrK285F4tgiKxn93jFrds3awo/FpZRHFVjLbcuc3V37UQQpEuvnvEYSdHiy5cv5TQ0NBhqq2ufGQwGbUxs7BBcgLqJRWKoTXi4ylmlUkEQ+PT48eNFEAyZiwuKc3n72ZiYGIPRaHSora0NEovFbiAI4snJyXw7tHv37iWbm5v5qldpNJrM06dPf57d8zno27dvH2I2mwf6+fnZdOnSxVMkEnmAIOgKw7CAj1vgy8+BhyRJkqUwDD/cuXNnXllZmaa8vPzV5cuX+WA9S7EQsBD4LwhYBN0yNP5bAk1NTWX19fW7FyxY8NP8+fOts7OzZY2NjXq5XO6G47ggJCTMhqTNREZmZln37t1JjmM61dTXPja16I00CBoOHDhAjUpOlh7Ys6e814AB6JPnzw0do6NdLpy+WRzZPqT1hHGjQ2Patfs6ISGh/aJFi2YpFIpWQiFenZn1uig+vnucRCL10RsMbw16HWkwmloamzTvba2t1SiOIx/z398rrSi3iY6OSGxpab5eVl7ZWqvTNN29e/fhlImT5pvMxFmWJJ0ZAGgICwkRyK2sZGdOnXpHsaxddESEbvv27erFi5cO2bZty/Zly5ZvvXr1+u2xY8eMW7x40ZrIyMhOMplVeWCgn7qystr/2LEfLyGI0FGtbqqdP392KMuyjjCMBAoEsK+Tk5OoVatWTiiKOlIUhfAR838fXMeLt9lsbjKZTPz5d5qi6bu4QNCWZumbmmZ9eWNzU2BRQdG1O3duvEtMTCRqa2t5C1iFXG6jRBDIF8dxvVQqFdnb2+tBEKqmaVpcWVmqUygU1UKJJAiCOKkQk0Bag1ZY/qkc0Os1dW5uno5CMeYqkkgAK7m8mY8vqK2q5SPaDSoXF94PXoWiKGajVOoaWxrp8vIqjCIJjjJTjMZgqGrl5iYMDgm2531xjCZznRDH5SRB5JsZBta2NIVUVFTZkiShR2GU37fn3N3dGYIgnN3c3FB+/16r1fIKDWVnZ9ezLCvgo+mlUmkNn69eKBS2NDQ0mIOCgsTp6eniFy9e6IYNGybz8/PzhyDI1mw2821uJZfLcX7/nyRJnmlTZmZmLcdx1SAI8hH5VSaTiW/H2x9++EF97do1dV1dncHydrYQ+JIJWAT9S+79X9H21NTU/iNHjpzj7e0dQ1FUaV5e3q1r166VMAyTFx4ejiclJV3fs2fPiOLy4o9JCUmemADrjsBg2urV696sXre61f2792WdunWznjxlSpqzm5uRJEkuPq6Hb+7Ht00Aw9hMSE6B24SF3gwK9HcpKCj4TxMUPz8/61Epo5KDA0PD+/TpPYCiaCmGIZ8d4v5jtktzIAg2aTXalxUVZVXnzp1/ZKNyzJg/Y0ZB58GdJXtW71lBsVQ+aSKBnJxsx7i4rm2lUkkYwzCntmzZUtKtW1ftkiWpH+Li4oJv3rz5cOnSpX07d+7cmqbpoKdPn+4oLS01rly58m50dLR7586du/Xs2TM4MjIySSgUOvER4n8fAc/PLvmANV7I+Rn5Zw92AODMpLn07p17Vzt36tw+Pf1B1qFDP37j5ukcJbeyMsnEUr/oyKiPNMsFnL9w/jXIohm+vp692sW0d71x43pNi7b5owDD3VtaNFT3+J7F169dtYnv3a8gM+OxGAJgHxCGlTHt24kfpT/WFxW8TQ+JjKQ4hhlCmelakja/b1A3e2IYbMQA4JGTm1sfgiCd9Xq9OSDAT6fTaMwlpcVCe3sHrnVwSElOTrY/BCHWcXFxxNt3+S1FBUWQVq9/IVeKmqVCOW9VK+jduy/r4uwcrm5szH6VmVkcHdMu9G1+XqVG3azt3LUrcuj77zGDTpdlb29vBiCoDwQB4vgePSX29na2jU3Nb48fP86MGj2aKisra36VmWnVpXMnm5CQkHAUQT04jnty7dq18pycHILnqtPpSm7fvn3H1dXV0Lt3bzeSJPnjdqG9evVyCw0N7cPHLMAwrIJhGAEhCGA5ls56nXVx4rgJS3Jzcz/9imFtucRC4N+SgEXQ/y279V/bKHt7e7vhw4c7jRo1ypckySCSJIP9/Pys+LzhZVUVZU4OTmX1tbX3z549WxQdHSbFMFyclna7qXPnToS9s5cdxLKLXzzP3GnnaOua/vBppY2jLR3gE8Beu3pVkpiYRHTq0O5h5stXnU0moxtF0b0MBs0Go9Hsu2/fdx8oiqpEUbFz//69pO06dAiWSWWeLAsEYCjiplI5CWysbWQ4jjsYDDozQRDVGo3G0NTUVOXg4GBFEEQxisJlAoGgvrm52UYoFBpZFni3bNnihvnzF7U+cGB/Ub9+AzpzHOdpY2Pzln8OBEHRYrE4TafTyTQaTVtHR0cXhULhJBQKefvW/yz8WfSfXd/4jxgaiqLEAABUt7S0nOTznxsJwgHBkJapE2ecG5UyUvU6802jnZ2NFYeAKoVcbkWTjDqsbZtiqVBmTzG0Z211tb68qrJWIVVQOI6pXD09itQNDXyKV9So05eJpJJWMisFUFtVDarVjVoYQ6RSiQS3sba2kUikWQ3qRp1EIvIzmkyQ2WAEUAxFzBQFgADLn403QyCoQmDU1cpG+ViE4zZ6g4YCYcSOTx3b3NQMNdSrG8NCQx15ox1EIEBBEKRrqivlCCrgz+VrHezsqhABImpRN8t1Rh1tb+tgaGpsdGEBOl+Eicximdi3rKxSLxaJWrEc/bkvXJxcSqytrYP1BoOnwkouZFmgpbGxwcDP3q2UNpy1UgnCICjij8jBMKwmCIKtqqqSNzU1udXU1BD80Uh+6yYkJKRWp9PVPH/+nKqrq5PPmzcvxsrKahoIggIW4JqqqqrUhNlMsAz78egPP8zcsGEDn9PeUiwEvjgCFkH/4rr8X9ZgaMGCBVEdYmP7duvWLUkoxH3UjeoLR48ceblr17e716xZNfLevbRPq9dumHny9OkdeW/fNlVXV7MdYzrZ4yKhxEmlol68yKDev8lpvP8g7fmy1KVhAcHBXt27dl87Zca05EP7D57hc5Sv2rCuG6ExioVC3OrWrWuvioqKPu9b/1zg+fPn+woEwl59+vTB/fx8B8lkUj79qMRoNH52hePLz5arvD96VkNDXeGFC5cKBg1K9M7IyLwilUr5wLgQf39/TxAEQzw8PHqgKMqZTCaQT47yi20rfwad91nXarWASCTiI835VKW8I13pli1b5vbp0yfa2dm5m1AofHTv3r1LT58+NQMwHDBm1JhwmqGdmpqaX6YuXfxjRkbGZ7HZf/hwWHibtq7nTp/xUyittP369HW4d+9+Q2lpWbqHh0eQo6tD5dPHz9z5AHdrpbK+rrYOkUilBMXQtl07xwnz8nOF9XV1ZTCA5sMwpyIo0pFmGMdxKeOY9x/e1eXn54MGo0nj6+9dShKEb2V5lUP3nt1ROzs7hqYY+anTJ5uslbbl1tYKWG/QOeZn59x2dHSEUyZOHKLX63sKUPgdQdLlt25ex2iGMUEc2EyxbL6BIJogkqRgDPNnWdbe3sGhztnBodw/0L/flSvX8G7duqkvXb5Q6+3lrerTuw/yLv/dk4yMjObGlpYQHEWVDMegKpVKMjJ5pBYEQAhggaiKiorMK1euiPz9/WGdTgdUVVXxJjn80rutXC4HU1JSMKlU2h0EwTYgCPIfoPhI+lcURT1bvnz5jUvp6S82LlkyoXefXm2OHz2unjplypx/2Si3vJCFwF+IgEXQ/0Kd9SetKhQQEGDXp08fpy7dukQhIOTFG6T4+vq2IwjirJXSOrJH9x5DZ86c7/3kyf33np7hkvLmEhSkaZkAEdo2NTXCZ04cu3Ph/PnZrq6uAqW1dd+DB/atjY2NxQQCUdCVK1cLlEqZvqq+nil6/75x7twFQTqdjklPf0hUN9ZVTRs/KWzWrKU3W7d2xzBMKi4vLwT5Gd/w4cPdfH19gyAIkmEY5gRBEJ+RTBoREa5iWdYOwzA+BamGJGmtRqPh93t1HMcZxWJxGz6dqZOTE6jT6TTFxcW59vb2QgiCnojFYqlQKARyc3Nf8+lUAwMDYyAIanz79u0TPjGKtbW1vUqlIvgZ6Ouc1wqKopgA3yDifcEHTUlhIdmzZ29FVlYWyAAs6+8fKP348X15VHQHQt1U38ywrIYjaDeDmRA62tqRr/PyjK7OzrKnb3OedgmLbCOAEU1dcz1pb+Pgun/P/qIuveJoF0fnAE9XjyoDYQoXScQ2JUVFHzmQKTObSHeO43jhpB0c7dTVtbWOOIpKUAwr+FhYqMIg1AmGYYO9g0MLDAN8fSGZXBoMAlCGlVJJlH4qQvQmk9zVzZUl9IQIFaA4SzF2RoJADAYdA6NIKQzADMtxbnY2SkoutxILcLyytraWNmi1BlyEqwiSeM2YGYlUKnUoLCnkAgMCbXEMr6FpmoVQVOXs5OSECjA70kTwe+5kVVWVH+/M5+jo2IqP9hcIBBj/IYqm6Qp+H/5vcXVvYRh+l5eXl8GftT98+HCVUqk0wTAsTU1NDQ8MCpyDoEjuoUOH0JnTZ07/k75XLNWyEPhdCVgE/XfF++W++KFD+3fHx/cyC8WSgdZWSs879++v6REXt+IXIr0HD3ZwlNkJJk4eFxcRHjY7KCigV3R0rNX8hbPbmk1Uh3v3bm/u1KVrIv9PnqJocsmilfuNxnruxx9PtN+792BOh05RXZoammq7desatnHj5sw1a1Z1Zhi2IiPjWdmnT2WRTU3qk1u3bi3833tgxIgRkY6OjlGrVq0aB4JgKIxgnyOr+TPf/P48QZh/yXrGqtXqTxcvXFjftXsPWC6V1n5/5LA8LKRNh8ioCFutTveh7NOnwosXzxsGDBjQ9vXr19Xl5eVpAACEhISEuOMiEVdaVtLUpk3b8rt379qOTxnHLxd4/fTTTxUEYW5iWSqzWasNBVmQSUgYCOTk5LQTifAWtbrhsU6nZ41mwtbFyVno4+8DlJWXu4IgjDm5Oj3sEN2h/dt371wyX76opWjuWotJWwqYzH2MBiPk5OJazJpJCsVhG5FYrDFqtW8rahpCIJCxdXFxYfv07Fd87upFW5aiPDXNupKExISSu7euOTc1aTmIZSW+vr6OQ4cNDbxx4yYFQFx5Tt67RyatViGUCCV21nZwTMeO8o8fPwYGBQaCSmvrlpOnjn8YNnhYZWZmJqQ1GOw9PFzt8t7kPWlubnYeOGiQ55usLCY6JoaaNH781Y1bt0Z2aNcukQVYL5FQxJ8acODtbPm4A54/n4WOPw0AQzAfe1B2/vy5Y69evqpoamp6cuzYMf7UBNC7d2+HhoYGtFOnTr53nt3J3b9j/7RtO7Zd27FtV5BMJvPDBEjO0R+PdpgyaYpF0L/cfz1fdMstgv5Fd//v1/jDh7/fFxMT0+jgpOoil8raL05N7Z/5/Hl+1379jFWFhbo9e/YY3Tt3xn7a+d0e/wDfUSWfSm/DEEhIJWItB4CVe77b+2zYyKEOy79ald25c6yYZRkPuVxS07FTl74kabZXKq2Lfzh87GjPnl3sKyqqHSQSIe+mpnFzayWsqiqzs7NzkN+8ef1027aRk7Kzs662bdtWlp6e/vbixYt8spNGd3d3t7y8vLqYmBjhyJEjPREE8wVB0AXF0DArpRL38/P3FgmF9hzH0QgCUyzL0S0tLVqWYd4RpJmPOm808i/UUF9ha2vbQJJ4TFYnAAAgAElEQVSkwGg0CrKysqocHR2xq1ev1nv7ewMx7WOtsnNyKkAaNgKAGfD09vZ5+fylsVNcJyVDMqLc3OxrkEDgphDLvB0dVUVlZZ9c/QODVaXlZbnq2lpKqpC3kikUcFh4uHHxwoU6CIXA2TPnNeTl5khhDKqgDaTQy9fHoaSkBCIpEhRLRcJPJSVl/fv1c+EgCDObzXBFcfFbXCoVFhV+kkMgo4BRVO7o5FTr5ORUBtF0EMkw1jpdS/2nok8NQSFBjvY29iKKYTDCZPQymghNS1NTTmFhIWlvb29lZWWFe3p5OgIgXHjz1q36oEA/mbXC2s5sNr8tKSlRBYeG2pqMet6+V6zVaK3kcnlbXCjkc9oLZTKZHIZghE+HC0EQybFs+fsPHyrq6+v4ZDKZ9g5Odd/v359VU1OjNxqNLba2tgqz1Gxwl7iHFFVU1EeGhPiMSkkRSCWSYVs3b/5myLAhXREMQ12cVbW4QKTCMSz/9t3bHfr06jPNYl7z+723La/85yVgEfQ/b9/8pWu2Z8/ub3r37l0LQUi4q6tr0uDRo1Xnjh7lo9ghLy8vSZFcbpoUHi6fNmP2jcAA/wi+sTDM5zs3fzZa0emMvBNdztlzZ96ShLk6MzP7zA8/HChITBzhjokg/z69ezP+AQF6ESYMKSsrqbl27RoWHh5uKi8vzyssLMOXLFnQLTg48JsdO77tPHfuzPRLly6vqa+v3RQW1nbl2bPnXnp7t+r07NnTRSYTpzpz5sfi/w02PGbM+GiRCPfq2bOXa89ePftCEBTJzyYRBPpP5zajkTDQDJnHcpxWr9NZwRCUc+7suQMHTpyoCPHy8hCIxdzsmbNmNanVtR8+fKw3GHS3srOzKwmCbh0R3VYR36Nn1xfPnvFBZ+VGo/5NaWnpR53OGKRQSOnY2C5IU1NjpMlE1Dc21l8sr64O5FjQXSjGmcTERCY3N9eOJtmPtJkuKijIq2/Tpo0zDKPDNRpNsV6vvdrcrI3qk9BHmfcmv7ig4F3WmDFj8FevXrnSNOdvNBpdQkND5JnZWQ+1TU32gwYNktva2jbeuHHjU4cOHRzlcnm/+/fv38vNzUUHDBjQSqVSRWRmZlayLKvR6/XPc3JysgcNGhRTWlpqZWVtZdW1a3eiqrq6OePZs7reffv2xDAkUiaT+xAEobGysnJCYASiGfqzRz7Lsg1lFeU3t27ZfMdMmXNPGE688831Fdl6eSFCkhRCUilnqK8XNjU1GWNiY2MmT5nidfbcaU3v3n3apD9Mvz592sxqFAbHG/TGvFdZWZUhIcETQQB4tWnDppwxY8YYwtqGjesxfOTE9HPnfvH1/0u/jyyVtxD4LQQsgv5baFmu/dUEJk6c6DN8+NCvQkPD2iiVypBNW7YtysvJzZs4fZrLxdPnn33zzbYPvr4xwrPn9l3z8vYhHj5IPxjcOjiVYzk1JsBACIaaJWJJNG+SptMbCymSDEYQRAxBkJFl2Ry9QV8tFUsqLlw4965Xr77YhQsXWzp0aO/38OGzizY28pFeXt6ZZWUlTFpaWumcOfPjzp+/kIOiiJNSKX/i4ODi2dxcT1y//vLjkq+mjMjLyctSuTq2WrJw4aUZc+eGX714sczTMwB/+jRTYzC0iNTqiiZHR0eRSCQCR48eFyESCZ1BGIwQ4SKbtpHhTtY21l4IDMsZhuEwFKONJqPJTJJqmqLLKTOtYTm2BIQgI28/q65vePP+/XuoRdeCKKQKMC4uDhSLxSKCJEJBDih/++Hd+6rycj4BDmljYwO0jWxnA4OAjcagw5uamtJev84ViMUC0t/PT2Zr6yAX4oL2zY2NLR+KCjJ0zc11EoncuXXr4GCdwYDaKBXpBgNhDQCcA0GY60EUqgUZprG0stIh9/Vrdbt2Hd1cXZ0CaZqG1Gp1eVFREePs7MwFBwd7AwAg5/PB5+fnNyAIwrRp04ZPBiOiadodQRBfCIJ0LMuKpHJZsECAu6EogvKmORDfUJORrK+vz3n/7l1di05bhCHIR1dn18bMzMxHmzZtMiYlJclmzJ7R4+iRowURERH1GRkZttHR0c1hkRHf0QxTRpiIBoIgyL17v320efP2GJNJ9xSBBWtNZvPV3DdvqgyE9o2VzMbz7KVzhq83beloMpldKqoq1KWlpdzjBw/P7Ny58/WvHqiWCy0E/o0IWAT936gz/2xNSUhISDh79uwlHMfhNevXjz51/Pjd1uHhdkOHDHdZ//XWFyG+Qe5zZ0475OXt6T546LD+WzZtGicQCKqsFIoEwmy+rbRSdH72/EX2oYMH57bo9e1wASIfMTw5eMCA/jPMZjMf7AayNMfvf7MkSddWVlZlPn36rNRsNlx+/vx5VklJiUkmk7n36NEzbsCAAe78jPLNm9e3qqqqnri7u9MPHjywGjRokFV+fn6ZUqkMLC+vcrS1VT4bOXJ03HfffVP48ePH6mnTZrarqip/p1DYKNasWVEolUrlP+cR/4w7qnOUs6ONo6+tja3ttq3bOiAIOkyIC/kjfSBFUwDA/X/783q9Qdvc3Pz4ddZrXUtLc7HJRF64e/eeDkEAf4lEIpw2baotjCDRHz5+0De1NF8+efRopoeHVwQHccIhSYPiWrVqBXwsLoZNJqL6TU72terKWhsAMMs6dugkkkhFLlKx1A+EsTdFH4vuP3nygE+1WsCyiMO4cSmebm4unViOkyjk8qKMjAyTlZUVaW1tzR48uL8+JSXFE4Zhj9raWtDW1pbhI/cZhoF8fX3j3r17V8qb4oSFhYkRBInFcVzKJ7Hhnf8gCOIYjgVwAc7xvv0IDFdmvsrct237to+N9Y0v0tPT63d8t6P12eNn+YxyVKdOndx4o5h+/fsl8ZnjOI7rumzVys0L5y8KWbNmza3du78dTZGURigW+iAI6vTmTc709tHRc40m064Vy5eL62tqyrr36uUuFOGD+vXt21Yslji+eZ29YceuXZX5b96k5ebmWoxl/mz/BCz1+UMJWAT9D8X9Zd2sf/++/c6evXCJ90TfufPboc+ePW9csnxFy6N793U//niqKSQ8yG/hvDl7vX08VYOGJsVt3rA5GcXQAqWVMpEkyTNWVsrZJoIoGTAuYVT6uf9IBvP3ZfOOzf5KidLZZCLtRCJhsEgkdg4NbW3v7+8XCQCAjCBIEoaR9/x5dJqmGi5fvvImI+NlQ/v2kZXv3r0rqK2t9fILDkaTBiTGXzh36fy48WM2z5s7e9ncufN7btu298DAwT1bP37wIK9fv0TVs2cPywcMGBRx/PgxW4m14n+xd95hUWRp3+6qrs65yTnnLGZFUVGMYAIEA2YUCWJAR0XRUTEr5oCIZEQBiSqYMaGCShJBcmyg6Zy7+tuab/a99gv7uvuOzo7adV3+VV2nz3M/Rf885zzheVNtrXjXnr1zM3NSbrd9bLNisVgfioqKOH9vnxoXF2dOYVDMABRkIJcp3M3NzDSne3tricRidwqFzAAA1G/NWCA0oFIo4B6BQFAFACCXwxlCSqX2kqlUZntHW83TR+VtIBbEgyAIeU+Z5grhcTQCDt+uAlBmAgFv4M3r143dHR0kApks1dbSoLi4DKegQcC1taXlydu3bwm+vvNM/tZE5smzZ0/eTps2Y+qbqjcSJpOpMjY2JisUChYegzElkUj0goKCzsmTJ2MZDAYSN2AKAABdoVAQRSKRhpaW1vDfasErfts2F6lUqiqkl3pXV1c7lUF9Y6Br0H78+PGu7Ozs3vNXznuErgl9ejP35pJ79+4JYnfvHRYRHv5gf9x+7aqqD0QalWzLYrG4LypelDraOCLibkMkUZCUQHu+UFj/oeZd39DgkPFkz4nNeALRgUAgKFAA4I6BsK5yuQxp39urUMi7C/Pyt/r7+79Sn5X/XL8pamv/ewJqQVe/Id+MwLx5c2bn5OTnAgCASUpOjX/0oCzDyMhcOXPOLPMD+w6V6xvrWUeFh521srGwWegfMOdw3MFjGAyUTqMxfGUyWYWGJnOMQqHs9pk1e0lZWRn3X5noyJEjNahUqhOTqUU5e/aMi0ql8iaTyc4QBKGRCwAAJQiiWh48eNzOZg+wW1tbzt++c2dw0sSJpCVBQSNSkpLud3R04KdMmdKflpaHDo9aO6ykoKCGzGSS6971tezatSaETme0fv78WSGRS/BkEsFYJpUbaGpp8B+/fHyl9kMjMzkhoRqJFUDCAn7v6Ib8nSnnzZvH5PFE9iQSiXry5Mk5RCJ+BiKmyA4GDCMLXDTyOaTMKQBh0KrOzu7Kd1XvesRSyWdApczIzc2VoNFYq1GjRmkt9F/oAwKg4ceG+kY+j9tbXVefXZyfX2tgYuIwc9o0C1sHB8HxU0c+7Ni+wwSHxpnhCARs7q3b9UQiAfLymmKIAtESFErlAStkZkwm00hDQ8NcIpEoQRDEIpXuRCIRjDTDUSqVSL69nM/ndz1//vxCVlZWHQzDDY2NjUJPT0+958+fN7q7u2NGjhxps3r1aqQi3M6qqqrmbdu2rQNBsBcpDxwcHLwzLi4uaMuWLVmRkZEjzp49+2jr1q0RJ0+eTI47HOekra07WioT3w8LD/s0YewEBpVBC5rg4aGlp6c/CoVCMWAYlre3d5zetz/2QdyBw5Nv385tCgsNu/yvvA/qz6gJ/EwE1IL+M3n7T7bV19d3DrLljqzQjx+Pn1lbWwNFRW81RQPops0bt782sTBwiAgLPW9rY2Ud4O/vGXcobjEAovvoDJq/VCLL09BgThVLxINrVq4Oys7OZv+R6W/bts1YT0/PRiKR6ZFIJCcAQFG8vKZqmJiaTsDhMEwYRiFby31KpbI+Iz3jjaauVs2zxy/7GQyi6urVqx0WFhY0iUSCXhgYaIJH4whVVa85Tk6uFqamRu/a29u1NHU0bQEYuNvc3YzGQTgDDaoGrK+vb2lsbKZqaGgA6uoaKpcsCRw3Y4bvHRcXa4OUlBRkdfnbFRERYayvb+SEQqEoeDzOAYfDaTg4OWqPHT3GHQABE2Q1r1D81rwECaBjK5TKerFYxOVyuQKxWNBIIpINYViJq6uve9LS0iaytbaux5PxuFfPXr1jaGmNUkgk1gEBi61VgMoFQqORfHyCQqGgY7EYDPj7LwCSNgZBENKj/lVubm6TSCTqEAqF70eMGMGNi4urLikpEQQFBdGoVKrB9OnTrQ4fPnzn7t273gAAoGNiYpTh4eEjNTU1qUi3OAiCxnG53EYCgfAJgiAmn88X9Pf345hMJgop7xsdHV3g5+dnTyQSGUQy0cB/ob8Sh8e78fh8WzQaNMRgMD1cLm9AR1sbrVAq3LFYXIqTg0Okr68vzdbWduy1a9eKHj16hHSmU19qAmoC/0BALejq1+GbEUAEPScnJw9ZGScmJkWUPHpwy8HcHDdlxgwoZts2tp2Tm0P4+nUXbO2szRYFBHjHHTkUA4LQWRqV/ItUIn3NYDKnyGRy/uLg4OCK8vKOvr4+8dfcYnV2dibRaDQbOp1OOXz48GIikThVS0sLj8fjkXQvFoFAkDQ2NqJaW1s7AADIPHDgwHMSiQQSiUTSxIkTeXN85+x8/frt++6enkYKkWgiFArvKRQKaz6f35SamjpAo9GwsbGxOlpaWgwYBrWZTLrpyZPHazdv3jp97drVGcuXr/LIzb2Z9/HjRw6HwwG7u7t5TKYlns1uEtjb2xPpdLopGofTGD18OGX12nXjQABYQCaTyVpaWgSZVIrGE3BIOVpIhVKilEqlqLWttaaluY1ramryCIcnfqqtq5lrbWntaGpq4gArUcgOANJXXSaTKWRYLKTo7x+UCvhcAQaDyczNzX1RVFQ0iMfjW/Pz89lRUVGUu3fvyrS1tSU+Pj7D0Gi0Xnd3t66Pj0+vi4tLXG1tbYi5uflaCIL6BgYGPDIyMtZu3LhxHwAAGSAIxsEwXABBkHdLS8sDPB4/+PDhw6KcnJw+Nzc3jKen53wsFjvRzc1tBJFIpIvFYhAJqEN2BgQCgQgAAA4Wi8WrVCpwaGgISZd7a2Njs0xfX5/z6NEjpIf97xX9v9mrqx5YTeC7JKAW9O/Sbd/HpOf7+PjczMvLBUEQEfTd9+7dKYiIih52I/fGw3v5jzljPJwdN0VuvGBrZ2MREBg0/cihg/shNPSCSqMtFYklexh0WkRdbd0giUxu1NHWomZkZlXX1dfwhwaGytLS0pBt7a9+TZs2jTR16lQzJLULAAALHA5nHBISYgRB0GQ8Hq+FRqOHhEJhIwzDg20dbfXJyakdWCKuHaMCG8QqsUDElVqfOXWqLD4+3qqnp0dFotEMRw4fEbhj+7YDO3fu9jh9+mRRTEyMdUhI5OC5c8ftPnyo1bl7t6wiKSkhdN++2KSYmNijsbH7QmtqqvptbGzsk5OTH44bN47y7Nkz/t+N3X/48EiFWEYHIcCVwaBprVyx3BwNQdN+ywIAIJFCKR9QKmFDHBaHVsJIjBtSXF1ed6+09Gnlmzf1WCy+EYvFD1y9eqGuqalJirQ27e/vB5BVb1xc3IjJkyd78Pn8666urqdzc3OvLF68OK6pqSmxtrbW2c3N7WlLS4s5lUo1OnfuXGJUVJSrQqFAOvD1I61zpVJpm0wmszQzM3vv6enpER8fjw4ICDDX1tY2xOFwyOp7OFJABjlWQArKIP/JQARaoVBIPn78WHb//v1PXC53iEgk1jk4OHCRsr0TJkzwmzRpUnx1dfXHr+5w9YBqAj8QAbWg/0DO/KuZMn8+EuWek4ucX6ekpR8vzC+5Frk5cnpR8Z3ylMTLDbPn+jmErV97ydrG0iowYNH4w0cOb0BDmF4Ggz5bJBaepNMYUXl5ueXJScnHZ82aZb4keGkYAU8YKRSKPtbX1fZzuJynt3NvPnzy5CFHIkFJkDNfpBNXa2ur5GuysLe3R0qYGhsbGzNjY2O9VCqVDwiCJAtrSywaRBMkMpm4r4/FGhgYEIuF/LsFxXfK3r1+LZRIJJyzFy5MMtI3GPH+/bscCoVuwePx5EqlkpORkdUZErLGITDQv8jPz0+jtbVV3t7eLr1y5UrU0NDQ1Tt37jCdnZ19AwMDd11OuLx47eq16a6urpSenh45gUBQIjba29tj6+rqZKNGjaLK5ULTWbPmMWxtbbXj4+PfHzlyxJtOp0/S09PT3Ldv3y4Wi9VRW1vbNX78DOrly8cHERG1sbGhAACA1dXV5Z4+fXpdeXn5CxACvfz8/MNQIHo1GkBl8fmCbBQKNWZggJWempz62s/ff21kRETY2fNnz585d+bYooWLJjx58iT7/fv3yIpaSafTNcLDw4O1tbWdtbW19ZVKpT6Se65SqSCkmYqGhgZBKpUi0ehSuVzOFwqFdc+fP09MSUkZFAgESA16WUZGxiqJROJiaGioaW5ujhTtGSgtLb3u5+f39Gv6VT2WmsCPRkAt6D+aR/9C9vzjlruv78KxIKhs2rI9xiI/53ZXdnYhd6LXaNutmyKv2dhYWgf4+XsfPnp0EwaDecFk0FcJReLzDCZ9WV9P330MBJ2WKCQ6AAqwhjBYBwyE/ohSgS58PlcMQdDQ7dxcsbv7sC5TM7P5BDJJePb02U6hUCjAYXBV6enpb/+vhi5fjVBUVBQTg8FYglgsXS4WG6MxGIN1ISHmevp6nkKhUJNCoTTDMNyFxWKajx050SORiNgqFdhw40bGp40bNzpAEESfOnXquE2bNuUcPXo0cO3atfEREREjKRRKU0lJSTuLxRocM2YMsb6+Xt9zqidJJpXhaSSa/rOXz0QFeQW3p06d6nzo0KEPkyeP0dbVNdNF0uzevn3b83cDZ8+ebbxp06bot2/fPpkxY0ZDaekjYlNT/afmZlBQUnJGun79eo9tv2xbv3X71uPxx+P38gR8ARoE2XyB0JDD5V11d3M9Pjg4UPzixSuus5PTjLb29vMvXr7sv//kXnXcr3G2fK5wDHtgAOPv7+8oEomoSqWSKZfL5Wg0GklrkzEYDBgEQbJSqUSi9Cuzs7Pvf/r0iSWXyxs9PDz4Ojo6SPEZnatXrxbs2bNnBhaLNUG26SUSCSU/P39/a2trd1BQEGdgYGDLixcvru3evTvzqzlPPZCawA9IQC3oP6BT/yomIXnoOTk5OdDf2qYdO3Zi3b33VSnbVq8bJ5NK8YfPnHxupmtkvSUqIsHG2tI6cEmg74njJ3/FYKFkAh4XLZZIt9Co1JgB9uDn7q7uGlNzMzKfLxA9K38mdHRybGPQGPZ4POEVBo/z6u7uai8qup37puKdNpFIBHfviVlKp9FHkMlkuL21bUAoFnFbWpquHj98vAOJ3iaRSAKxWCwiEomSf9zK/hrc9PX1kbNvTSMjI8aOHTsWMRiMKRQKkWhqakFFoWCgtraeLxDw+a2tbacvXLjwSUtLiySTyQRXE5Mubwhdt/HSlatxg+yBo6AKcO8fGrzHoDFGnT196mFExEaHxYsD7y5ZEjxs+PARGB6P/am6rs4292Z+47BhjtyZs3190jPTPj97/PglYoeNjbPm0aMHonE4rLdKpbqdl5d3c926dXvfvHnzy7lz52Tm5uYCNpvN2Lp1q3ty8rXmtWtDZoEgWolGg3YqlfIzny9iGhjoyQEAZFdX11bcu1cse/36dZ+/f4C5k5PLfBMTI2MikaTD5/OR8/8CMpnsSKczJsjlMjaVSkWxWP2Crq5Onqmp6f1jx448rqtDdtIHpOPGecr8/ObvZzI1taRSiZTP56Ui5/9iscSLRqPSs7OzS2tq6j/29PQMenp6OG/Zsm3T58+fS37f9pd+DR+px1AT+FEJqAX9R/XsX8AuRNDzbt/OBQEAfSEhYWVBcfH92J27PSpeVFRcTk/ieIwY47IxfEO8pYWZTeDSpVN+3bsnjEgkPsATcEsBADz7t45oeyQyaWv4urClBw4fsMERCBtevXzzxtjQkKGnr9tJopAHFErYuqWlubKru082ZuzoYVKJmHX/ftnnmd6zTDBYyBGlUrWX3i2Vv3z9Ugih0IzVq1fbampqDKOQyRIAAAavJlxt6+3tFTU1NaWnpqY2fAtsfn5+NG1thgUaDdEgCOO0bFkwwdDQcC6DwRgml6s6AQDolysVwtLSsgbvqdMMRCJRzpMnD9/dv3+fIxLJbP0D/dAADFcJheKggQFWwlTv6WcKbhfFz5vnM/HB44dDjR8/Ppgy1XsZq7evqru316q7s6s6MHDRDj19PQeZVKxCtrWpVGqzUqnUkUqlBQqFYhQAAG9UKpUnCKoADAYr0tTU8r9zpyRi8uTJjhKJhEWlUulKpcJBoUAC0PEULpcj4nJ5UiMjY1exWITkssN8Ph855tAlEon4T58+5iQlJb+TSEQflUqg19/fH3z79rV3YGAgFlmxi8XiWiwWM0GphF9gsZjx+flFsXfu3FH29/fXnzt3ZvbHjx/tZDIZwdNz4tCzZy/fvXz5jPTLLztOsFgD1+3s7H75Fn5Rj6km8KMRUAv6j+bRv5A9iKDfys3JxaAh9KkzZ7wflpXVRWzZNvr165d1CedTWBOmjXHctCH8jLGJoV1Y6IbZvx7YfwaLhZB0p4kH98dN/vXgvhQujyd/W/l2lbu7+2KZVE6UyxXtNBpNXFiU/+h9dS09JGSdi4GR4VgWq/+xUiEfxKKx9bcL8pgzZsy0qampVjBodCKToYEVcDifKUxKF5VCJWEwGIiAI4xvaWkdBaIAyNLSEieRSEAWiyV6+fJlKhJwB8OwjMfjCbFYrAQEQV55efl/FY35GohNTU3pSL/3U6fOTEFjMAvMTE2YZmbmdLlcRsLj8cDQ0BBaKBKxRSLRndjdsaUCgYBDIGBkwatWGdha2azfELpu97Jly8fkFOY/8p7k5ZqTk13u5eWFtXe0n3su4VzW8QPHUzQ0NcbyODwk3a/nby1jz4MgqE8k4ufIZDIen88vLSkpblq1atW8oSEu9927ytcFBcX8X3/dG47D4UmISPN4XByXyytHoVRtdDp9NplMtiQSCTIQhHiDgwOchoZPfBBE554/f75sYKAbGBoSyuPjT0wmEIhLbWxsYDZ7iFZcXJRgZWVlY2Fh0YfF4iZmZmZdqaysYCPPh4dHjtLT019qbm7Oev/+/cd9+/ZfbGhoGHj48J6pQqFagsFgLYKCFm98/vx529dgrh5DTeBHJ6AW9B/dw/9B+/5xhZ5fVBKfnpWRtG7DBnJNVTVwOTnxo7uDi92miPCzDo529v6BgVP27Y3d+Px5eX5AQMDO8sflaydPnXSFzRni7Nu7L3TmHB+mvo72UnNz697BgYF3ZBIJAiCIqYSV4/BEvEoilTzmcnksOpnqQiSRazkctl5NTQ2eSqK00Gk0mEAkkpQKha5cqazS09NiyUQym9fvX79BK9GYESNGuMnlci2lUilUKpUGCoWCh0aju5RKpTkej5+goaEhrqys7KysrISxWOwgm82+s2PHjudfM33K09MTMjU1NQRBnKZEwtfGYvHG7iNGaKxetWopDoexVChgpF/7Z5lcLqv+8OFTTfUH3qxZs4f4fEE1CKJZFy5c7raxMcU6Ozub05h0fyNDI+fBwUETJLNNJpMNiUQiCIfDkbjcoQ9YLIaMRkON+vr6M5CGcRKJNEcmk+rJZFIHAAApRCJRiMfjVWQyhYnDYfUUCgVGoZCXbt26/RYWi+3g8QY7Vq1aTausrLKaO3eeEZFIburoaBnW2tquGjZsmB8Wi3365s3rvPz8/CEWq2dg1aqQWRMneo6USMTkwcFBbllZ2UMajYF2dnbUf/Kk/OHo0aNfHD9+XOjh4aHX1FSvs2tXzFIMBkf28poW848xAf/BV1n91WoC3wUBtaB/F276Pif5Wy33m9m5eCwOffrChTWlDx6Ubdq0yQRCYcQx+2K6HKztXNetXh1n72hrP9vHd+rpUye3UCmkZiUMLz525PisXw/sS+dwONzmppadZg2HR+4AACAASURBVBZmrnKlXBOLIdzHEaFGsVhmD6pUPAiHo7x+8xpobGwSuw8fJTMy0jfMSE8fDF6y1L6np08bi8N9IpNIOhAK1aQCgNGtzc3Ps4uyn4YuD/Wg0GgmcqlUhEKh8PX19R/pdLqXq6vrHAAA+Hw+v0ehUDQj4k4mk51YLBahvb1dYmRkBFlYWDDkcjm1o6OjITs7J+vZsycsAAC4SPQ6gUAQ1tXVDSLpYF/Ba6COjg7B1dVVb/nKlSssLM3dHB0cqRgsVlMuk5GwWCwDAACVXC6HeXx+e2FhEZLa1bcuJGQMUpiuuLjkuJDPx69fv/4Qm82WUygUvEKh4COR9jo6OrBMJn+JiL1cLnOEIMhCIpHQaTS6mEQisnA4vPDBg/sdxsbGNQcPHjrP4XAoo0aNAoOCAqwZDI2LAABno9FYcw5n6GVRUX6Rt/fMVRgMZrC2tr7u2rUEwblz5w0gCAoRiyUkKpWi3dPT855MJr4UiSQ9iYkJlUolrOPg4AAoFHLB3bv36+bN8501duzY7WQymYpGowcDAgKDSkpKfosHUF9qAmoC/xoBtaD/a5zUn/ofEECi3HPz8vKQM/SMmzcvs/n83fbWdp4QiO79dc/BOj0jbaddv2yPNzM3tlsUFDAl7uDhzTgsugE5Z35f9S5p0pTJcbAS7i9/9ixp7NixJAhCT+3rHyin05naCoXMRCAUlCqkChkMqAz7WQNFFxLOdMbtPWIhhxUTIBAEcvJy6wz0jQhjR4+GOzpbBfsP7q830jECRo0dO2b+/LmTQQDQlkvlelQqlSKXyzWQPG6ZTPbq9OnTafX19WyhUIiUm+2FYRhJhWt/+/ataMaMGTgqlWqCwWD0VSqVzurVIVpOTk4L8XiMCZFI5CmVSl5ra2vf/fv3eRQK5f6BAweykdSy/wG+/98jwKpVqxgsFkuPRCPRABRkQqfTabtjYtbg8ThDhULBwOHwMhhW8jEYtEooEDYTCUQjlQo2hGFY0NXV1YfHEwpkMqkFDCuVRCLJmMFg2MGwUoRCAZJdu3YdHhjoZ6HRQKOv71wqi8UmTZkyOZBKJV2TSGSTNDQ0GSqVSguNBlzb2zuOVla+HfDx8TWTyWQeBAKBqVQqNalUCoXD4fCrqqrOXLlyRQhBuN5t26K3UyjUc0Qi3kMsluhJpaJuHo9vTCAQW8hk8qfdu395isGQXZAdioUL5w9vaWmpmjlz9snfy+Z+JXTqYdQEfnwCakH/8X38H7Pwt7S1vNxcNABCJ86ejX/x4sWlkHWh0wsLSkruFeb0jff0cokM23DGxtbSfv7CeZ6XLybECoW8D1gs1ksqlV03NDQIk0gkzaze3jNiqcSOTKEO72P1nert7h0/csTI6UoAvAygUK1YLDROKpEh58RcLAZjrUShYAwa3fq0vFygQaMBF65cEeBxkLa/n7/bzJmz1oIAqCGRSYZQKKBrkNXf8+LFC15FRcXxY8eOvfl9G/23Oqv/xvVb3faUlJQpaDR6kYODA8PJ2VlfKpMaKJVKKogGa6I2bjo7NDjIlgPyLhANirpbujtfvHiBVL77H19IRP2YiRPN1gQH6zE16ROHOEP9hvqGdkQyaQyVQjVBo9E4EoGIFYvFClZ/bwMIgCkQBr2RxxeU6Gpre+EJBBRKBbB4PH7nzZvZOUVFd16tXBnsO2nSpLEEAknJ4Qw9k8mk00gk0mUIwkwDAIA1NMShwLCyXVdXZxoIooeBINSPwWD679y5081ms+8HBwdn/C7ESEW3366MjIyk6urqrPLy8hqhUDhoYmLCjIyMHGdvbx+cnJx4/N69kraAgCDtFy9e0nbv3r25oaGxa//+qasePUKpy7v+j98O9YM/IwG1oP+MXv+TbP7HM/Sr11P2Fd8pvrl0yYqRh/fvSRsaGiKOmjjFdfumjadtrC1t58yd633o4P4NRCKxikgkzFXCitN0Gj2WM8TtkcokeQqF0phBp9t//Ny6obe3F+Xm4mCEglGaKBRoeOjIkRdsDqcXJZMNQhDEuJiQEEQg4t0hNIYCqFQMlArWUqFQDD6fD0AQ5kn2zay0WzduteOp+B5WJ6vna6euIQVfPDw8TM6cO7dj48aI8pkzZ9KHjxjhgcVg3VQqFR+Pwyv6WH09lZVVPLFEeOPq5auPHz16hFSCQwTsv4TwS24KDg4etyd2z65Pn5uPmxobeNc3fbx4I+UGZmiIRYne/suk5+XP2gICFs2CIMiASMKPweFwEjQaDfX09KTu3LGrVE9PSxoRsWWNSgUjxVuMJRLJA21t7bEqFUqCxxOS165dVrdmTaj7xIkTgwEA0EXO1yUSCVUkEre2t7dejYs72CqXq7qYTCYrPT196J/NNzExMb6xsfHuiBEjQKVSyWYymdZyuVw2bNiwjSIRfwCC0JVSqbLuw4cP5NGjR0yi0Wi4mTPnLHv06P/tsPclJur7agI/MwG1oP/M3v/Gtv+Wh56XmwuBaPTuvQem1Ne8+xASETHqfXX1wK3U1GYbe2fHrZuiziK13Gf/rcxZ/Nkzh/BY7CMUiJpaWVW52WvylEvsoaFXCoWiGANh8Aq5Ylxba9u+ffv2sbdt2zbu0fNHnb3dA0RYqTRbumSJyZgxo5ei0SBFqYC7MDgMt77uY0dFRYVUoVQ+7+3qKo6NjR34xib/1/BIB7LnL5/vXxK04tahIweGTZ2yMMPd3VyJbOufOH16U3FxsdakyVOMGQyqOQiANBQMk7p7enKPHj18VySScpUoWRNKhmrKzs7+p6v4lStXeoWsC9l16eKloJDQkJEASuWkUqGckZSzT42N/RKhIHHq1Gl78HgCFgRVVgAIAkKBIO3SpUvXAgIWzYBhGIXHk1xQKFiXxxOIQRAoIpPJmp8/f8YjqWtjx46NRv4D8reo9c9lZWVdNTUfyuLjz97q7Oz8t3YWkpOTNzc3N9ePGjVq5MWLF2/dvn27eu/evVOjoqLOc7lDUiZTQ1hQcPsggUDyGzlyhDGRSGQvXRq8ND8//7/K3f5ZflN/j5rA90xALejfs/f+4nNHBD371s1cHAaLTkpNP1l0O/fX8M3bDflcLuHQicPtttZ2DmFrVp9ycnKw8l3gMzE2JnYyg8GQUmmUrVGbNy28euVqelNjYyGrt/fpkSPHG5lMKtbS0hYeO3ZsiJWVlYWBgYE2GgOB3T09coVcdmn1ytV1IAhy5HL5ABKcVlJS0v8fRIQWioU7xo8dfys0IkL7XnFx2+bN23W2XzzzLi48fOkYd/crZy9enMJk0ieRSCS5q7OrikQiKGhUWigKADASsYTL5XG6a2preyvevDp6+dzlls7OTt7vq/jfzFq+fLnf8pXLfTwneAYnZybbG+kbWUqEkgENLYYHmUK1gZXwO2NDwxCkZroKgD/KpFKCRCp5z+FwlBQy1VTAFzTjcHjBrVu5L3x8Zs8lEAh0Op3hCsNKTQ6HU7527eoEGFb0y2SonqdPnyLpb//y7sE/ck9PTw9HUs9GjhxJLigoePfkyZO2rVu3Gq1YseKeRCICpVJpent7+xAGgwGtrKy2EImE8hUrVi/Jzs7+l1rm/gd9rP5qNYG/FAG1oP+l3PFjTeYf89DPXboU8/Ths8KVa1dObevtvn746FF4/KhRDtGRUadtba1t58+bN+PQsSM+FCJBg0ajjV0cFBick5Ob9uDBw8y8vLxPU6ZMsZsxY0YwDKPIRCLxE9IEJDU19bNYLC4JDw8v/Zpd2L6GF5AVelnZgx3Lly+7c+LEqUkZ2VnldDpdee3KlTdbt+8IXuS3IOF6WpqXRCaZiwHQtWPGjdNVqhQtDArdBIuFUAQCYTEEYbRVSpgIAAAklUpF79+/v5Kenv5ZKpXKcBAks3N0HD9r9my3Pbt3T5q7YO4cDbqG5NiZY9U7o2PG8jiDPA6PbzjXx3eeVCqRYTCQgscT9AuFAq5QKKxWqVQzHj9++iI4eOlkhULhjEKhOiAIcqmpqS1PTLy2JzEx8cXX4ICMcfXq1XWtra3st2/fNjs6OlLweLw2g8H4sHLlyscoFKwBAECrSCTKqK6udrC1tXMxMNCvnz9/4eK8vDwk9199qQmoCfyLBNSC/i+CUn/s3yeACPrNnFu5WAgDnbl4MeTB3bs5di4u2tNmzGDExsa22FlaGoatD0uwsbU085k7b8HpU6c8KBSSB5GAN9kUtWXZiRPHMjEYDIHF6ufxeDzWqVPxh+rq6toEAsEAlUrlfO1iL/++hf/8CUNDQ8Lrt1X7Vq9ce33r1i2UvKI86dx580w+VFd/sLexC/DynHBwzpw5mpOnTp2AJxItPSd6+OLxxKcYNCBDoUA0GoNmiAQC3aTEpMKnT5/WBQYGEoYNG+b1t37lMwgEAsXSzBym0GkYqVSq6u1ntSkVcjEajf60PmT91cnTJwOzvGfN19RiDkcpAW2FQtE0ODiAI5PJMgKBYE2hUCgoFArT0NBQc+rUibMBAYs1jI0NLY2MjBavW7c2NDs798HXZJGYmHiwrq7utZGRkTQhIeFFaGiowYQJEzB6enp57e2tt42NTXBxcYcusNn9ukeOHI0gEgnAwoUBQUVFRf/0XP5rzk89lprAj0JALeg/iif/gnb8PShu8qRJuAOHjsRfvHTh1pqQDV4ADD/ZGburwdzEUnPLxvBr1jaWRoFBiwJjdu7eoqenIyeRydYrly9bc+3a9UwkiMrPL2De3bt3a/+CJv7TKSG91ouK7xyI2rKp4MCBOI+tu3ZcGD18OC3xwoW2X2L3T161ZNGd9Js37RsbGkyZGgxzFxdnMzSElpuamg5HKeFaCA2K+3r7rH/dd+BUdnb24//7i5BCNKNHj6YwmUznjVGbT50/dyZ47FiPYWgMykAmkxGpVLoJmUwywmNxegMDA3epVGogFosVAICqsrOzs7Ou7uOV4cNdcGKxzFGlQs1mMBjCT5/q2729Z8V8bc5ZWVnxKpWqoqKiombJkiW0Z8+eGerr6zdOmDChWCQSYJFqfIWFxfu8vLwUCoXUV1dXD71s2fyg3Nz7SFc49aUmoCbwLxJQC/q/CEr9sX+fACLomTeycol4AnTy3DmXsrIyxe6YvSvEYmHTgdgDZYZmJpStUREptrbWZv5+fnN+jTsQQKdSdbBYjFnw0iVRt28XZMrl8oaZM2cHPHjwoOvfn8F/7gmk5WphccnBwAD/i8aWliihWCxct2bN2MNHjlTu/CVm5cxpk3deSUyc0NTSZGhqbGTk4uo6nkqhqPB4PIzGYGrIeLx0YJDttHP7ziM5OTn/tMCKoaGhwZkz5zZt3x4de+DAMV0lINN7WFrabm9vT8vJyRGuXbvW8s2bN30gCGpMnDhxWElJyb2VK5coh4aEGrq6mnMhCFuBwWA0GAy658yZc7a/evWq8WtTy8/PT29ubr4FwzB52LBhdYcPH26YPn369JUrV15sbm6qtbKy1EpPT9vq4uIWqKen566pqfV5wYKFi9Ur9K/tCfV4PzoBtaD/6B7+D9r39xX6/HnzNE6eOfdLxMaIa5ujtupRaCTG1sjo9+Y2pvSIDeHXHRxsrXzn+Hifv3gxGI1W1cGwakpU5Kaj6empmWKx5J2v79zAR48e/WkR6l8DGVKr/d690uMbIiMSz505N6ywpOjRq9evpQ/evOk+9Msu7+Nx++/uio0dU1tfQ9XS0rRxc3ZhEMlkGGlkQiaT+wlYDCQSiQ1379qxMysrp/KfzcnGxka/qOhOekFB3nrnYcP0ivPze3V1ddusre2mlJXdvVteXq6xf//+cCaT2YxCoYyfPXvWNWXKlNkEAmGITCYzJBIxQUODaVleXl60YsWqbQMDA189srywsPDWq1evsj9+/Phx8uTJTENDQwiFQhl4eXkd6+npGqBQKDqFhQV77t+/33nixMlMBoNROHWq91J12trXeBPVY/xMBNSC/jN5+0+29e+CPmL4cPy2HTtmZKXfqo/YEj4SBCBw/55fX+ibGFE3R4al2NnbmC2cv2D20WPHttA1aC2ASjU+fMOG6OTk3wT98eLFS767FCYzMzOdoqI756N3bt/n5uZGNjc354EotGXCpaSXO/f+EnY87sC5rTt3jiorK/6oq2MwzWPCeFMue0g5YtTIWeyhoQ8opVIbA2EYUZGbVmVnZ7/9Z65Dzupz8m7Hm5uZT2389CkdhlUWg4OcXwcH+0axWNx7HR2fhp84cSK7ubm5TSKRiLS1tRk0Go3e1dXVTKfT8deuXV569uylThwO97XK1f4/U3306NGt0tLSZCwWqyAQCF2Ojo4yTU1NR1tb2zMDA6zPVCqVzOPxn4rFIh19fT0nCILeenpOCX779q38T35l1V+nJvBdE1AL+nftvr/25H/PQ7+1YN5880PHjq3eGh2dsy062phMJDtt3RyVa2Jpid6yKSrLytLSYP7ceV6nz54eRcQTxSKJyOGXbb+UJiZdywJUqDI/P7+lBQUFSM317+YyMrLRL75z+8r2X6KP7dy1e+a9u6WlQjGflZGc1x53ZPf8ndujb+2PixvZ0dVuTyTiAffhI3Tb21vfjhoxygdAAQCAAgxQKBVjx/adq7Kysl7/d4YPHz7OJjn5auqVKwkXJ0wY76JQoDJfvHjClEgk70NDQxdbW1vH9ff39yLBcR8/fnxMIBBkDAZDZGhoODM+Pn56bGzs1ypN+/+d5t17JTnlz5/f7O3qfe/i4iKvqKgQTp06w2TeAp+s/r5eDJGERwEozEGlUmGsUChn6OjovDl48OCK2NjYf7di33fzfqgnqibwLQioBf1bUFWP+RuB3/PQc+b6+JIit2zxT7l+fWjlqhUuOAKBHhu7L9nS2JgdGrbhHrJtHLR4yaKzZ05fwuMJD7lcriBq8+ai5KRrWbBCWTR58uTvbrVmYmenV3Ir70LAssWbbM3M+NPmzCG/evkS7+TgwHB0cFq/NGhRyKFjx0a0tbWMplBJMrdhbmz2ALvHxck5Go2BerEQZoZcLmdHb9kWmJmZiZSk/W+vioq3T27evHlTV1frIbJ1/erVK4WJiYmERqPpX7p0KU0ikby8fPnyHT09PXloaOhhqVRq2NvbO+ji4uLypbH/6P28grybL19UFCpV8sbxHpNQzQ0NdCcnFwtXN5edrL7udm0dLX2FXPUOj8eN4vEEKjQaXWhgYLDij36v+nk1gZ+NgFrQfzaP/4n2/r7lnuXi7Kx/+NixaVcSEz9YW1oylixbbLQhLLLSydEaGxEaecPU1FTPzz8gIP7UidV0OrOaPcR22L1zV/K160lZFS9f5YwfPx75cVf9iVP/w19laWlpmF9YeGlzVNSuPXv2ab58WcEh0Wjok0cP1lhbO9jU1FQ1xsTGTuvs6nJAoRTwmPHjrN6+fl09fswYlqGhsSOFQtkyOMhu2b1rd0BaWtp/u0JHJltQUHS9pqamzsPDg06hUHpzc2+VWlpa2jc1NT1fuHDhNQKBMKa3t7fy3LlzG7ds2XKUSCS2QRBkY2lp6fGHjf3CALcLb+e8e/uuYHBw8PXChQtpy5YtexsQEDTp4KH96V0d7WIcHhLn3y5Y4+MzdykEYWfn5eUVrFq1auW3npd6fDWBH42AWtB/NI/+hexBBD0r+0Z6QNDisefOnLmwNTp6e2RkJE5fX9990+bN97UZDHbExogCfX0D+tLg5etPHDtygcHQKOYLeO4boyJ3plxPzbyRmXXre/xxNzU1NS26U5wQ6L9ojaWlJdzd3Q34BwWZ6BkYGJubmruNcnfbcu7cOWJ7d/cULR0NB3MzUxs6jd5AI1MX4fGE9yamxktkUllP2IbwRenp6U++5Na8vIKA168rLF6/fpUwfvwkowcP7jZs3LjxIJvNfjZ37tzIvr6+YTAM95WWlq4dNWrUNhMTE4uBgQGBs7Ozw5fG/qP3n5Q/zssvKL5ZXFBQnHAtISjvVl6pv/9iupGpfqJSJumTSIR4DIbYg8fjJqPRGGxBQUFWcHCwWtD/KHj18z8dAbWg/3Qu//MM/v0M/aazoxNz15493jeys/k7duwYTaPR3mzctKlVT0MDs2nL5jRjY2PtwKXLJh/Zv38cnkhk6uvpzVgavGT/9evJmZlpGXnfq6AX3ylJ2r0rJnZnzJ5ple/eP01LTxls//z5/baYGJs1wcE1Pj4+pGEjh4eQKCSqu4sL0j+8l8FgkHE4PF5XV3d1f3//wJ6Y2CWpqalIJbz/9lq7du0wHR09L2NjwycGBgZaDQ0NVDwer3v79u3SEydOpBCJRDMAADqvXbu2PCpq48XBwX6UXK7A2tjYOX5p7D96v7CksIiAJ32qra4+6zZ8uNWFs2frZ82aZTLbZ86tro52AZGMb72RebNk3bp1VjCM8s/Ly7u1fPlytaD/UfDq5386AmpB/+lc/ucZjAj6jZvZ2cFLl7lu3LzZ82BCwvUl06Z5enh4TFm3fn2hrp6eKCoyPMHaytoYKVF67MSxrXQ6Qy8tLf3mowcPXmXeuJF1IzMz73v8cTezMzO5m3/vSuSWLRuDA4MxUlhC0WBoMk/Fn+DtP3AgbGFY2NLDUWE2LS2dnrBKToXliueeEydM02BqBhGJhEemZmaLOZyhgcjwqKWpqal3vuQ1a2tr28WLly7Q09NBGqzAmZmZLbNmzXLJzMwcOnXqVAKFQnERi8XdQ0OD+SAIdhsYGPjw+QJtR0cn2y+N/Ufvlz0oLXz06GlBempq5saNG0d8bG7uitoQMZxCIx0XCwVKDBZNUcjhKi0tbTeVCgWmpaVlhoSEqAX9j4JXP//TEVAL+k/n8j/PYETQc2/nZc70mTFi6+ZtCxISEssWLJg3saOj63Xp/fvd+pqa5PDIiEQHBwezAD//GYePHp2LQsHaFArFdv2G8OiU60mZaSmphd/jj7uNjY1ZYVFhQkR4xO4du3Z5tra3P3v69KmipbGxee/evU47dux4vPfgXrsPVR+CVCoVYGVlaY3HEz7raGupiEQy2cBQfw2Hw+nbHLUlMDk5+eGXvObk5GTr7++/gEQivTI0NHQQiURilUrVmZaW1nP+/Pk0hUKmjcFAH9vbu6KNjPS3odHQSKlUMmBv7+T0pbH/6P2SO0UlBDKl/uC+/Ycmek3Uf1f9jjtj0myHoCWBCRz2AKiA5fzbubd/Xbx4SQQWi7fLzMy8vnLlynV/9HvVz6sJ/GwE1IL+s3n8T7T39xX6dVtrG7PREyaYSfn89h179lho0OkeYZGR5YYGBpgtURsvmFtY2MxfOM/76OFjJyAMNEAiEjFhERtjU5OTM7MyMoq/x/NU5Ay95O6dq9ujt4UvWrqIODTIc6VSqfyUpKTunTG7l11Nvn5ozsyZZs1NTSMxGDTexcXZHYvFAhoazM9EIkllaGgYLhaLu9atXe+fmpr6/EtuMzU1tV22bNmCoqKik8OHD59vY2Nj2tzcnPjp0yeHffv2ZevoaBFQKBSby+VEmpiYhPJ4AhqPx4WdnFzcvzT2H73/4HFZoYmxRXVL6+d3Dx4+4LC6WdyJkyfTp3pNOcNhs4VUGkmDRmUUcrnc2VpaOqTLly/Hb9iwYe8f/V7182oCPxsBtaD/bB7/E+1FBD0jK/PignnzF+yLO7Bm395fM2NiYuYQ8Pjinbt3t2gymcytmzddtLKyslk4f4FX7L7YGRAGJ9TT1Vm8bm1ISFpGRmZqcvLd7/EM3czMzKS4uPhsTEzMkY2bNrmfPX36hhKDgdq6G4SHdh7STU7OVC4MmGf/rqrKFINBY4a7DzdhMGkKiUh2xcDIIMjY0HC7UCjoCA0NX5icnFzxJbchK/RFixYtwGAwJdra2gQ+n09taWmRVVdXKWJj9+1lMBijVCpVNZvNuWhoqLdYqYQ1RSIR5Ozs+s2D4l69flVCZzB6W1qabzY0tbSVPSgWzp/j5zhvrs8FkUCIhjCAWAWjj6DRwCYSiWKUmJgYsWHDhitfsll9X01ATeD/JKAWdPUb8c0I/NY+NefWBSdHJ2dXV1diQ0sLZeeO7VNtrKwNdsXsuKWjZyTaELI23cnRyW7WzJnTLl65tLakqKQ9YFHAwrXr1i9LSryamZWReW/lypXf3Xmqubm58cOHD8+EbAg5euVy4rC+/v5XD+/d035cUfF+e1Skz5mLl+/RqHjQWN94poaGBtbO1mYqGg3BGprMSgjC6BgZGAYjbUXXrl03Pzk5uepLTkLO0AMDA+cDAHCIRCIFOTg4WNXU1KQWFxfrHDt2OBWHw2uJxZL04uKSkHnz5t7T1dV1Y7H6+p2cXL75GfoAm3VXJlX0Xrl8JUelUj19/vy59OTJ06MMjPSvi4V8PIQBhlAqdD0ajR5HIlFoV69eXRAaGpr/JZvV99UE1ATUgq5+B/4kAoigJ6elnJk0ZarPjl+2Tbp69dqrHdu3u+jp63dv3raxgUnXIezYFp1mYWFhO9t37oRjhw/P19TWJGMhzPCly5dE5mbnZqalpt37noLi3N1RGBAcoREWFuY1btzo9fHxZ09u3rx55uDQ0BMWq1fV0t7SrKdtMF9XT/sTDouD3rypMEahwD47G+uZNBqDp1DI31IoVD1LS4v1KpWqdcmSZfPS09PffcllyArdx8dnIYlE+mBtba0gEokqpVKme/p0fPPOnTHHqFSqvUql+tzT05NlYmLiCACgIQqFojk6OiG90L/Z5efnh05MSixJTk59jIagCiqD1J14MbFzz559Y0aMHp48yOrDoSGgFqUC8yEICiOTqdoJCQkzwsLC7n+zSakHVhP4QQmoV+g/qGP/Cmb9Xikuzt7Wbrq3tzeuo7eX8evevU76BgbDAoOC0szMzTkbwzbcsrezt503d+6YS1cu+aLR6GYKhbpzSdDiFZk3spCguO/iDH3evHnW1taW3mvWrLHQ19ef1NLS0pOWlnYzICCQjsVix9x7eO8gLIWVFRUVnWPGjDEaO3asCZFIT9C4cQAAIABJREFUZJc/fzITg8GwbKxsAkEQfESlUmkMBgOpdb5BIpG0b9kSveDSpUtfrBSHCLqvr++C/fv3x50/f/4UBAGaN27cWg+CoMupUydyCQQCs7u7MzEjIztmyZLAJD09fZJIJCLZ2Tm4fst3BWnzeq/sXvHNmzm3GurrS5avWrVg2eLFqWFhkeNmzp5+gTvE7gdAVbMKBt5gsdidVCodnZCQ4BUWFvbF3PtvOW/12GoC3yMBtaB/j177TuaMCPq160m/rl29Zm1YZKTZ6TNn2uIOHrSQy+V9O/fsadfX0CCGR0Sk2drZ2i5bsXJs/InjJ4RCUTWJRBwXFbkx4vzFC5k5N28V/oWC4qAJEyYYmZiYaERERFii0WgHlVJhpQJUTubm5gQMBstAKtrBsIrA4/F6mpoab2tqar8FQdD+c2trL41KthgaGmoAUeBAV28v2d3VtbK2tnq1WCxuHjt27FKZTMam02k9FAqVo6uru0GhUHStWrXGLzk5+cWXXI4ExWVkZMyvqanJ1dLSQuZBFAgEBklJSW1Hjx5O0tXVNeno6CyoqalKcx02bA2JSFJJxFKmi8uwbxoU5+fnh01KvlbU3z+giIqM2gSRSPK2T5+GriQmjrW0ML/E4wxBMKzohWHwMIGAX0Sj0b0vX77svWHDhi9G9n+Jifq+msDPRkAt6D+bx/9EexFBT0lLPRS8dNnMCV4TSK9eVQF7du4chSPicRvCIsqNjIyUmyIjbthYWdvNnzdvdFp6GhLlLpDJ5E6LggJW3rpxKyMrMyvvLyDomNjYWG87O7upc+fO9QZB0BoEQYDH40lhpRzL5fEqYRiWCYWiHgaDLhMIBDSFQjFFKpUKIAj7UVNTU7eX1fsOBNAoIpEARW2N2n+n4M5rT09PvLe31zw9PT2hh8eE0QMDLPjz55a+UaNGuZmbm68QiUSfQ0PDfK9fv177Jbf9vuU+f2Cg76Ov79yRPT3d+qtWrV02ZsyYkUlJibn6+vq6TU1N2x8+LHs828fnLJFAkA2x2QQnp28r6J6xnlD+1vzbhbcLi05fvlx89tixpVFRURfDo6LsZ8+cmSvgDbUqlIoapULVRyIRZ9BoDOvLly9PX79+/YMv2ay+ryagJvB/ElALuvqN+GYEEEG/npK8Z/WatTti9+6dcODAgdItW7e6EAmY2k3RO5qMjYzQkevXF9jY2tguCV488sLZi3EKJXxLpVRM3BS1KTUx6VpmRlp69p8p6NOmTTPD4/FGhw4dssbhcA58Pn8klUo1IpPJeIFAMMhmsxvMzc0lKpXKgsfjpTY2NpCUcoWmiYmxDIPBQEKxyPbBgweXJk2aPEEgEJpSqZQaLBY7C4ZRpSAImsMAXCTii56zOZxAGo1C1tfVwwuFos62tmbW4CDbikQiYd3d3RfT6XRNDAYrEIslyoGBgTKpXFoYGBBYUV1djfQ1/38uX19f+9mzZy94+vRp4bJly6CGhjq7z58/45qaWloPHtyfSafTCWKxuPpDzbsSGxtbTwGPL6dQKboO9i7fOg8d6OvvK2pqbOrg8vjP6mpqHr979062b9+B4camhonsgf4amVzMh5XAYxKJtIZOZ5pfvHhx9oYNG+59sxdTPbCawA9KQC3oP6hj/wpm/e8Vekqs09jxUyaMHKmhlEhGb90evURDQ6skfN26hwbmBoLwdeGFlpZWNitWrxl98ezZo7BK+UAkEjlv3fZL6tUrlzMz0zPS/wxBj4+Pn4THY+evXr12vFIpdwZBSNTR0TaEQoHdRCLOWqlElUgkopaTJ+PztbW19devX+/HZrNPv3r1lKNSAaaTPCcfGWSzS42MDEe0tbW/kUpl1hAEQTAMs3R0tG1wOAKAJxLc5XJFHYRGfxCKREQqlTIWh4F0cDic4MGD+/s3b46+pFQqmTNnTp+1cWPUTBhWWmpp6VjK5XIUkUhENTR+el92r/Te48eP92VnZwtQKBTy9/tb05q7d++6Ozg4BMrlUqfa2vqU2tpq65s3c7LIZBw5Nzc/u7+/n5iVlbXb2FifPXWq9142ZwgGVCBob+9o863flcdPHhYyNTQ/XLl2Pb2nra0jZMsWyMLAwEpfW6uQx+V0SWVipVIBXCeRiDsZDCbj0qVLfqGhoXnfel7q8dUEfjQCakH/0Tz6F7Jn/nwfn6Tk9B0rVgYf2LN7z/ATx06Ubd2+XZc9xJPE/BJTb2lvgdkUGXbLwtzcZs2q5cNPnjqznUDEl/N4wklbNkWlJSUnZ6ZlZKYEL176NdPW0NPmTLNysLS12xK92QUFo8eKxXxHHR0D1hCX3T/AGhykUIhaHA73AoRF25AINACDA+QQiNNUKqX1JBJ1jlgsaKXRmLNUKhRVLBKCPC6vU6aQvhQKxR3WVlYbeDyeTKFUdra2ttU3NX9utbCw4Kenpr/eEbPDCo/BsAVSsXbIypBni1csHkHCUfRAELS1t7M11NPXt4FANAmG4UoOh1OJuFIulxsQiUQshUIxI5FI5kq5go4CAQ6HzaksvV+an5WV1VBdXf0iOjp65IgRI8bjCIT2d5WVPa9fvzSwtLQcfPDgvjAxMekGn88ny+VyJFr+EYPBGINUkuPxeKaursPsvuUrM2PGDFxaRkZeP6uvvY/VV31w/8FSPT090b6DB/WYdFqBXCp9yuEO0vE48k4cDptLIpG1Ll26tCI8PDz1W85LPbaawI9IQC3oP6JX/yI2IYKemJSyY9W69UvtLSw0e/v7Hffu2z+tqurt5aNx8dXW1oaKLdGbn1hamFuvWL561NkLZ3fLxJICBawcsXnLlnvXk5IyU5JTU5YHf51GHT4+PvrLlgdF+/rOnYpSqWy4XC6sUqkaZXJpEh5PtBGJBA0N9Z+qSBTygqKC/NPTpnl7vnv3TurmNkyLwaBp6+jqzSAQCMYQBOFUKlQnn8cVi0QSilQsuSBXKsyxWOwEAAUOCoWCJ3QG7VFtbR2lqakJ5TZsuNfps6dvHjl8xDsvP++Rr+9c/6zsG0NikTDl192//tYa1dLSEjdu3Ljx06dPH+7t7R3JYDD05HI5LJFIhBKJpFwuldaIRaJ2CIMxRoPoYA1NTU0CiQjCKJWo8m1lcXtnu1RbQ6taT1/f9cHjx2devXymXf64/L6xsb7zpUtXcjAYjLZYLEorKysrDgwMiuzvH+DCsNLE1tb+m67Qly5dSrp4+WJuX1/fuwO/Hrh59erVCs/p003XLV/O9FngW8IdGKpFAUpTCI29A4LgGgZDA7hy5cqmkJCQ03+R11g9DTWB74aAWtC/G1d9fxP1me/jk5aSEb165coDMXv2mB8/derNtuho0r179wjpN27Uurm44MJCQnLNLUxtl60IHnH5wqWImpraV5aW5va7YnY/PnP6bGZGevr1VSv/vd7Yfn5+Wjgc5Dpu3Dij4ODlLjCstAcA0E2hUAwKhaJehULexGaz65RKJY7BYDAaGhpZ1tbWnSQSwTwjIyvH33/hNSqVeo/D4XgqlXDTw4cPekQiEUEqlb+8e/fu07t37/b93RspKdcPjxkz7vqzZ6VDOpqGC6kMBvD2bVW9s7Ozo7a2pkAqlfRDEEYDgNAcPA5vAKvgZpFERKz/WI+1tLS2Z5Bp5rAK1dnb241OTct43NHRCkiEkjdkU1P2BHt7bzweP8zOzs7Rzc0NKQ2rJRaLe0AQZMtkMiUMwxckMslsHJ5gqaWpaR4bu2fPyJEjJRKpRFBe/kRPS1Oz4+Xz1z0ZGWlZfX19WDQafD04OPTcxMRoLrKbIJFIzL91c5bly5fT48+euXnrRvatwsLCKo5E0iPlctkHDx7UtXO2fwgq4S4sDkOSSpT7MRj0WQwGx7h27VpMWFjYwe/vjVfPWE3gP0tALej/Wf4/9Lcjgn7lckLo1m1bfmEytBlCgYARHh5Offro0cus27cFDhZ2jI2bNmRaWVrYLl0SNPb02XP7G+rrL1la22hv27qt72piYtaVxITrIavW/LMtdxCFQv3Xv9TUa64QhAuaP3++m1KptMfj8RQej6cCAKCHx+PRiERiLwiC19hstntFRcWbrq72Z/PmLYiuq6svcHNzcRGJJPOpVGqpQiGfjsViO3t7ey9EREQ9e/jwYcM/c1RS0rUECoV6vre1td/c1mqxlo4uAYLAUgqFFoRCofS4Qn4fd4jbxOfyH6SkXJXvjYtzQKmA8W8qq+6+qXwzaKpvYjrVy0uBxWIDQRD1UiySzJUr5ILXFRUNlbV1Ry6fPt3LZDLxEydOdIiPjw8hk8m+RCKRhMPhAA6H0yBVyCWdHZ0lmprMqVcTk25O8/KyrK+rO1FfXylUofF2TR8bwGvXkrKHhoYwOByuE4ZR50kkvA+PJ3ghFAp8XFzcvmlQ3KpVq5inzsTfbGlufiYUCx8/KnvEPZdy7vPywBBaWOjaZ3KRuJdGp+LOn7u8afXqVceZTA27ixcv7g0NDd33Q/9xqI1TE/gGBNSC/g2gqof83wQQQc/OuhW8cP78c6PGjZN9bGgQzZw1S+Qxfvy46KhtL3V0GPCakLU37WztbHx9fFyup6VEACiUhlymaNi6eXNlYtK1rJTklOTlwcH/Jej29vZIFLgzlUG1+2X7L7Y0CtUagwVtkKhzlUrVq5DL2Vg8jsfj8oVVlVVX3NzcF8jl0icgCBrI5XLHly9fZ86ZM2vz27dvq7lcLsfdfUSoRCL5XFRU9EQoFHbDMPwyOzv7f7F3HWBRJE170mZyligKophQzBH1zIioZz6Mh5n7PHM80505R4JgwAhGVIwoBlQOMYsooohEkcyyYWZn/r93d3TlUEBBCT3P44Ps9vR0v1XM21VdVX0vOjq6sDRy3LFjy5oGDRxvP336/Hbd2rW72NSx+ZWimLsEQaTKZLJ8Lp/oFB8fn1W3bl1HfX29+x8ys/NwDLemEVpLW1s77fyFK4UCggjv4+Y6Ii01PTYuNlb2JjERMTY21jMy1B+gra2bpKutHRdy9qz81u0b997Evbk3ZsyYHgZGBn08PEYNFglFhoWSQlogEFCLFi2eXcfB4TKBKJpxOUQTnOBc3+vvL9+3LzAoPT1dKpfLduM450GtWqazSZLKyMzMqO/k5FyhpV89PDxMtu3YFnTu3LnTNyLu3KxlZPQ4PDyc/uuvvxxadWh9VZonzhZpCWiZlIpgGHqMrq4+5uvr+/ekSZOWlAZ/2AYiABH4hAAkdKgNFYYAIPT9+w6M9fpjqreZmZk0OyvPrJ+bW2qjpk3T+gwdmqollSoOHDr8r62tTYORo8c089m5fZFUInl18lTI3R7dugnq2NU9fPRo0P7Js2fP7Nuxo+2ocaPG29Wxs7W2trKRymQ2GMYoGAVdgOPYPYWCUTA0lUxR9HEcJ9zFkgIyNib2VLNmzu5nzpw65Ozceo65ea3WsbEvbtrb120oEAhN09LSMqOjHyzYunVrwu3bt5+WEQjM0tKSZ29vX0deUIAMGj6klkCgRQcFHcwdNGgY4ebWx4NhGFKuoBt6+3hvGDZkSFcDA/0UuVwhIAjiPc7BBQzCKJ4/f9n+xIngLatWruv7IfN9Wl5Wrv37jIz0syEhp/v27esgEonkOEEM5wt4VnKKep0Q/0YqlUleHTl05OiQ4UN6Dh82YqG2trYNwzDIkiV/zajnUE9AIfgpa0tTLS2hVut1q9e99fHZdTQ5OTkZx/F0mUz+xtzcrKlUKk+Uy2UNGzRoWK+M8y5T87Fjx1r5BwQcfvP2Tcrb1wkXsvKzHmzftP35wmXLbNu1cg7PyvzwXiQS0gcCD64dOfK3hXp6Bg6bNm1aPWvWrIVlehBsDBGACCjTXuAFEagQBJR76IeOeEz1mhbQ2LGxJDY2lnZq3jzbzNRUb+uGDbHNm3fEJk4aHVa/fr36gwYOc/Lz856rQKlCipQ/ffroqfiXHt39CsUF8VKZVCISiWiZTCqSyuVhAi6vNoYjj0kFZUrK5C9ysjKfffiQQ7Vo0Xxubm5eEkmRnVEMf7B44cKNa9du8MNxrJBhGEuBQBC/f3/gtbS09Mjk5OTbvr6+qWWduIuLi1HTpk3bubu7N2ndurUTwzD2NE1bhIWFXXZ1dQVR6c65ublvuVzua5Ik42QUVZibkyM1MzMbhKLMuZy8vGb3ov4NTk1JNe3QrkNqPUfH/jRFRUlIWfOwS1fOOTk5WVMkqSWTy/NTkpOZ1evXR6z8e/kvXA5R+DD6YZ5t3bptjI2NRmhra1M5udmLRSIdRMDnd+JwiH5bt23/h4NhL2rXqe2Um5tN0Shy4+7NWyb79gUey8zMjAsLCwuNjIxas3bt6pMoiokSEt7otGzZuqIt9AYbNq0LFIslB86EnrmuLdKutWv7rsjFixe0dmrePBChqQfa2trmAoHWXbFYPFpPzwD18fFZN3ny5LlllQ1sDxGo6QhAQq/pGlCB8+8/qH+/wAOHBk3xnOhvaGoqFRcUOEz28spVyOW28xYuPOdQux4xzWvSiQYN6lu49h3YapfP9tkIQiEYRjze5e2dsXzZ0oNZWZkvxIXiOF0d3TtCgaDz+YsXQuvWqctYWZnnisWFDTCMMZbL5UJKTl7UNzAcn/g28aKNrY2HtFDCycnLTbGxqm3+7l2S+N27xDULFsy6GRX1NBlBELoU08YcHBxEDMPwFAqFYMCAAXW7d+8+vFGjRvXNzc1NkpOT+aBkq7e3967r16/Hv3v37qWpqSlSu3Ztp4CAgH+0tLQccRxH5RSZR5Hkqcioe7e27tjxdtO6dUPi4+MShCJRV30dvd2r163mTp48jWtfz27GNK8p/yuUUIVTJ01qKxDywfnlejGxz1/YWNrIr9+4mr0/YP/9v/76y83ewb6BrW2dAWfOhvxz/8HjtL8WLpgqEAm7b968dUHwkSOHB44Yof8sOhrv17+f+60b12M3bdp8JDk55W5S0rv7ZmZmjJWV1XAOhxOXkpKi37x5i2alwOKbm4waP6rVru07d6ekpq7bs3/Ps55du//xOj5htU0dm3a1bWw2KSj5Sy0tLWrvngNLJkz43Vck0jbbtm3b2tmzZ//1zQ+FN0IEaigCkNBrqOB/xLRBYZmjQUddT544eSPw8OEUaysrg7T371PWb9yovWDhwucmOkba07ym7LW1tTEe/NvILgG7fCYhqEJKKxgbLR3RHQFPuO3Qwf2TMC4npU+vXk0EfIFzgVhsRGDYeqlc0iU3N5eJjY2Jb9e2/TiaRt5wuZweDMM89vbxjsjLL0jGEfQ5TUtfrFy5udSWeLNmHY1/+aVN3y5dutm3a9fOUSDgm6anp6ceOnT4KUmS70lS9orD4SSGhYXFhYeHU8XhCE4Ya9iwYVMURRuMGzeulZGR0RAen88plEpiSJns5YnTJ47b1bbjnDp7NtfE2Ng+Nysr6Y8/py/Oycp64Ofr97RZs2YPZDJZsr6JvvHZi1dTf+3XzyUqOjrpYVRU1sz5cz2jIqOC27Zu3Y7gEj34HB6JoWiogqFnBOzZu7Z7165ZXD7f4MOHVB0dHf0CPx+/t6tXrzxSWFj4hiAIiYGB/gGRSGscRVHEu3eJUmfnVq0qUhdGjRrVxd9/947U92krEt+8enzw6OFaJMY86dnhl+Zt27f1/5CRkWltY8PBEOy+QkEPFQhEiL+//z9eXl6Q0CtSMLDvaokAJPRqKdafOylHR0cDRIBonTxyfIxcThfa2trgb94lvty370D889jYAh8fn+5/TPzfZTNrE97vY8ZNaejo2Hr4sCGD9+4PXKqg5BY4QVgdOnxk7bixY3xSU5OPCoWC+BfPYx83btJktEwud1y2YvkUl06dWnbq3Km/gpSLBQKh4av4V9nRUdHzfXx2pDx48PxtSQiAvG/t/z/WjSQJvlyeK+rVy7WWh8eIIQYGBvYSiUxHIpFkZmRkhMyZMzNcLpdnvHz58kNJfRb3vbOzMwdBEOtVa1b9YWxs0snRsaERjqHS1LQ0OjHxXeCsGTNOC/X1ZYMHDGhgbWGBIjjCs7CwqJX4LuUln8fj4BhmIRAKm716/fomyjDaVjbWza+FXT3o6uo6WVxY8NTf3++GeS0ro0EDB6w6cCBw46MHj0J69uzp6NjUUSzk8By3bt2RumvXjiCaptGCgoIt586dfTxs2PC/BQJBenz8a37r1m0q1EL39PTsuX792u3BwcfHm5iYvBNo8+foaWtzdPV0SS6PP6ggPz/L0MAgF2Gw4xRFrQIu97179+7y8vKa+i14w3sgAjUZAUjoNVn65TT30eNHt9/nvy9i5pw5HlaW5vXGjBnbAidQ22dPnkZMnjR18dnQ0J7nz527OmDw4FFXw67pu/Xvrwjcc8Dn/v34tClThg6ysrF0mjxx4vKd3jvX0wx9X8ATNKEUVKpQKFogFhdul0gkKbt27Djxm8eIdRaWFvXlclJ+4/r1W9euX49GFMjLjIyMR4GBgeLSTGfevHkttbS03EaOHGliYWFRLzMz88ndu3ffRkREZCkUimQ+n594+vTp1zExMfLS9FfWNtOnT3eiKKqWSCRqOu73cY7m5hbDERRNVFDku5SUlPhHj5/etrK0lPD4HCIhPiH5+q3rtY2MjHI7tO9koqOj01LB0I4ZGe8PCAWijjKSvJublZV9/969t0OGDV2+c9eOAG0d/bjatS21zc3MHfX09JJ27diWs3nz1qMymUyAILS3TCbdU6uW5QGaprWys7MLHB0bNSzrHMrSfuTIkb137/bdGRv7zLdAJrv0ITXVqWXrNoMYhk7S19cfUZCfLyJJMh5FiLN8Pm+gjo6e1a5du/z/97///V6W58C2EAGIgKoWNLwgAt+EQKtWrQz79e8/7n//+2NWcnJyjo2NjS7DMLo4jvO4HAK9dOWyV+KbxIT+7u4Lhg4ZMqFh04aiEcNHzWvYqJEdjnMKAvx9V/Tq1d3C1MS0nud4z1VHgoLWSaXSBILAWuXm5nP09HS7SQolBymKlOIc1PZN/Bthgbjg+pyF8/a+ffk2JSUl5UupZVi3bq30c3IUIqGQ0FIocNGCBQvaOzo69ufxeHR8fDyfw+EE+vj4XLhx40b269ev89ia6N8ExLfeZIkIbDm2JrPmzOrSuFHj8U2aNMHlFCmgFQpFUkrKQ4SmEzIzM0XJ75IvBAcHx9vZ2dkOH/XbjMKCwniaoa0ePXl06OKZ0HArW9uGY8aMGhl0NPjRvw8fnnfv2bNRi3Yt3mVlZNU/uH9f4fbtO4M4HE727t1+fxME79Xo0R4BBgb61MuXcQonp+YVEuXu7Ows5HK5+j17/tJ9xowZK5OT3yUaGBoacnk8uYKi9NIz3j/U1dHtiDBMCkXKz6AohxYKReP4fIHRiRMnAkaPHj3+W2GF90EEaioCkNBrquS/c95bt25tBVzrx0+d4jM0bcrhckkvLy+uqYmJA4ajxhQpt9bV0W1OKWhpdk72vdALl5aO/e23u6DQSNfevQ3vRUTWrV/fAR889Ne+t26Fp/2zY9XmS0EXluEYbieRyJIIgjDm8fn9KIqKD9izd9mj+/efPH78OC46OprUGPrHw0nAZ2vXrjVDEGS4vb29vbu7u21WVhY3Nzf39oYNG94JhcKkzMzM9wRBJPj6+n6T+/w7ISvx9jFjxvBxHLejadqEIIi61tbWWsNGDBsmFIm4AoHwRXR0VDRFUXmWljaFUomk0bLVS3ZkJmVmpKSk6AUEBAw9fuqUJDc//1HLFk7altaWKenJ6U7nzpx+v3//gaOZmZl0QYH4bkTE9cUjRowKZBiaBz4r79Kvy5cvb2pgYDB82LDBVlwuz5ZBFHV5PJ5OSnLKXTkpj9fT1UnNyc8rUMgVTfT1dfuSlEKhra2dQCsYfwRBV3I4PN2UlJR9DRo0GPtTFlklSgk2gAhUXgQgoVde2VTWkWGXL18e0LFjx4Cs3Jxze/btX2trV9u4QT0HGwFf5HD5/PmjoaGh2VpGWqSVsQm/a/fe9flcwVgz81rM7YhbQTZWdXBra+vct2/fMt7eO57VrVvXafKUiW33HzhwY8G8eX/n5efrGRoY5KemZ2SZmpg44xjOy8rOeo8gzOn5C+dfjHsel8fhcJIVCoVcR0fHiCRJnVWr1nTR09NtUauWBT82NpZ88+ZVSk5OTqCXl9eD3NxcYMXLKiuYJYwLNTAw0HZycjIePW5cTyNDg15169TlEBzCmFYoeO8/fIhTUORLoVDrjZaW8A9vH7+tJmaGkZSEsnDp2qlxVlYOscff796OHbuO5OfnYydOnFgql1Mvpk6dvJvH4yvS01NzHBwcG30PNn379tXPzs62cHR0bLxw4cJhBgYGVhiGERwOTubk5NISecEhiqQsCwsK7h0/fooaOmxwPwzFrqI42tHAwLA/h+DwBAIBt1AsfYdhmBWfLwQV7Q4OGTJkTHBwsOJ7xgbvhQjUNAQgodc0iX/nfMeMGdNxy5Ytiw4cOBCW8O7d47j4+KxapqaGv0+YYAVqjV8Nu3gtOjL6g1wuL5g9b3abp09iWhXI8nY/f/i8MDU1VR/HeYa//OJi1qeXm6e2rpY2qZC8z8z8cDc3N1f//fsPyZ07deyloBldgYDPp2m6EY8rIGRyGcLlchEUQRGpVC7jcDkvKUohTU9PE18LC78QEXErXiGlU2S0OPnFixcpRaz475xx5brdxcWFb2VlZSuWiwV5eXlcASEQ/r9zQjhj1oxfjx07EenStdNzM1OzNs9jnlFnr4QeUuQr6u7Z4388P78gIzs76+mNG+Hbx4/33MvhcPgPHz581K5dhz7fMsOlS5c2sbKymtqrT29rFEVq8QWCBFqhuEiSMmMExWJzs7JrS6WFllevhu13699/vFAkyuEQhFt8/CsURVEjLW2tJ7VtajeTyeQYRVGPSDmVxuPx6/L5wsYCgeDEsGHDRgcHB1dIHMO3zBfeAxGoCghAQq8KUqpEYxwzZozHkiWmPSQNAAAgAElEQVRLhi1fvnyM1/Tpv8TGxUouXT7/LCs1K+/3KVOM8rOzmzdu2jTzRFDQregXL7jODg6FzZs379+0WbNmdyIi9u/bty+Ox+MJMjJoha2tYePhHr9O7tGtu31BQYHoyNGjB7k87uvBvw62fvjoIdamdWt3BMXNCQy3AjXb8wvyER0t7fcJCUl7Zs6ctz029sH7mJgY4IJXnglek6/Tp0+3uHbjRttnz5/fzEhJSZgxY4Y+n89xPHIsOMdnx66jmZlZ6YWF4ojNmzedX7Hi7x1aWiLx27eJN5s3bzGlFLhhAwcONKcoysbS0tJy7do1c1AU45EkKcnLz39M0fTDuNjY6KlTp0ZfCb+ykaEUeuICyT1TU+PpaWkpo4VCwWCaRi3EkoJ3BXl5WgSHU9/I2OitgC/oxuVy+TiGXeVw+JcZhvHkcHiN+Xz+yVGjRo0qbaBjKcYPm0AEagQCkNBrhJjLb5LDhg3z2LBhg+vcuXOnT5s2jQ48fZp6/fAhpuDz0bnTp49KTE62NDY03L1v924QxKXVrFkzAULwHB2bNoqZPW2aRCKR5Lv9+mvdjh06tL579y53R8DmYEdLR916jo61Fy9aOJ/H5TbBUCzrzu3bD+/fv7/333//zSEIwn737t1LEQSxlUmkeZSCuvm7p+emoKCga+U3s6rdU1BQUONbd+6079Onj0Na2odrOrqiurkFOa+OBwd9CNy7/+j79+lZEknh3Q2b1x9YsnDJIRNjM73Y2BifVq3azf7SzEHd/AUL5g6wq1d3cHOnlrUUtLy2pFB+kMPBCg4cOHCje/feZinp6dS2zZv//fPPP5vv2LHjXv/+/bvgHE5TBUmmXL58+dn8+fMb04iiY+SdfzcYmxkbWltaefEFfMdCsfiquYVFN5lERvJ4HEMUxbz5fH5fFEXtORzuyZ49e3lcunSpVJkLVVtycPQQgfJDABJ6+WFZI3oaP3786GXLlvVbtGjR3yYmJhL9WrVk7xMT0x88eEDq6elpNWjQgFPfyakfTVG19fX0gn0OHXrbtlkz+yEDB3Y10NO7M+S3317p83i0mbW1/uJFi7oIhfzGIWdCwkNPnXmlUCjyk5KSiMBDB/6qW7tOG5lMBmqUXw8ICFirra2d5Ojg0MG5ZctfaQXdUkGSxOIlS+elvU+7v2/fvrsIgtTo/dYTISGuF86fN38Y/fK4iYVBg+n/m9pES0soWL7876jg40cOpScnoxRJXoh7+SLcuUXLbQTOZd68ebO+ZcvW/7CKC3LmGzRoUAdF6YaDBw916tat61gEU+Q8evQkTMDjX6plYWY3f9GCyPWr1s8F5VkHDHBvzBNq8bZu2vqk/6BBWjKSfFOQm9WFw+HnNG7cWB/H0fYhp8+cHDBgwCSxRBzDKBSmBMFpkpuXq+ByuJkWFhaNU5LeYXZ2dmJv752jPT0n/CMUipwpijw1YoSHR3BwcEGN+KOCk4QIlBMCkNDLCcia0o2Hhwew0BcuXLjQY8asGR3Db9x6WCAWf/DZvv2Fz759ZjmZmYZisZiDUlRmSEiIPCMjI6trr142ozw8xqAo+uj3SZOu0giiMDYwEKz6+28XHS0tx8DAwLDEN2/S/pwzx+VhdJTw8sXLBxMSEgz/nDFjhkvnzoPkcrkUQZDUuLi423HP405cu3mNWb1q1TgCJ3qgOFYQERERtWXLlm0nT568WlPkUHSeh44c+Sv86tVXnbv3QvNycpN5fMI2MSn+WuSdSIvDh48c/5CelkIrmOsP7t+/2qpVq9l8vqBjamrK+ObNWx7Yvn2jvbm59WhDQ6OmHTt2NEtNTTHAcfzm06dPCBklO5YQH//ywoWrSZs3b1iUnJx4186+3iiEQXwRBGmeXyiPWf3PP2EjR40cIeQJLxqYGNSyMreefubChb+CDx7kbNyysSGXw6+D4/goLS2RWWZmZlZqapqPoYG+tUAg+JVWUKCQTu7GjRvGjR07bqRQKBzB4/GhhV5TFRnO+7sQgIT+XfDVvJtHjhzZIyAgYF9kZKSvXC6/mSeWWusbG6To6+q+S0tPtzu0d++9/82erWNlbd0jNysr4fz58+l3IiPzCR4v38HBwZKDILS1ra3TxYsXE2VS6dupnp7ZOgZ6kySF0nhvH5+45k2a1Bk6fHjtJ48ehf75558vVq9e3b5Hjx5/oyjagmEYlFEwKT4+u7ba1atHuXR0kSI4MpBhGCcMw4RPnjyZ4e3tHbF79+7HNU0y50LP7btw/kJgpy6/6ORKCqItTU3tC8TizH179+ocOhx47F3Cm7cMQ19cu37NxfVrNvgaGZo4xMfH+zx58kTo5uY2VCqVZnG53Depqan3QeqcRCLb8+rVyyaFMvFDW5vanUVCIag/35nL5x9AGPrXrA+Zpx8/e0pbW9XlPX38+CbB4zV/+/atYMxoD66BgZHV7Tu3ku7cvsOdN2/+bBRFTQoLJVF379598C45+YTPjh23zevV0925bu1NWkFpi0QiHMfxg3w+PxfDsOVcLu9Uly5dPcLDw6GFXtMUGc73uxCAhP5d8NW8m01NTUWHDx9e2KFDh/E4gb+PjXsVk52Tc3njmjUXcBynXmdnSzatWFFXT1e/+5uE15d8d+/OdW7a1L53nz5tE96+y9i1dedVaztrrjZPJBg/4XcHfUPdTjlZObn5BTknV/yzItO2tq1g7pz5gwz1DW1mzZix6fXr1w/lcrlFr169BsyePXsxn883kMlkNIqihSiKxpEkGSEUCrkIgrSWy+UNaZp+u3HjxokLFy68gSCIZs56tRbWvfvRF3x3+69p3LTlh4LcbIu27VvX4xLEi3/+WS4/dfp0cFxsTGKBuHCfTCIxbtS4kReOcbQQBMlPS0uPQFHknkgkklIUZYfj+AMcx2uBE+MsLMzbJiW9O6dQMEZCoVBAUQo3bW3RAb6AOyjzQ+aZLVu2vW3Rup0JhjOxBMZ1yczJuTB4gPs8gVDYgMfj1VLQCubipUuh61at8enVq1dGWFhYcs+ePQUXL16UaGtrY+s3rH+EY6jIzMxMtnu33ywURS2nTJm6SaFQnPT0dB8VGAj30Ku10sLJlTsCkNDLHdIa0SG+YsWK3iNGjOhrbmndnMMlHAvEhbKU5JSjO3fuutrK2SnmvUSSYSgS2bVq2ZJz6cqVD6Hnz1NzZ80yi4iIIIYNG9EjvyAvzdvb+9aUyZO1Mt6/N05//76xgqGe3r51pwDD8YxxHh6GfC2he35+7ongw8GJJEkm16tXb5SXl9ckBEEa/r8lh8nlqqwmkiSjGIYBpNQYHF9KURR54MCBERMnTjxXE6TRoUMH/X2B+0/5evssdnUf2FFXpHMh9UMqcT86Wjsq6o5i565dwTkfMh5yeTwJo1CEyknSw9LC2iYhIeHUvn2Bx2fM+J8djhPaYrEYpAfq6ujo1BeLJfvS0pIGicWyDRYWJloYRljzeHxPipKBmuvOXC43JizsanQz59Z9cRzPMzc3t8JxrC9FUVyhQPB86/at55s7N390985dywVzF/iPGTNGz9TUlKlTpw45ceJEyeDBg7F/Vq2MRRmarl27to5YnL+XzxdiOI7PIQgiqEuXbqPDw8PBVgu8IAIQgVIiAAm9lEDBZv9FQHXAiamhTd1a9Vb/s+ovayvr5jw+F83JyQV56Nk3rt9YFRR0+LFAICgYMmSkpYmJvl5s7KvCdh3bCrZu2pSjo6Pzbsof06bl5xVYPXsRE+Tr6/+cz+fjXpMn18VwvIW1tSVn3qw5J0CFtx3e3k55+dnUk8dPTMeOGbdJJpMZCgVCDCiwRCJh+Hy+GOQzEwTREEVRvaysrA2GhoazaoLcZs+f4bp86coNi/5aOP5B1PN3vXp11+/YrZOMkkpbrF67NvX0qRNBz58/TcYwzG+3j/e7qdO81hkZmoiePXu+KjBw74uJEyfZ6OrqM5mZ6em1aln+yjD0vSNHgqJ++234/zIysg7r6em4kaQ8jKbpXzgcbgSCYPy8vOwkQ0OjX8zMzDsoFArbzMzMDykpKeenTJmySyKRfHj8+PH706dP74yOjn60fPlyHwRBcBcXF+X7Rn1KHRobGxuvpSXkGhgYiEhSPk0g4LekKHpaQYH4gImJKawUVxOUF86xXBGAhF6ucNbszmbOnPNrv36uzTt06tiQVigsaJpx4nKJ138tXuKPINiLzt27vPhr3ryE6dNntbGzq2scGLj35bhx4/JMrcydjh89ZuTq6irftdv7g1Qsy9UVie5QCOLawN5eLyMjI9/K1krapmXbDjwBz4TPE/CFAkEfOSnXw1GMIkkyh8/nZ1EUdQdFUSGGYb+mp6f7mZubT6wJEpk7f5bn4sXLFq/6Z+WwDp27NM7JE0framvp3Ay/Inny/AkvYE/AMVIqTc7MzMpYv3bttr+WLPbU1THokJOTszw6Oupp48ZNO4tEItNFixYcWLp06VBtbZ2GCIIeJknKAcPQ9IKC/M46Orrn4+JeZolEOpK8vJzG9evX76WtreVI02jE1atX/z179uwBPz+/l5p4BwYGHsjJyYn28vLaVJwcYmJinurqanMFAoHBlSuX5yoUtKm7u/u0Q4cOhY4f7wkPZ6kJygvnWK4IQEIvVzhhZ6AADMg/FwqFfBsbe+NZs/5oY21de5qVlZVxXl4e9eFDZlpkZOTG8PCw+7ieXs6w/v3bN2zYsMOtiIjjewMD083NzATu/fp15HA4UpGWqLeZkfGROYvnPK1Xp0HDmTP/nInjePzE3ycsbNu+reekSZN74ij2QiKRANdsWkpKCtfHx+fhhg0bjqSnp582MzMbWBMkMnf+7FkrV66ZOX/RvAFPX75JsDGzaPT7+DGG6e/fZ/OFPH6D+g4B4rxciVhc6L9q9cqX//z990hjQ1OHzMzM9cnJyUhubn5Sgwb1Jzx79uRg48ZNGuE45nbs2LFtrq79czgcvAGKYsb6+nptORyOKYfD03r//n1WRETErgULFpwkSTIrISEht7jiPmfOnJlEkmTLgQMHTkYQ5D9V3x4+fHjD2NjQWktLi/PuXeJMLpcrt7GpvQZUtps0adq8miA7OEeIQHkiAAm9PNGEfRWLADjExc3NrdvSpctakSTVVCAQdADHlh44cOBU9149Ek3NzZ8GBQXR/fr2NUp8+9b0XGhoYtzz54k7/fx6nj19WofDwyO0RdotXbp0Y3AMMTgcdOxC/bp127Zo3bK3Qk4lCAQCWiaTxURGRhpJpdJ63bt3H8HlchP69+/fNiQkJL26i2X+/NlzFv217M/V69a7tWnVzvBWxHWxm5sb/eTBA3FuQUG90WM9fPKzs7JPnTy99MGDaGTN2nXufJ7AMTk5dbu3t/er1NTUgi1bNv8+Z86MLRs3bu5EEJwCmqbrcjicZjwer4VQKDSSSiX5AoHoxrt3SbenTp164syZM7El4Tp48GDrffv2XT1y5MiGcePG7Sra/tmzZ88sLGp9wHEitrCw4BKPx7cXCIRzAwL2jJs8efLJkvqH30MEIAKfIwAJHWrED0PAxcWFePbsGX/w4MF2v/3228IWLVp0IzgcDkWRhf/ei97is3Pn4T59+lAikUjHx8dHcuTo0f9lZWbunz9//mvL2pbNp072qmVubmb38P7DY1evX+00c8as1TiKoTKZDOHxeDgIkqNpmouiKPiJ7t+/f92kSZOqvaW303v73EkTp/6xY/v2/uevXcto1axlgwGD+ufI5BKbZX8te7/Te3sQoqDyMjM/HDx1OiR1xNBh7oaGxkKZTEbJZLILv/326wGh0Eh36dLFrVu1aj2LJElTPl8oQBBEQJJkws2bN4PXrFnj8/Tp0/T09HQJgiB0KZUGj4uL+6tu3boTfH19lxw5cuREeHj4x5PuDh069Nvz50/itLX1rWfMmP4nwzBNY2Jiro8b16x/dHTNyVAoJZawGUSgRAQgoZcIEWxQQQgI/vjjj16z58zubGxi4koQhDVN09HBwUFn8gry7oacCIno3bu3pQJV1BNyhc/iXse1mTd73lttbW3r27dvp166dKnNPytXriTlcg6CICngBLa8vLxCgiCSUBTN5fF4dvHx8dndunUbm5SUBEioul6ojBQvwlDuhPS09MGFUkWruIS4lzYWFhyaprH5CxaIDx7aH5yT+YGbk5O94vbtOzm//NJtpImRqYCiaH5+fsHfV69esW/UqHGPVq1atgXBa/n5+S8EAtHj2bNnX8nKyorav3//g28Fr0mTJiZHjx7tb2NjMwLHcfHr16+TwsLCwAKMlkql8m7dujSws7Nrj+O4iGGQGwMH9psQEnLhxbc+D94HEajJCEBCr8nSrxxzx83NzXkrVqxo2qlTpwW1a9duQRCEnlQqLZBKpSEkSV4gSVJOUZQ1n8+XK2h6QGp6+tltmzdf7N69u72zs7P+pk2bXhQUFKCbNm2az+VyX9+5c8fP0NBwTKNGjUa6u7v3uXTp0tPKMdUKGQUmIyVLCII3znu3f4+QY8fSnVq0bWTvaP82KS4uP/pRdOPd/v4npeIC3qMHj8YGBwdTa9as7GBkVMs4MzNzKJfLKdTT00uJi3v55smTp28OHjy85969ezFJSUlUeebxW1paCvT09HQWL148ycjIqH3Xrl1bIgiiQ1FyFJxRP2/enMlHjx6/npCQAFPVKkRNYKc1AQFI6DVBylVkjs7OzkJnZ+fWI0eObNWuXbt2KIp2ommal5eXFyqTyR7jOP6SIAjbpJSktLu3797Pzs825GJctGPHjmRubq5z27Zt+8jlchFIfePz+Q7ABd+3b9/uYWFhUVUEgm8ZJiqW5C/GMI5nZsaHIVEPHmtHRvz70ta2XsHE1BFZ/R4PbHXw4L6TOZkf8Lu3b//D4fPeN2vSdISBgTGF4xh17Vp4xK5dPlfOnTsXUwZX+reM8+M9gNzbtWvXCcdxAwxjUIbBXh06dOjf7+oU3gwRgAggkNChElRmBPA7d+7Mb9OmzWyGYbTz8/MzGIbZn5GRkXr9+vWMVq1aEVlZWc06dOjwO47jfIqiEIIgELlcjmIYRicmJp7s2bPnuFevXuVV5kl+59hQsSRngYCvO+nW7dvz+QJtewVDxxQWiLNvXrt89250tMOePX7HabnsTU5u3rVLF0IfD/x18EAOzjP59dfBC2/fvl2dFzvfCS28HSJQtRCAhF615FXjRuvo6KjVvn379qtWrZqqo6PTlcPhgL3XPD6fj9I0bSiVSsEpa7mFhYWPEARJwnE8PTIy8r63tzeZkpLyOioq6lk1Bw0lFeRCilJ4LluytNvNmzfTf+ndu6mNjU3hOA+PBz1dXVsGBx8+mZGa9kqhIO/v23vw1qRJnmMNDIwyjx4NChw3btyVao4PnB5EoMYgAAm9xoi66k905syZ7sOGDZvSoEGD2ocOHbqI4/jlwMDAG+Hh4TlVf3bfPoM7kZFzW7dqNeHwoUO9CuVy+7jnzx/b1LPhZ6VmMQ+fPdTZ7eN/VFxYmCKVFB4aPHrsyU0rVrimpqfb1bWzi2nl7Hzw258M74QIQAQqEwKQ0CuTNOBYSkTAzs7O2NDQ0DgyMhLs+cLr/yPXFi5cOGPpiuUTA/fu++X9+/cGaTk5+Tamprw9e/Yk2tjZNT6wd8/xzKzsFIlYvPv63bvh3Tp06KRnYFAvNTX1lVOTJqAsK7wgAhCBaoAAJPRqIEQ4hZqNQK9evZr4Bfgffvbkyd0Lly6fuxkeHhYdHZ07ePBgbm5ubrNjx4/P3blrx+2gE6fOtWne3GbGzBn969Sp+/u6tWuHzp0790TNRg/OHiJQfRCAhF59ZAlnUoMR6NmzZ6tNW7cssLS0aJielpaVkZERpa2rfWyf/76sxUuXNnxw/749hqOdOrTr0CApKUkmLiy8PnTw4LngEJUaDBucOkSgWiEACb1aiRNOpqYjsH79euc//vfHWhTDXHAMx+SkHMFxHMExHFHQ1MvVK1dv3LNnz5HXr1+D+uvwgghABKoRApDQq5Ew4VQgAgABZ2dnIzs7O7s/Z/7pgmNEG7lcnsfl8SJWb1h59fih43EQJYgARKB6IgAJvXrKFc4KIgARgAhABGoYApDQa5jA4XQhAhABiABEoHoiAAm9esoVzgoiABGACEAEahgCkNBrmMDhdCECEAGIAESgeiIACb16yhXOCiIAEYAIQARqGAKQ0GuYwOF0IQIQAYgARKB6IgAJvXrKFc4KIgARgAhABGoYApDQa5jA4XQhAhABiABEoHoiAAm9esoVzgoiABGACEAEahgCkNBrmMDhdCECEAGIAESgeiIACb16yhXOCiIAEYAIQARqGAKQ0GuYwOF0IQIQAYgARKB6IgAJvXrKFc4KIgARgAhABGoYApDQa5jA4XQhAhABiABEoHoiAAm9esoVzgoiABGACEAEahgCkNBrmMDhdCECEAGIAESgeiIACb16yhXOCiIAEYAIQARqGAKQ0GuYwOF0IQIQAYgARKB6IgAJ/SfJde3atc0nT568UiaTkWAIGIahKIrSFEURHA4HYxgGVw8NJQgCJUkSU7fBKYpiUBQFv2M0TYMbCQRBaJqmQR8YgiAcBEG4CILg6t+5oA3DMIT6dwp8hyAIyuFwULlcjuI4DnQBPBf0jTAMA8aESCQSRFtbG7RBFAoFw+PxEIqiUPA9j8djSJJkwDjBbTRNkwzDyBiGScUwLBvDsGcMwzz38PBI5nK5NEmSuTKZLIfL5Rbq6emJAwMDP4Bx/yQRVPRjCX9//z8GDBgwAciIYRgKx3EuwzBAxjSXywVyBzJjaFoJAcCd4XA4jFwupyiKUohEIoCZgmEYBYqiOE3TQJ7gAp+Bm5TYqy8FkCeQnfpz1X8YBsgWkcvloG+gS+ChGEmSoC8C9KmWLwPkCr6XyWTg85dmZmbDyyIfZ2dnzsWLF2/gOG5NkiQK9AP0iWEYF4wByJ7H44HJ0QRBKOcFxgz0kmEYHtB58H/1fJT6CcavHgPQa/CP/V3ZDPytyGQyoPhAH2nwfz6fj4C/F5qmOQRBgD8TMFcwb+X8pFIpCtqAsQH8gZ5jGJazd+/etl5eXikVrRiwf4hARSEACb2ikC2h3x07dgwfP378XoIgANkqyRO82MFPkiTBi0rZAyBO9Qtf+Tv4P/sdRVEIeFGyF2hbmkv90lc2lclkCHi5sc9iiRz8DvoHL0CFQvHZc8B34DN23JrPBPdrjgPMRywWM4CcxGJxllAozEJRVCyVSvMSEhLSYmJi8uRyedDw4cPDQbelGX9VaOPo6Kj15MmT3RiGDQV4sIskIFsul6uUI/gM4AgwZi+wcALfs7Jh//+lOWtirSlXtj2QIasvbJ/gJ1iYsVd+fj4iEomU42H7kMvlT3k8nlNZZOLj41Nr7Nix8RwOR8DqLKvPYI7s3Fl9YvWdnUNx+lvcnDSxYPWX/TsBfbJ4sveC78CzweesfoMxgH8sDmCx4e/v33Lq1KmvqoJ+wTFCBIpDABL6T9ILb2/vUZ6enn4oigKrTTkK9gUEfgLLWCAQfCRH9jvwwgIvInABMgcvzK9dpX1JAiIB/WkuENiXIEsK4Hd2HOxLE4yHJSxNQii6QABjBmMFbdmFAruIkUqlYK5yBEGuP3r0aN/y5ctTBQLBu9u3b79LSEiQ/iQRfddjnZyc9B48eHBQJpP1UXs1lNix+AIiAp8XJTd2kVaU6L+V0Fm8Aalr6hmQt9pqVY6DJVfwHLFYDOTxDMfxpmUh9MDAQLsRI0Y8wjBMqLkgBP/XJG9Noi2JsEsSAqt7mgshcA/Aj138shgXtzBl/544HE62r6+v08SJExNLeib8HiJQWRGAhP6TJOPj4zNaTegqU1x9sWTH/mRfhKxFwVps7PclvehLemFqegNYq4q1YtgXPrto0HwmaxFpLgDYsbBWOvgJvgc/iyMoltTAfeD/atcnjeN4FkVRqffv309JSUm5tXHjRp+bN29mlYVcfpJYPz7W2tpaPy4u7jBBED1Z/Nj5ggUM6xVhbyhK7OBzdkFV2gVbcbLWXAiy1jL4ycqNJUIge7CIBONSfxeDomiTsmC+c+dOh8mTJz+Qy+UCsOBj582SLkvyajn/Z1rFeRtK8jqxXg7QJ/g/0NGi/Rd9PustAD/BPeq/gSxfX99GEydOTP3ZugOfDxH4VgQgoX8rct9535YtWzwmT57sg2EYH+wTsi8h8IIF1hTrogUvWvbly1q57EtM0/3+rcPRfNlp9sG6hFlCAC9K1sLUJGK2nSaZg/+z1rqm5QcIA1iDml4Fzb40LSgNDwXYW5ZeuHDB+9ixY5domn62Z8+epCL7x986/Qq7z8XFhR8WFrYUQZDfZDKZDofD4RMEQchkMrC3rHwuS+zgJ/iMlSvARChUGrnlcmku2tgONeWijskAegZCKBiFQgH27P8lCMKlLITu4+OjO2rUqNscDseKYRiROuYDxH8otxHYxcPXLOayTphdPLLeHlbvirPQi1skg7Hx+Xww5/ebNm2qO3v2bHFZxwDbQwQqCwKQ0H+SJJo1a2ZsYGBQHwQ7HThwwFQul9thGNabz+fXNjQ01JFKpSIulwsCepQvQvATWBTgpQQudXDTRxf4l6ZRkoWj3uNWLiKK7j0W5xrVtC7Z/xfdN2cJnf2puYfMWlHgXi0tLeWw2T1O8NIv6jEAv6td1iCALJvL5SZFRUVFHTx4cP2WLVviyhK09aNF3a5dOxMej1cLuKBJkuRwOBy8devW2KRJk1pTFDXYysrKnKIoQz6fDwIdlS5igAHrJmfl/LVxF5VvUSudxRZgyGIrl8tBUFpeVlZWolwuP79gwYKrb9++BcFqQJ8YEMBI03TWtWvXnpUVs969eztKJBIdgiD4PB4P9fPzs0NRtA1FUV0MDQ31eTyeDlBqsGjRjA/Q1DVWJzT1qDQYsLoC2rJzVf8EwXkkRVEFubkgLlOWQxDEWxRFn4A9k0oAACAASURBVItEojenT59+uW/fvrywsLC7lX2hWFZ5wPY1CwFI6JVP3sSGDRs6GxgYdB0zZkzjwsLCZkKh0FJzD5J1X2tat987DbZ/8FIH/9SRwh+D4sCLXtO9XlhYiLJWJOt+Z92e7FhYS4y1jMDLVdPdC9oVtZrAZ6wlxy4ENBcRrJeCpunU1atXb87Ozr69YcOGO2WxJL8Xq/K6f/z48QaNGzeeMmjQoGYmJiY9uFyuluYWS3HbGUWfXZybWrNNEescRNj/e/78+VuxsbGH58yZ8+BHEtjs2bOdBg4c+GubNm2aSiSS9gKBQL+8sNTUOaAjYLGQl5eXIxKJ/s3Pz4/18/N7/e7du7Pbtm2LL+9nwv4gApUFAUjolUUS/x0H6uLiomtsbFx7xYoVMxwcHIbI5XIeGyHNBph9/YUOIqm/GgUPLBcJh8PJTExMlEqlUolCoXjD4XAeyeXy68HBwQXnzp0D6U5Ki0dtMSkz28D/ly1bhtepU6chwzDtMQxroq2traOrq8sVCoWGCIKI1GNTplKxRMUG0QGy0lxEsN6B4iL82X148Ex2C0JN9iC9K+PBgweP/fz81vv5+V2pvOL88shat26t061bt9ZLlizZiON4I5bINd3iX7q7JEIH94EgNz6fX7hs2bKZISEhZx49epT2MxdAHTp00B82bFgLT0/PrTiO12ctcc2gyqKBol+bP7vI08wQycnJyfzzzz/HPnny5E50dDSIv6iu6ZFVUeXhmCsIAUjoFQRseXebkJCwzsLCwgtFUd7XX/iq95byhYjSCKpMN1dZwuA+QPBqC5i5d+9e1JUrV3bJZLJLS5cuBcFApct7+/Lk0JUrVxqhKNqVJEmHefPm1UJRtDZBEPWkUqk1l8slWMLWTNMrGiSmuX9f0pYBijLK+XA4nA8rV65elZ+ff3nNmjVPyhv/H9HfnTt3+rVu3fIQwzDKvYiiGQyfY8FmN3ydp1hvzuPHT9ePGzfu7+jo6NwfMZfSPGPLli3OkydPPs7hcGyKC5xULtpK4GGgsEUD/2iaLti503uMl5fX8dKMA7aBCFQXBCChVxFJmpubC7dv377Q1dV1DoZhBGu1/jeyWU3o6pRuZcoZAQLpMXWKlCp9CRSECQoK8vXw8JhUURDY2dnxBAKBUKFQaJuYmOhs3759prW1dQdtbW3bDx8+4EZGRh/d62D7gI0+ZgPEStpnVVnsqoWKevsBuBHe+/n5bfT337M7MjIyr6LmVkH9Etu3b102derUuSArsWgmw7cQOrjn9etX+9u16zQ1IyOjoILG/a3d4idOnFju6uo6lyAIZfEXdpvl43aSsvbMVy51iicbAwIWjAUFBRcNDIxcwTr2WwcG74MIVEUEIKFXIam1bdtWcOnSpXtaWlqO/90//2SpsdY5mJrSQsNB4RJVwRo2d50kFYiPj4+vl5fXxB8JwYgRI2yGDh06ws3NrRWCIO0RBDECVcWK7q2z++2slVpcsBcYN7DQWQuftf5BFbWCAvHBgIA9/0yfPv3Fj5zf9z5r5syZ9VetWnlJoaCsiqa2leStKO7ZDMPkTZo0cZifX8D57x1bRdzv6upqERgY+EBPT88Y9M/K8ONipgRCl6sj6NmxgYj95OTkxbVr1/mnIsYL+4QIVGYEIKFXZukUM7bk5OQ1ZmZms0FK0OdfF0/oKHBaMirX++c5uzgSEBDgO378+B9K6OoxY46OjsLCwkKtnTt3jurdu/d0BEHMQGlO8CLXTHEqWTyfthjY9Cg1KShIksx69er1FkdHx5XlsJ1Q8lDKqUVs7LOrDg71uxRNKfw2QqefDRs2clBwcHClXdjcu3dvccOGDZeDxSawtD+LHSiFhQ4WdMC7A7ZehEIh89tvI7sfPHgkrJzEAbuBCFQZBCChVxlRqQa6c+dO9/Hjxx/HcRz7PApaY+9cabp+quCmJDhClefMRqQDi33Pnj2+np6eP4PQNVHHxo4d23Hz5s1uQqFwGMMwtUDt+pIK4nzqgP6smEhhYWHRHO6Ce/fubT19+szuv//++01VEHd0dOS2Jk2cphVXIKWs41co6LD//W+6+86dOyubu/3jVPr379/z1KlTocCNlJubi+jq6iKgzLtSB0ooZ0yrzxxgFz8URWX17duvx6VLl6LLihVsDxGo6ghAQq9iEnR1dW175syZcyRJ6mvW6GaDeFkrjlHvobNWOWuhf6p1jTHe3t6+kydPrrA99DJCS9jZ2Ql37do1u2vXrl4IguhqFtX5msu9aNlPgAH4jK3djeO44v37Dy8nTJgwLCQkBORWV+qa8c+fP51hb19vA8DvW2r1a+J+8eLFE7179x1URln80OYuLi5tzp8/H8Ln85Vud5U8lYfIIJjqsJkvXgqaVrYHZZLBxTD0he7de/0WFhaW+UMnAR8GEagECEBCrwRCKMsQBg4cWOfo0aPBBEE0V1klnwems0ReNO2HrVkNiF29EGD8/Hb7TpgwsbIQuhKGJk2aiPz9/Xs3bNjQi8fjtQeFd1h8ihYfAZ9TlKqyHlvfniXBomVqZTIZw+fz33h775wzeXLljn6OiYkZ6uBgf+TrUe6l05qQkJB17u4D55Su9c9p1adPn8bnzp07wTCMHdBn1tpWeZY+HVyjGl2RqH61eqjd9Mz58+f3rF3rOjE8HAbE/Rxpwqf+TAQgof9M9L/h2b1799YJDQ09IJVK+6mCpj5/wRUldHY/UpnjiwCXu8rtDo5C3bt3X6UjdBaSfv36CX///ffZ/fr1W6g+DrZYtBQK1SlamvnrLJlrllRlLT8cxyWHDx/c5eExdgEoIf8NIqjwW2JiYjrZ2dW5XjRQ8Fv20M+dOzuwXz/3kxU+6O94QO/eveuePXv2GIqiTkCf2W0hZW2C/7jcP9d3Ba3yYqi9NLS3t/f6yZOVWQLwggjUOAQgoVcxkYMa4deuXdvPMMxgMHTWQi/qate00DWDqxhadeIXOAfa3z+g0hK6WizY1q1bp0ydOnUOwzCgPrg6l16ltqqCIl8XoKarnq1cJ5fLSV/f3bO9vLy2VcaCI5MmTWq2c+f2+1+amWYWA8KoANCcJytv8Nnp02eauLu7V+q8/L59+9YJCTkVjCBI8//ETnwk9C/k26stdPXWEunr6ztlypRpu6vYnzUcLkSgXBCAhF4uMP64TpYuXYotWbJkL8MwHl8jdM0RfYnQAwIC/Dw9J/7soLgSwVu0aFHdFStWgCIh4DhPNZGzefUlqzCYf9GTxjIzM+lr1675Dx48dCrIlipxED+wQdu2bRuHh199AGq/F/dYTUIHCzTNCmugvaa8a9Wy0EpPT6/UB47069fP9uTJE8EoijiXldBJSnX+uRoDyebNG13//HP21R8oLvgoiEClQaDkt2GlGSocCEBg8ODBeFBQ0J7/ELo6zuuTW/bT3rrqBa+y5JRWLgYsdKQqWOgfhb5x48YWHh4e/kZGRo01TywD0dBfu4AHA6TtYSiGMAijLEAD0uLA7+Bo+VWr1kxZtGhRQGUqQtKgQYNGT548uYdhGO9LWyrsnIsjdFbOQNw4ztEG1V8r81/P1wm9BPliquA54HIH8zxyJKjF2LFjYyvzfOHYIAIVhQAk9IpCtoL67d27Ny80NBS43Id8ZqFXc0IHcwVnjB85cuR027ZtOwAvs+q88JJ87rRGcR2VUOSk8uWviiBnsNzjx0/OGzp0qHcFiazM3To7O9ePiooCB87oaRL6Z652da+ahP6ZJ4ZhANEpLC2tdau2hV5SpThVfQX1lbd27XrLuXPn5pcZdHgDRKAaIAAJvYoJ0c3NTfv06dMHGIZxK0ronwdNVS8LnRXTtGnT6s+bN29/rVq1WoDiOl+00FHVnitbWIcNDgSWuepSVgFHFArgjicyVq1a1WvhwoVf3Lf+kWrSokULh5s3b97m8XgGH9MRv5BpV5TQVTrxMfCR5HL54ESzqmehq+WH0F8/XoBmVFsOQL4SiSRXR0dP70fKCj4LIlCZEICEXpmkUYqx9OvXzygkJOQwwzC/sITOWm41gdDBnJ2dnWvdu3cvhCRJZ4IoWjFPDSJLCGpSB5+SFKncclDtuYK9eBqhlQYghsTGxl4bOHDgsPj4+PelEEOFNmnatGm9yMjICC6Xa1SU0IumIwJCZ9Pb2ENtwO8gABCcpGdjY2tcJS30MhA6m6sPCF0o1IKEXqHaCTuvzAhAQq/M0ilmbG5ubuanT58+yjAMcDsro9w/J/T/WjSfu2KRKrmHXhSKpUuXdlqyZMlRhlGYFStCNSGwp8yxljmlUJ3JDqw6ilIoK+iBuvY0TcsSExPPdO3adVRSUpLkZ6pFq1at6t25cycCRVEjVr4gHVFzwfYxJ/8rhA5K3woEIisEQQp/5nxKejbYQz916sSxz6LcSyR0lYcFxVR56iA2Ij8/P9fY2BQSekmAw++rLQKQ0KuYaF1dXa3PnDkTzDAMONykxhI6mPvKlSvnzJs3B9Rp/280uIbLnVJQHyPBFQpKSeggMJACVixJg7PClVpAkgpy//79o37//fcjP1MtgIUeFRUVweFwlBY6IPJvIXSZTJ5nb1+vVkpKSqUn9P9EuZdI6CoJgTx0tg4BgiA56i2Gnyk++GyIwE9DABL6T4P+2x4McnbPnDkDrJlmLKEj6khvlQWnttg1cpPZKHfVXiOCYDgObmH8AwJ8PCd4Tv62kfz8u8DxrJGRkXO0tLQWYRjGVRYiQWj2KFVVehvrwfg43M89GMDtzuFyEUlhIcLh8BiZXPbv1KmTxu/bdxiUiP0pV5MmTRyio6MicBw3/PQHqiL2Txf7/08tNPPPgZxpmqYtrWx0qorLHcNQ54/epC9kL3yOAchcUJ0bDz7Pzc3NMTAwAjED8III1EgEIKFXMbH36dOn3tmzZ0FOdiNAXqoDLFSRwEUJXUX47BnTKjdzdSJ0ML+OHTsaX7x48blAIDAEv0skYmVdb7aWO6qupFdcOh+LmcotT6hd8TiSk50VYmBk2v9nqYaa0G/jOG5QEqEDjtcsicvmpIOKgMq6/RyeVlUJiisboauDG0EFRLWOQ0L/WRoLn1tZEICEXlkkUcpx9OrVyyE0NBQQekMloSvv0zxp7ZOFXhMIHczx6tWr/bt06bJdoVBYgspxyjPg1TXAGZrSWOwoKbxYpGlaFSwHFjxyOVmwfcvO/rPn/5wCJcDlfu9e5C0cJ4xLInQwbs1iLJ+KzIA8exrp9ksP7fDw8Ep70hoQBpuHXg6EnmtgYAT30Ev5LoHNqh8CkNCrmEy/ROisBcown5fIrO4Wulp86LVr1za1b9/+Dw4HR9UR3giPx0NKInSAD7DmeTw+SHtC+HwhIEj6yeOY9U2cmvyUmuAqQo+6ieOYSUmE/iULHUTuA524dDnMsFevXlmVWc0hoVdm6cCxVSUEIKFXJWkhCNKjR4/6Fy5cOIEgSANNC/1bCH2Pf4Df+Ik//Tz0cpHA9OnTG2zcuPE+ijJ8tma7EpPPtiOKt9ABqYODXARCIUIr2L1qLH/e/Hm/r1+/KahcBliGTpycnOyjov69VVpC10xbY70y4JA6MP+QM+es3d3d35Xh8T+8KST0Hw45fGA1RQASehUTbN++fRucOXMGEHr97yR0ZI9/gG91IXQgxoKCghs4jnbgcDgoyE1mg+JYERcXYwDacHk8ZZOC/HxES1sHoUhSWXAmPT3tvk3tus4/WkXK4nIHa5avEfqVsGv1evToEfej51CW55UjocOguLIAD9tWOwQgoVcxkX6N0FnC0pzS11zuAQH+vr9PmFCpzkP/HnG0bt3a/siRQ8dq167dRH2cptJC/+S9+DwLgLVmQVuwAADR7jKpDOGBNDYGRUiSytmwcd3g+fMXX/mecZX13vIidPDck6dCnAYOHPiorGP4ke2/l9A1otyz9fUNDX7k2OGzIAKVCQFI6JVJGqUYi9rlDs63/o+FXtMJHcB35MihrUOGDPFiy4Fqpq0VZ6GzleM+7rvzBYhUIkEIgguC5BSbNm9ePmPGrBVfjKYrhczK2qQse+ggKI4tlAOC4NhFCltw5dKlKy169uwZXdYx/Mj2kNB/JNrwWdUZAUjoVUy6wEIPCQk5iaKoQ1GXe2kIHaQzoSBvV4Ewu/39fSdMrD4WOhDl4cOBHX/9dch1FEWVbveSLPTixK+KGlf/aWDo23lzF3Vbt25d/I9SFbCHfu/ev7cwrHRBcSyJg5+fctFxkM+GnD9/sW2fPn3u/qixf8tzNAn94/0lnKIHgv6U8/08Dx1a6N8iAHhPtUEAEnoVE6Wa0E+gKPpNFroGoSP+/rt9PSdW/vPQyyIiFxcX/rVrYZk0TQuB1c0hVNHeLNlpFt75Ur+ahE4jDPLo4aNZLVq02VCWcXxP2+8hdPa5ICgOEPq5c+c7ubq63vye8VT0vZDQKxph2H9NQQASehWTdDkSerW00IE4z5w5vaJ3794LcRxHv91CVysGhiEfMj88G+g+pG1ERMQPOZYTEHp0dNRNFEVNS5O2pmmhFyX00NALnfv27XujMqs5JPTKLB04tqqEACT0qiQtBEHKk9D9/Xf7VTcLHYhzzJiRbfz99wRhGG71vYSOqqLlUxYuWNJ/7dq1936EupSV0DULy9QEQld5XD5VioNBcT9CK+EzqgICkNCrgpQ0xliOe+jV0uUOoBo8eDC+ZMniYAcHhwEEMNK/yeWuAp1BQeU4mWT9ug3T/vprRcCPUJfyJPSzZ0O79OvXL/xHjPtbn1EWC/1TCV9I6N+KN7yv+iIACb2KybZ3796OZ8+eBXvoMCjuK7I7efL4Ujc3tyUlRbkX14WmxUvRyjKyTFp6+rqRw20WhocjqlqyFXiVJ6GfP3/RpU+fPtcrcLjf3TV7fCqKos0/dlZMUFzRg1mUbVHVefDqw1my9PUNlTX94QURqIkIQEKvYlIvR5d7tbXQgUhPnjzp7u7udrJklzv7J/CpxruS0NXHd2IYB1HQClDfPcW5eesWz58/T61olSlPQq8qe+jgPPSyEroyoh/DNAkdRrlXtHLC/is1ApDQK7V4/ju4ciT0ahsUB1Dbvn27zcSJnm8IHEeZr5xG9zE9TePQFk1CJyka4XF5iIKmmdBLoZ3ceg+8VdEq872Erhq/6oj46mqhg2wNpYH+OaFDC72ilRP2X6kRgIReqcXzRUL/mIeueqtpnJWtLi6i3GFU5lMrk5MRBlXtOdIM66JEmd27d/tNrGZpayxiRkZG2mlpKW8RhtHHCUJ5SItMJkM4HAIBvysoSm3ZsXcUfwobW1qVUjDIvXv3gtq16zC0olWmLIT+aUHyaVSqLQOVvM+eO18l9tBDQk4GMwzy6Tx0tU5jiCoG4nN3O5iZ6jhgBqURDAUudxSchw4JvaKVE/ZfqRGAhF6pxVOyhf4thA4KrtA0wvj7+/tMmDBhchWDoFTDdXR05EZHR+/ncYkhKIahoAgPQ4Pz41W3gzPQVUeNqoOrvnCsKvgeVGADhJ6Y+O7uhAkTO4aHh1foPnp5Evr5C5e69enT52qpQPtJjcAe+pcIHVWvs0pJ6Dn6+ob6P2ka8LEQgZ+OACT0ny6Csg2gqMu9LIQOCExBI8q65WpC951QjWq5F0Xy0KFDXkOH/LpF6atA2XPDGSVBsxXVinO5a/ajDpBHcIILPn42dapX7507d1bo6WXlSehnz53/pV+/fmFl07If25oldJpmlAfhsFseShlpOE6KBsUVY6HDPfQfKzr4tEqGACT0SiaQkoYDarmfP38eRLkrj0/9HkIPCAjw8fT0rJYWOsDF09NzpK/Prt0MA45UJdULGYWS0MGiRnVwDYt48S53DMMRkiQRBsEQLpf7ds6ceQPXrVt3vyQ5fc/3akK/gaKoWUmFZUpyuZ8LvdDd1dX1hx4uU9a5fyuhK5+DMZoud0joZQUftq9WCEBCr2Li1DwPHVidSqullHvoRS306k7oEydObLFj29ZjOIewAXvoKgKnle52QOgqK/3rLncAL1gAqDwbWPqsWXOHb9269VpFqk3z5s3toqIiAaHX+l5Cryou99OnwR761y30j0svzcIykNArUhVh31UMAUjoVUxgvXr1cggNDQUWuqNyXxgS+hcl2LZtW0FQ0OErFuYW7djFD4qhyoA4QOiA2IEFrrqKt9AVCpU1j+EcgHXBH39M/3379u1HK1JtypPQz4Ve6Orq6lqhC5DvxQJY6CyhA31Wnu+O0sqFFHC5F62E91mlOEjo3ws/vL8aIQAJvYoJU03ox1EUbfgthK4Z5Q6C4qqzyx2I9u6d29eaNXNy4fI4aiLHQClXtfsdbFn8Nw9dUyUwHETIqyx0iqIUf/45c6q3t7dPRapNTSd0ZbAipop1KI7QlcsvddoadLlXpCbCvqsaApDQq5jE+vTpU09dKa70hA7mWHzaWrUOigPTvhp2JaxTp45dcQJDKJJEQMA7sMwJglBL/uuEDlzyYAEAzhfHMIyZMWOW1+bNm3dUpNpAQi8doSu3THAE7qFXpDLCvqsUApDQq5S4EARY6OfOnftooSuH/6U9dOV36Mc89JoW5Q6mf+nShdAuLi69CQ6O0ApFMa71rxM6m4cuJ1UlYFNS0mZaW1tvqki1AYT+7793bmAYXuIeunLHhc3F0xiU8vhUBEGqksv9/w/KU0a5s9tISvUtfifkY549yENXzp/BQB46DIqrSMWEfVd6BCChV3oRfT5ANaF/3EOHhP51AV6+eOGYSxeXQZqE/illTUkZ6g6+xByqQjzqdD8mL6/gb11d3aWgRk9FqU45E3qViHIHe+iQ0CtKo2C/NQUBSOhVTNLlaaFX9yh3INrLFy/sc+niMup7CB1YgCD2QJ2/79+4ceMpMTEx8opSndatW9tHRNwAFnqJaWslWehVJQ+9nAgdFpapKKWE/VYJBCChVwkxfRpkeRK6v79/td9Dv3z5UoBL505jv4fQAfrAQgcXh8M7Zmtr65GQkCCtKNUpT0KvKnno5UTo0OVeUUoJ+60SCEBCrxJi+jRIEBR35swZ4HJXBsV91eVepJZ7TdxDv3Lp4t7OLp1Hfyuhg6A4FjcQTMfjCU7Y2tqOrEhCL0+Xe1Ww0N3d3WufOHEMuNxbAH2Ge+hV7KUEh1tpEICEXmlEUbqBFLeHziAg2Et9sYezaAZKqQ9nqWmFZQAiV65cDOzcqfNv30roNM0oI+KByx1Eu3M4vP329vYTXr16JSudxMreqjwJvSoUloGEXnYdgXdABIpDABJ6FdOL4lzuRQldmcerOa8vEHpNcLmHXb50tFPnTkO+ldBBYRlA6KD0K7AccZzjg6KoF4IgZEWpjorQI69jGGpeUqW4kvbQaxihwz30ilJK2G+VQAASepUQ06dBFiV0TfckaIV+Kk6u8sYrj0xVlTitkS73yxfPdO7c2bUooSuxUXoxShHlrjrMRn1hq3EcXwS21StKdSChq8oZq/T5SyirSvYWSVuDhF5RSgn7rRIIQEKvEmL6MqGr3nqfzkMHtco1L3CeNI18InRa8em0tYCAAD9PT8+JVQyCMg33atjlK126dOkGmAGUfAUkDvbCuTwuQsrlysh1JTGoF0KfarurHgMsc9AGHNACCsssXbr8f3///fe2Mg2ijI1ZQkdRxBz7uHWicea9emSqcas6/28uumoBd+ZsqIubm9v1Mg7hhzZXu9yPsWlrqrxy1SE6X74+ETpIK2RoFMnLy4NBcT9UcvBhlQ0BSOiVTSIljKekoLiihK46kOSLhF7tS7/+e/f2tUaNG7twOKrT1Vhy5nA56spx7OEsKlLXJHTWowEIQ5mLrlAoK8Vt3bq1QivFgdPW7t2LvI6iWK2aQOhsLXdA6B9ruasJndXf//5ZqBYsNKJQygYSehV7kcHhVggCkNArBNaK67Q8Cb2676F7eXnprF2z6jJfIGj1MSOAYRC5XK4sAauMNfhPlbVPfxKqmuIEIpPJEA5HeTgLOWXKtCm+vr67K07CCMIGxdU0QmdPW1MezgIJvSJVDPZdTRGAhF7FBFtSpbiyWOjVndAnTJhQ18dn1xmEYZRnxyuPQVWWf1VVxFVGr//Hrfs5oYPodtAGEDqCIHl//DF97LZt205UpNqUJ6GHnr/YuW/fvjcqcrzf27fmaWvs9gGwvZWHs6gXXOyWCPsstrRtEQsd7qF/rzDg/VUaAUjoVUx8kNBLLzBPz7E9vXf5HJDL5UY8npKQNU5aY4m96J+A6neWSCgFoyRzsIcuk0mTFy78a8jWrVtvl34UZW8JCR1kaZSO0GEt97LrF7yj+iIACb2KybZHjx71z58/Dw5nUZ6HrmKfLwfFfW0Pvbpb6FOmTBmzY8c2X4RhOGy4NAiMAy5dmlYo98yV7t3Prs8JHQTFsQsBDMNez5u3oP/69eufVqTalGdQXHWx0AHenwIXgYxglHtF6iDsu2oiAAm9islNk9BRlPlYVYt92ZXF5V7do9yPHw+ePsDdfSOKoqhCQX50r4NFDkHgSr+76gQ2zetzQmcLynC5XNDo4ZQp07ru2rUruyLVpjwJ/czZ0I5ubm63KnK839t3aVzuXyN0DAU1AlBw2hp0uX+vMOD9VRoBSOhVTHxqQgelXxt8J6EjAQEBvtU1bc3Ozo4XF/cyBEGYHkoyoCkEVVvjqvQ1Nqr9vy53zUA5EBQH9t3Bv5iY5zeaNWvuUswZrOWqReVJ6OdCL7R3dXWt0C2C/2PvKsCqyNrw1A1AwMKuVSwUC8VAXGvBAgUFREQRu3NVLFDB9hdFxUQRURFJAWMNVAzW1jUwdnXtDgRuzJ3595s7R69IXDqceR4fkHvmxHvOPe/5vvNFXgevLaF/346G25pA6HmdAuH9UoKAQOglbCLRHTqGYSacMTAXKkyteldL6d9H4tBUuauJTZ0OlGEwtjSr3MuXL2/w6tWL9xTvaM6yakk8I00GsnZXf/ajlTtYxYOES+NyqwAAIABJREFUfv78+cUdOnRcUNBLhif0eILAq2cWKe6bJiYjS31QPqg1ELGxhzr16dPnTEH3OS/1A6FHRISHEgTO5UNXT1R2cXsEQs8L5sK7pRMBgdBL2Lza2Ng0ioyMBCvrxgKhZz55u3Zt/cXFxe0hwYvbuSV0uEOHQDQkScp++826xcmTJ5MKesmYmZnVS0y8AIReI6+EfvBgbLEPLCMQekGvKKH+nwUBgdBL2EzzhB4mSOhZT9zRo4fsOnX6NVyivvvG0hM6aDI0jay+uUep60X/B5U7SOgkSSbUrWts+++//xbo/Tm0nZ+EHhd3uES4rQkSegnbiITuFksEBEIvltOSeacEQtduwsLCQj3t7e29UGxUROhqcv92NaGODvdNbZ0+lCrkQacoil6+fLnH7NlzVhf0/Xl+E/rBg7ElwihOIHTt1rVQSkAgKwQEQi9h60NQuWs3YXFxMeHdunWzE6sDwnyV0HNC6FzcdxWXPvX9779PH7JqlW+sdq3nrZRaQj9/EsfxmpmFftX2Dj0u7nC73r17J+atRwX7tqByL1h8hdp/HgQEQi9hc42yrWEY1kS4Q8948lxcXEx27txxgKLIxl+zl0CKGo1MdIgQ00vo6Y3iMJzE3rx582D69IndgoJC/y2M5QKEfuHCuXiCIGrkldBjYw+17tOnz+XC6Hdu2xAIPbfICe8JCHyPgEDoJWxFCISe/YSdO3duUPPmpkE6OjpEdvnEUXjRb65q3/uhp6bJscePH182MWnaOvuW86cEEPr58+dOkiSRZwldIPT8mROhFgGBkoCAQOglYZY0+vg9oUNADVWu3dZKaWAZgmXZhyyrqgOw5ZXQMZxM3rZts9XIkeMuFNZS0Y7Qv7kn/phg5pvbWkxMXAsbG5vrhdX33LSTjxL6p3LlKpTNTR+KyzsPHz7sVqVKlUEEQUhxHP9w9erV82vXrk3at2/fpeLSR6EfxRcBgdCL79xk2LMMCZ1jLrUvOs5+87VGFajVyur0oSqG4VKIgh/6tm3bto4ePbpU5UOfN2/eLwsWzHtIURQO0jehTneuoW7/3k+fy40uEmNKPlc6RVKYQqnAxCIpWLezOE6Empo2G5GUlJRcWEsFETpFkTU1v6DpE5Sg0L+af/9qnQ9+6BiGRR+MbdW3b9+rhdX33LQDhB4ZGX4Ax/FW6AqExXg/dEY9Xxnle+c+IPj5ZAnIh/6xbNny5XLTh+LyzpMnTw5XqVLFGhIHQTAjkiRZuVz+t4eHh/maNWveF5d+Cv0onggIhF485yXTXqH0qeo7dF5C1yB0jN8ANSv4mQh9//79v/fta7MCEqpwQXV4YvhGet8TOoQNVdJKTESJMYZlsLS0NExPV4+LFU7TdOqiRd7jFy9evLMwlwkElklMPH+KJMlqWRM69OpbUKHvItzxhH7s+MlWv/32W4km9Iw0ECiWe2ki9JUrV/4ybty48zo6OpU5g0x1/AP4qYiMjKzq6OgoEHphfhFLYFsCoZewSeMJHfzQm+aV0EtbpDgrKyu9zZs37alTp7YtTCtIONlJ6AqFEpNIJNwqgA1URKmt4lNTZRAd7sWCBV7dly5derswl0luCD19/1B60ZjYQyVT5c4nHAKNU8YPn1Tnewn9U9my5Uuqyh3fsGHDnFGjRnmRJElxa1Ek4vIPKBQKuY6OjrQw16DQVslEQCD0EjZvffr0qR8VFQWEbqrOFMZbb/Mq95xI6KWN0AMCAiYNHeq6jCAIHZjWH8Picn/9bsYJXpJlMfarRARSO+hyN23atHzs2PEehb1EeEI/TZJkVW0l9MwI/fCRPxr17NmzwKPb5QWjDO/QfzJCNzMzq3Xx4sXDkKOB07vAdRGfe0Aul8ukUim3poVHQCArBARCL2Hro2fPnvViYmKA0JsjQlfT1Pd3jojQvsVy//EOvTQROiRjuXDhwsMKFcpVh9zlQOYQfz07lTt4skFZ+AfSOWTtAjhfvnz5j4ODU6+zZ88WOhm2aNGi/sWLiUDoVXJD6GoVtVqCjYk9VMPGxuZZcV7miNBxHDP7ql7/yQg9JibGskuXLqfhOy2VSjFYwyChw7pUKBQfpFJp+eI8h0LfigcCAqEXj3nQuhe9e/euGx0dfQDDsJZ5JHRs27ZtW0qLUdyaNWvcpkyZshXDGE5dCXeP2tyhq1QMR+RgCAeGSIyKI3hFQMDOyWPGjNmk9cTkY8F8JHR20uSpZf38/D7nY/fyvSqB0DHs2rVrS5s3bz4bwEVkDldGQOhKpfKGrq5u83wHXqiw1CEgEHoJm1K1RXAkEHqrrAhdM055JkZxpYbQHRwcym/btjnAwMAQ7s6/rmnYGCkRn5VLI6jMd1POEt+FfoXPVCrm+bx58y2XLVv2d1EsDyD0S5cSTxNEHiV0HGerVKmm/+rVq5SiGIe2bSIrd1jTmhI6934GRp7qesEglIW4P+pHbeVeIu/QzczMRLt37z7ToEGDtjAmOIwirRHgIZPJonV1dftqi6dQ7udFQCD0Ejb3VlZWNePi4vbjON5OIHT15L19+zKgQgWjITRNk5yUDT55KEY7bzT1o8vXNyIAHOVyOaeip2la5u/vP3fy5Kn/K6qlkY+EzlSpUs2gNBI6fzVSKgjdw8Oj35IlS3bSNG3IZ/tVa5f4qyCZTOatp6c3v6jWo9BuyUFAIPSSM1dcT/v06VM9PDw8hCRJC05O4Y19OeM4jP3qh66NhB4QELBl5MiRJdoPff78+W3nzZtzVCwWG/BZ0Xg/e4b3u1dyxkVogwSDNxWj4gzgJGKwbie4bGpA5iDnRUREbrG37z8ZwzB5US2Ntm3b1r9w4dwZlUpVmfw2wd+FruU6y2kd1ONM79oFhMeyrLJa9ZrlSgqhgx86GhfYPnDjysbKneXv2klCBC6Hn3R1y5QoK/fu3bsb7t27d2/FihV7wtiRuh3hgOM4e/fu3TGNGzfeUlTrUWi35CAgEHrJmSuupw4ODkb79+/fK5PJuoHxzFc/ZN4oDgWW+RkIvWHDhtUCAwN2tm3brhvLsij1OUd0nMsaQWAMS3PEAL8DiYP0jnzU4XdQ1cIDklFKSorM3n5Ay6NHj94tymXRunXrhmfOnDpLUVQFikQ65R8DBqk3fZ74OEO4bw9P6HS16jXLlgxCDzuA40SOCR35oeMYCXP+ydt7SXkvLy+1c34JeBISEnpZWFgclMlkhPr7rLZwhwfWrVKpZIYMGeIQEhISXgKGI3SxiBEQCL2IJyCnzYOv9ZEjR3ZjGNYPgqDo6Kh9qNNbuZd2QjcxMSkTGhq6tnHjhm44jhNA1qBuhwcZxcHGSJI4FzgGCFvtjvbt4f5OQAAaLnjHx4sXL662sLDwzumc5Hf5li1bmly5culPpVKpJ+LHhNrILFpcRhI6mANUrVbDsDQTOppSmuZI8FNERFQlR0dHRX7PSQHVR967d29jzZo1R8H8QTwEWLMgpaPYCLCcra2tHY4ePRpZQH0Qqi1FCAiEXsIms3PnztTRo0cDRSLRIHXX+UhhmNoiNn3o1/RuawzLctIqSHDgtlZSVe4rVqxw//3339djGKODVOZIsgFUkEROUt/uIuFvUJZTt0skGEWKkZsadunSpaX9+vXzfv78eWpRLwlTU1PTa9euXCEIgvqWLU7dK20JnTcaU1atVqPYq9zVnhsRoZoSumYo44znQ304YzAVRhJcKGOY888LFy6u7OXlJSvqOdSm/Tlz5vRctGjRLpIkK6LymgdTWKsqlSp52LBhA0JCQo5qU6dQ5udGQCD0Ejj///zzT0CdOnWGqe/b1CpZkNC5zT6dVXD62N4lndDBIrhNmzYD/f39tygUCilFqdXqEIOdVqnd1eDBMchlTnNuaHA/DpsjEDqS4hE54jipYhjm7ty5c8Gq/UNxWA6dOnUyPXLk0DWpVAonrwy79I3Yv6lnvy/IER5dpWr1Yq9yzwuhIwldpeIOqslbt26vO3r06LfFYR6z6oODg0OVLVu2HCpbtmwLFDcBDqRI7Y7WJ8uyjx0dHQeEhYUJyVmK+6QWg/4JhF4MJiGnXYiIiNjeq1evYWKxGE8voZd2Qp89e3b/pUuXblEqleWBzNUHFjWpqZOqiDmjN47U4e4cV6vhgdDR3blMJuOIHcj/6tXrp5csWTI6LCysSO/NNddA06ZNm129evkaJJjJjNBReS7bHv98r3bnCF1VpWr1Yq9y5wkd7tBbIiLTVkLXVLnTNJ0SGBjUcsyYMfdz+p0q7PKHDx+eYG1t7ccnYPmueT6YDFK7/9m/f//+4eHhTwu7j0J7JQ8BgdBL4JzJ5fIAsVjspt4M1FMIUipSuWsOSa1eV2dbU5crmSp3iARna2vrsHr16s0sy+qC/YCurtqICGknQMJBkjqMG+7M09LU7mjIMA4wgweyWMlksn+9vZcM9PHxKbTUqNosN0tLy2bx8Seuc26JmfnP8xVlSujq+Wbt7QcYRUREvNOm3aIqY2traxwRcQAInQuegkL2cgeULPzQoaxcKcOkElgH3AEmbd269d0nT558rqjGok27Tk5ODebPn3+gXr16prA2YZ5BSkcGm9++szio3GNtbGz6Hzp0qMi8LrQZk1CmeCAgEHrxmAete9GzZ09JXFzcLgzDHFUqtbFXZoSO3JkyJnQW2759R4m4Q69Tp4708OHDoxo2bLhILpcbIoMhtRodw0BSRw+47gFpA7GDpA5Gb/CgqFuACWB26dKlSz4+S0dGRkZCrvBMnaO0nph8LBgWFmZhb98vgbtSSWcU92MzfCx//oNvgVnU6yIyMrqlnZ3dtXzsXr5X1bNnT5Po6KhwkiQa5pTQNSV0hmHkAQE7XcaOHQuhkYvlY2RkVObly5fnCYIw+Rqfl1+f6LuMvDRAi3T+/PnwDh069C+WgxE6VewQEAi92E1J1h2ysbGpGBa2f49IJP6NI3KwBkKJWfhXUUAK+C+STIEc4OTPhUTFcEyukGP7Q/ZvGTLEvVj7oU+dOtXY1dXVo2XLlsNYlsVRFioYI7Jih5+cdE6BDRnLBYmBu0iQ4pEExEfcgr/TLIvdnTVr9riVK1eeKY7Tf/v2bbuGDetzbkoZpw791mvkr/3DOHh3vIMHY/9Lh943ujiOE/WpV6/fWkdFHYyiaVU1zTtkmGuUoCSz/gM+6nXAeSooN2/eOnnChAn+xXG8cDANCwub3bx5c89vsRHUboeaj6bhY2ho2AEnJyeH4jgeoU/FDwGB0IvfnGTZoz59rJsfPBgXyTBMHY7cxLxRHK+aTW8Frb5HBsOxb665nFuMWMI+ffokoGbNuqO+XkIXLywk/xmpTZ48efIwqVRaj6ZpEUjZSDpHd49IS4H8zjMiQJDkgewJgmCvX78WMm3axHknTpz7p5iOG7t///6UatWqrNHV1c3Aqv37ScqO0KOjY1b169fv9+I1td/3plcvq99iYw/FYhgmQgdPpH7W9FzIaAwoVCr/GRMQELBi+PCRhZ4hTxt879y549GoUaOZNE2XRZoiFEcgC0Lf4eTk5K5N/UIZAQGB0EvYGujXr0+3sLCIQziOi9InH8kovGl6QgdyB+tvUEn/l+Alqlcv2yGHDh0qNsk7QIqxt7dv1bJly8GDBw8egmGYHnQUhXKF34G80YZP02qyhgdt/iD9fPnyBdPRUWec5FWZHxISEg5GRR38fdWqVa+L87TfunXLy8SkkScXiz4blXt2hH7kyB/hPXv2LNYq202bNji5uQ3bB/OkOV5tJHSYa7QeIKpaYuKfAfPmzR8THx9PF6c5dnZ2br979+6zcrkch3WJroDABiYrCT0sLGKFg4PDrOI0FqEvxRcBgdCL79xk2LPLl/90a9rUNIAgCFy9+alDvmqq2eFFtEkgQzHNu2X4HIKqYBh23uq3Xo7x8fHFwYJW5OvrW7dHjx4bateubSKRSKooFAoc+g9qc9jsUYx2dNcIGz6Oq5NZoPzR8FNTDcuyLPvu3bs3SUl3Rzo6Oh8rDn7m2S25S5cu7TYza+mCDjJZlc+O0F+8eJUwY8YMu7179xZbV67Pnz/G6uvr9/oa3Y9XoaP/ZzV+FIMA5pz34b7XpUu3vvHx8cXCawHiRixZsmSqsbHxVCMjo6rpx5KdhB4WFjHewcFhY3ZrRvhcQIDb9wUYShYCL18+XVO5clWINc7dJ4NBGCL09JIsCioDf0dqd9gkIV0oqOBxHH/4W/eetsePH79dVCiARO7q6tq2Xr16vYYOHeqKYdjXTU9TKkf9+1G1rr4/R3foSIIHkv/8+TPEdv3D2Xnwkri4uNNFNcactAt+9ocPHz5fpoyuGbLOzxGh83fn6B0cJ+8PHTp0wK5du27kpB+FVdbOzq7Bli2bLlasWNFAc/0ibwRt7tDBZgKuYngNFbt2ra/L1Kkz9hbWGDJr5/fff6/n4OBg16ZNGx+FQiGG+UTjgnfUWdWyvkMPC4twdnBw2FfUYxHaLxkICIReMuYJ9ZL68OHtXalUp9434yG1hJ5emvsaUIYPsIKM4TTU7UDz9KhRY1y3bt1a2BuG2MnJqc7ChQsHSyQShzp16hilpKSU1dPTI9G1ATJ00jTmQ2NEn6kN474Fk9FwScM+fPjw786duyb4+vom/Pvvv8UiYIw2S239+vUjxo8fvxbDGN30c5rR+z9I6OkIXaViFfPmzRu6fPnywp7jbIcLh5djx/5YU7as4VhYjBAfABEzIvJMs+TxtaO1AP/lE5uw7969v/3bb1ZWV69efZ5tJwqgQPPmzasPHz7cYdy4cZPggIrjuBRpjdBVETp4gpdGVir3AwfCHRwdHSFdsvAICGSLgEDo2UJUPAqAJHvgwH53MzOz1RiGSUE6h80uuztWJKUj63A0GkR+SqXq0YYNG8YFBAQcv337doHFwHZzc5Oampq2oGm6fsuWLS06duzYTUdHpx5oGpCBG5K0vhm8gZ/9N6M/9He0AaLMVEjdzo8tNTU1NSQkJCTQ3d39VPGYPe164e3tXXvWrFn7KYoyB9sAzc0/sxq+Eno6Itcoz+I4cWr48BG2AQEBydr1pHBKWVlZNYqKijgokUiMEeGh8Lx8Ktuv859Zj+A9ZGvwLcwxuH2wiTt3Bu1ITk6+/u+//95atWpVgeWEnzhxosTY2Li+XC6vIRKJTNzc3JykUmkbqVTKXRlpahlQaNfU1FRMbfSYtYQeGRndz97ePqpwZkRopaQjIBB6CZnBa9cuj27evMUapVKpAxHP0EaRlQQDn8EGApuj5h0zl4WM32hYFmdxHP/y8ePHfw4cOLASVLNisfjZ8ePH3+fGP7tz584Q5aOiWCyu3LRp07IzZswwpWl6VOXKlcuJxWKpUqmUiEQiKbigaW52mhs6mpL07neadgHIuhltkCzLyk+fPh27Zs2a1bdu3br84MGDEhWIw9LSsurmzZt3Nm7c+DeapnHkW5+dhJodofN3y+z584m7Bw0aNPrp06dpxWHJb9q0qb6Dg0N0+fJlG6hUKi5TnmZAFW20E1AGSeia2hm4V4f6RCKRjGVxGcMwsqdPnzIURd3BMOweRVH/KhSKT7q6uqlyuVyB47iMZVmGJEkV/NS8imRZFgIZgOYIjFDhpw6O4xVZlq2BYVhrlmWrli9fXqSjzpIEnhiw/imSJL8eVFGUQphLFEQGvsPqv5NZSugREVEd+/fvf7Y4zJnQh+KPgEDoxXyOvLy8ylapUsm1f//+MypWrFhLk+yy81HWbmhqK2HeL5ZhWfY5wzB/7du370laWhqtVCpTgPAxDHvNsmwqy7KcFK9SqSQ4juuKRCJdmqYrkiSpX7VqVdLa2lpfKpX+QtO0MUEQFUCViu63NQkcSdff/MnVkrhmPmgkeaXfCDW1DARByBmGORwSEnLSxcVlPXRNu3EXj1IBAQFGEonEytnZGeIBtMdxnAKcwB0PtC+ac6xJ7uh3zc8zWw9qjLG3p06dWpWUlBQ5btw4CI1aJClGe/XqVWXMmDGdrKysZkokklYYxmi1B2mOPSfrHpIQZfFkG1Aok3a/qzQrlXlm84f6BJoYIHf+O8Xfq0NkRy5KHHb06DHjXr16PSweq1XoRXFHQKsvU3EfREntn6urq9779+/FJEmKlUqliCAIsYGBgc7z58/LN2zY0GDlypVtDQzKuKekpFSG+2WQHDQJLzvpTRtcUEhYqAskBuQ69OnTJ8zQ0JBVQdYLdSQ1IHtecOJ+wtrhpGyJRAKh2kAiwSGkKlin8xLSV02A5oaFpK/0KnSkckefa26GyJoZkT7DMMlnzpyJ27Fjx8o9e/bchLNAbjQK2mCUyzKElZUV5zfHMAylr69PyeVy2LmNCIKoZGVlVXP48OEjdHV1m3/69ElsaGgoBjzgH2hUtOXbzFwVUZ+/HaK4fPBKiqKUnz9/Vsjl8odSqfQvkiQf0TR9Pyws7FNMTAybnJzMGhgYgA1C0okTJ/JEJKCt0dHRqa6np1etR48edfr27WtftmzZbjiOS0iSFME6QcmFcooxWhsZHWw068qG0LMP3JNB6N30JK0toWc8RrVBZzp/eq4oTdOMj89SfS8vryLPAJjT+RHKFw0CAqEXDe7Y6NGj6y9btmyZvr5+GZqmpRRFieAnSZJ6FEUZMQyjz6XPxBgu8hkYC6E839md+jWHlJ00o1SqfpAQMkoYgUg2PVxoM0L+wFzecbD00QhnqXk9AGOAB0Wtg9/BGAr+ryYytRoV+o3uR0GC4fvEqFSqf1iWjT18+PAxGxubP+D1IprCLJv19/c3HzZs2FyJRALfMUqlUolYlpVQFFUV1LRKpRK0G9zBJyOsYN41U2nm5fCGcEQqbZD8v+WMV1tU8pHWQCvA0jTNUhQ1C8dxsNfQ6tm8efNQQ0NDU4VCUQ4OpiYmJkTLli3BsK8OwzC1CIIohzwzYCxIKs3tuL4R+rdEPBl1NDtC12pwGoWyIu/0dWXkpZG+DLhdah7S033H6SZNTPUK0rYlp+MXyhdvBARCL6L52b59exd3d/c4MHCDEKUoCIqmWwsXk5wifgh/iVKBQtezM4rLfnhq8kX31Zp3fEC0mqE4s6srvbSEJH7N+1GoA22Kaj9ydWx1ROSI7DVIHbQEjx88eHD8jz/+8Jk4ceKjYiaJZwjLX3/91b9JkyahEEgERbfTPKig3wFjmHu0qcOcq/HKHO2cqJ81ySL9PKsD8agz1qG7aP4QwU6aNMnNz88PcgZo9bx58+ZY2bJlu1AURaCgKYjQYI1q3nFDhbDm4e+I2LVqJMNC2d0cZAFk7hvN9s3MDio/HrC/9V/T/ZI/KH+iKHElSBaYbYNCAQEBwQ+96NaAn59f5wkTJhxSKpVStKmh0znaeNWSrvoLDxuzpvSLeq7elDN/spPQQeWuKUGjjUhbt6GspMjMfIg1rZLV98VwcOHisDMMwyhTU1O/4Dh+nWXZe6dOnbq0ZcuWqy9evLh5+fJlLhpOSXguXLjg2rZt26+EqCl5ZaRiTZ88BtzxMsIvPVFkJ+FCHaDhQVbjGtoOft7VZIsOXfzcsMOGDXMLDAzUmtCfP39+okqVKp3B2DF9vzNaI9mtSzTHaHyZq9azW//qw2JmT3b45XataVOvGoNvgZCQrQm0CQc9hmHv6OmVaQba99z2Q3jv50JAkNCLaL79/f07Dx8+/BBYfCNSRipRJNnAFx6FNk0vaeUk8EZWQ4TzABdshjfMQW1rbvLaQpSRqh7+htTsIKlqjhXdz5Mk+eLRo0eXTp069ZdCoYgbNWrU+ZIghWeFy8WLF51bt269Bx3EEIFpEhn6LCOjQc2Qttrin919OjooojmGn2AiAYcpJKFDGYZh2IEDBw4NDQ0N0rbtx48fH6tRo0Y3zesWdFBEGhjQ2ECb6GoF/o+0F9q282O54imhpz+QZG6wqD5MpT/0qMvjkFJ2YEkz9Mz9XApv5hUBgdDzimAu3weDt6lTpx6Uy+V6urq6JBiUwQano6PD3WnCZg8PqNwhRjVPcKxSqWRFIhGIsrybD/eZ5pOt5a5mYc37VaiTJ3YcJC1EAHz5DNeKhoqe6yOQAYjZFEXRKSkpKjCuk0qljFwuT01OTn6M4/hjfX39Dx8/fnybmJh4a+/evckkSX549+7d34mJicUmpnwup/Xra4mJiXatWrXaQQEQNA1uWSwQGzrgwBxC+F7Ai7cX4JiJj1/OMgy4rqmJln/QGuDmgb98x/k84EDDX+dHg9g5I0pkLQ/tgUsceldNtARnDCkWizkGSUlJwfT09EDlPszPzy9YWxxev3590MjIqLfm1YFGSF4wlITxwrrglhVaxxCaN934NMeLftdcexwOPEGyGRkP8muXrzdHKnfUl6z2RU2c4ffM3oHvEDdV/Hx9hVKT3JE3A8JNqVQS0H+xWCx7/fq1T+XKVVeV9MOttmtIKJd3BARCzzuGua7B29u7na6ubi2lUqmPYZhELBardc5KJSMSiQiKonCaVsAdchqOYwqKohRKpUImkXAEyZAkoWIY4qubFu9Hy/0fNm9NU2mG+bbhMwyjWebrjgeHCtjYwRqbJEmKrwPczmBngo2G4P/GSXHQDvT548ePrL6+voqmaTlJkkocxyGAybPPnz9/9PLyyk6EyjV+xflFCKTTrFmzpgqFAkLZ6lAUxQCRAoGRJAm/03K5HOaYIQhCJZPJ0uDgo1QqVep1oMDBflCdJY7B4byH4zh4GsAckBhGi1iWmyPwjSYwjCYYhoD1gxOE+jAGftMMg+NgpwjzJ5fLKZFIKmYYRkSSuISmaRIIHeYcQpOqTTK4qw927969kZcuXUrSFmMvL69+5cqVswRVsb6+PpaamorDoQXHcWVaWppCJBIpwMUwNTVVRRCEUiwWK2mahjUNRo2w7Gn4O8uyKv6Qw90b83fyX/Xm/BqHNcZ9juMqhqYxhiThIEmyOK4iwdmCHz/U+90BFzLuwWca3wfAHx2suN/hewDzeaHVAAAgAElEQVRlwGNDpVKRaM3D3wFveBewRe+h7wf/f+7ABOXAEJKLusyXhbHxh3P4G3do5q+bWN7WAleplDpisVgkl6femjVr3gVt8RfKCQh8PT0KUAgICAgICAgICAgICJRsBAQJvWTPn9B7AQEBAQEBAQEBAQ4BgdCFhSAgICAgICAgICBQChAQCL0UTKIwBAEBAQEBAQEBAQGB0IU1ICAgICAgICAgIFAKEBAIvRRMojAEAQEBAQEBAQEBAYHQhTUgICAgICAgICAgUAoQEAi9FEyiMAQBAQEBAQEBAQEBgdCFNSAgICAgICAgICBQChAQCL0UTKIwBAEBAQEBAQEBAQGB0IU1ICAgICAgICAgIFAKEBAIvRRMojAEAQEBAQEBAQEBAYHQhTUgICAgICAgICAgUAoQEAi9FEyiMAQBAQEBAQEBAQEBgdCFNSAgICAgICAgICBQChAQCL0UTKIwBAEBAQEBAQEBAQGB0IU1ICAgICAgICAgIFAKEBAIvRRMojAEAQEBAQGBTBDAu3fvbvDhw4fUy5cvKwWUSjcCAqGX7vkVRicgICDwkyFgZmam6+zs3EtXV7e5lZWVQe3atWu9ePHiaK1atfx/Mih+uuEKhP7TTbkwYAEBAYGSjoCJiYm4atWq+jiO62EYpofjePlmzZpVHjNmzLDKlSub6enpGapUKqlIJCJkMhl77dq1Ge3bt/9fSR+30P+sERAIXVghAgICAgICJQiBOnXqSENCQiabm5t3xjCsPE3T5XAcr8EwDBA4rlKpMIIgMBzHMZZlsdTUVFmfPn1+i4+PTyhBwxS6mgsEBELPBWjCKwICAgKFj0CLFi3KVq1atQlBEGXFYvEnlUp1Pzo6+lXh96RoWzQ2Nja4detWCIZhv7EsS1IUxRE4TdOYSCTiOieXyzGJRIIplUr424P27dvbXrhw4U7R9lxovaAREAi9oBHOY/0rV64cVqtWrW40TXMnb5IkMfgJX1yGYbKrnVWpVLhYLOa+7PCuUqlkhwwZMjizFy0tLY2mTp3qkZycXBlO+PBOVg9sGikpKVwRgiBYHR0dPDU19YW/v/+a8+fPP9N8t2vXrtWHDx8+DcOwKrABadF/rn2QMviNiRs76tOjR49Oenh4bEvfvw4dOrSZOHHieAzDRHwbLIZhuVrrOI6zLMsm79mzZ11sbGyGG2Lnzp2bjho1agJFUfoymexrnwG/7B7AAcYmlUqxly9fbpo0adKZ7N75GT9v0KBB9cjIyK0NGjRorVQqK1AU9UGpVN5s3bq19e3btxU/GSZUYGBg5yFDhvTFMMyBZdlKsL6RRA7fF1hX8FOhUACxx/ft23fgz3j4+cnWRe42uZ8NpKIc7+XLl7e3aNFiGHxBgZwRwcGXF8gqG9IAIoMHvuxA7ixJksk4jpfNbExNmzZtdu3atcskSVJQBjaFrB7UB+gfPEC4b9++PTts2LBehw4d+qz57ujRo/v6+/sH4jgO93vcpqPNA2NERA7twXtyuZy9ePHiVEtLy7Xp6zh9+vRgS0vLQDgEkSSZPatm0QmGYQCzl3PmzLFbunRpYkZFnZ2dB+/Zs2cX4Azl+cMKjjbVrMYI46IoCg4Nsu7du3c8ceLEFW0w+ZnKODg4kKtWrQqrVatWXzj8wHcAHQgTExOPjxgxwvH27dvvc4pJjRo1dCwsLGqKRKIygP/Nmzcf37hxQ306LUFPUFBQh0GDBgVgGNYQfV8BIyBzsVjMJiUl7Zw/f/7I0NBQVQkaltDVXCCQp80uF+0Jr+QQgXPnznVo1aqVhUwma0+SZGeJRKIvEokokARBqkOkC6QHUjh8oZHaTc3HrArHcdn79+/pMmXKsCtWrFg+f/785Zl1o3HjxlWvXLmyA8fxtgRB6IhEIrFSqcShTkSq0AaSBhChQ0MYhn1JSUlJOnHixEo7O7v96dsYNWpUWx8fn3kkSbYSi8X6enp6OhiGUfzGwxVHUjvasOEn2pgYhqEVCoWCpmk5juMvBw0a9Ft0dPTz9O2ANLdt27ZeTZs2bUNR1K/6+vq/sCxLwYEI1JPoQePQlP75u0eVXC5PowFQDMMePnx41dnZ2fb27dtfMsJtwIABHbZs2bKhXLlydZVKpS5JkiTLstzhC40JHV40CUkmk9EqleoTwzDno6OjI6ZOnbr/zZs3GbaRw2VTqorPmTOn6uLFi08TBGGM1j1MDb8GU11dXR337dsXm8NB45cuXVpjZmbWTaVS6SqVSvmzZ8/OuLq6LkqvWcphvUVRnAgPD19lZ2c3hWEY7iAJ6wzWOnxnQkJCJrm4uAgW7kUxM4XcpkDohQx4Xpvbv3//bBsbm0FSqbQpEBSS0BFhIJKCdhQKxcerV6/67Nu3b5uvr+/HnLTduXNnytXV1cbJyWmBnp5eC0S68BPaAFU73xbLMMy169evnw0PD1/n7e19X5t2wLVm6NCho5ydnQdVrFixDWzQiGx5HkUbEkhjsqSkpD9OnToVnZCQEB0UFPRamzb4MqKAgIDBvXv3HlOpUiVzRLBwcID20kv+NE0/jYuLCzpw4IBPUFBQjqQ1GxsbXScnp8kuLi4DMAxrQdM0AfOieTiB9lUqVRpJkqePHDnyR48ePVbnYCw/ZVEvL6+Ks2bNOkuSZAOYM7gfRodZDMOUjo6OTqGhoRE5ASc8PLxvnz59wuGmSOMAjH348OGMra1t34SEhA85qa+oy65cuXLZjBkzZgKhoz2AP+R/dHNzq7tnz54SNZ6ixrOkti8QegmbOTMzM1HFihVrx8bGHmZZth5orZFqV1MND6T4+PHjSz179u744MEDeW6HOW3atA6rV6/eLpfLGwGJowc2VZIkPwYEBCwPCgran5CQ8A9oBHLajqur66/+/v6xenp64H6DDglcNSBlqFQqlbe397TY2Nhd165dy9GhRLMvTk5Orfz9/Q/o6enVoSjqqxQDmzmS0KH5I0eOBPbo0WMUNJ/TsfDl8Y0bN/Zyd3ffSVFURZDS0WEFNtqUlJQ3K1asWHLu3Lmg48ePg5o4x5jlsl8l+TX8ypUrW5s1a+aG4ziJtDb8NdQhBweHIQcPHnyr7QAdHBzEq1at2lWrVi0nZJ8BdiYg/VMU9WXVqlXuHh4eodrWV9Tl4PAdEhKy3sjIaDS6P4cDK2/hvtvAwMC1qPsotF84CAiEXjg453srnz59WqCvr+8FGnV+Y+PagC8xkmIuXbp0tmPHTh3z0riNjU3F6OjovRiGdf/y5QtWpkwZqI5hGOYeGL5NmDBhS17qNzMza3Tp0qXTGIYZIckcSbV8vUl9+vSxy8wgLSdtL126tMfs2bODFQpFedjAQdsAhyAkoSUnJ7PBwcH/Gzt27Iyc1Ju+7Ny5czssXrz4AI7jVZFmAwAjCOLapEmTxvr5+f2Zl/p/xnerV69eISoqalGzZs16gVElTdNpOjo6N9zc3IYHBgY+zCEm+J07d9Y1atQIDCe/SrS8fQYc6raNGTNm0qNHj2Q5rLdIirdv3778iRMngqRSaS9No1FQBu3fv9/OycnpYJF0TGi00BEQCL3QIc+fBidNmlTfx8dnv56eTgsgJSRlaqrcb9++ldikSbN2eWlx5MiRPVetWhVapkwZPSBasGhPTU2N79Wr13CWZZ/kNZxkkyZNml+8ePGiWCwWaVrUw8YE9/JfvnzZ071792F5bQdJz7du3dptYmIyCN0xoisLkM4kEgkbEBCwacSIEePygtmUKVPcVq9evRHHcR2oPy0tjT527NjOxYsXL7p48eKTvNT9M78LRmx16tSpKZPJ9EQiEc0wzOvExMRcua2BrcjNmzdvqVSqcnC4g+8N8gRhWfajvb39r9HR0TdKAt6dOnWqeerUqUilUtkKDvNoP2BZ9oWzs7N9eHj4hZIwDqGPeUdAIPS8Y1hkNRw4cGBy//52a+AuHUnm0Bl0SpfJ0v6aN8+zy+rVq7VWR2oOpmfPnpKoqKhYkUgEhkOgYgc/uQh/f/9F48aNy5fNzsvLq7Onp+cJ3kL8q+U+Mk4LCAiYMHz48E35BfK9e/fc6tevDxbBOJA4tIP8eKGNa9eu7XFxcRmWW1eoypUr6+3Zs2enpaXlAJD8U1NT5bq6uiFVqlQZ9+rVqxzdyefXmIV6MkYgNDR0tL29/TyGYWpoGktC6cTExI3t2rUDCb7YP82aNWt68eLFeLFYXAE6iw71DMNc79u3r0NMTIxWdi3FfqBCB7NFQCD0bCEqvgWAPF6+fP5IpVJVRJGhQG3Iu0LBSf3ptGkz+q9ZsyZXKt5NmzYNcHd3D2JZVgruL7du3drfv3//kUlJScn5hcrdu3f969SpMxpczHR1dTnpAo2BJMlPtWvXrvr06dO0/Gqvb9++JhEREX+wLFtN09UOtAPQLsMwz3r27Glz7Nixq7lok4qLi9vSo0ePwTRNg8YhLS4uzsPb23tHYmLidy58uahbeCWfEYDwqVKptNa5c+d2YhjWQSKRcPthWloaXMMkjR079tdt27blSgOQz13NsrqEhIReFhYWB1UqFWeECdon+Jmamhrn6uoK/uf59n0tzHEJbeUcAYHQc45ZcXqDUCplYQRB9tO8R0e+6jRNJ8+Z4zFi1ao1P7iQZTeIuXPnmg8YMGBd8+bNzcGU/ubNm8FOTk4L79y5k5+nffzjx4/XdXR0TEHtCY+mgdrnz59DDQ0NnbLra04+h01848aNy3799ddJKpWKM7DSvLIAAWf79u1jR4wYsTkn9ULZadOmtVu9evV+hmFqEgQhp2l6s5mZ2ZyS6Nuc07GX5PKzZs0yHTVq1LSaNWs6YxgmAc0KTdNvPT09By1ZsuSP4j62u3fvRtSvX5/bAzS+P9i+fft2Ojs7Dyvu/Rf6l38ICISef1gWSU0eHh7DFy5cuAWSMKS/F4ZAMu/fv/fr2bPnjJzcQXt4eDSaN29ejK6ubl24V7x3797erl27jspvlfH8+fPbz58/N0IkElVGluDoHhPHccbdfYTTjh07DuQ3sG5ubmUDAgJuISkdBauBdgCzt2/f/lOlSpV6OWm3Y8eOZgcPHjxUtmzZCuDTfPLkyQnDhg3b9/z589Sc1COULRoEwI0yODh4ZMOGDRfTNK1PURSzYcMG7wkTJiyCZVE0vcq+VQ8PD6OFCz0vqlSq2uDKh67bYC+Iioq0cXAYGJN9LUKJ0oKAQOglfCbd3NxMgfRSU1MbgMoaHrhDg/thHR2I24K9ql69etPnz59rdY9eq1atcmFhYb6tW7cGwzHqn3/+CXR0dFxy/fr1e/kNlbe395S5cz1WpKWlcQZxIKUjck1LS3szZIhL/wMHogokFOqDBw/+qFevXnekFYCf0Afex/n98OHDW+zYsUMrAzZzc/MG+/fvD61Ro0Yz3t1tm4WFxWxBzZ7fK6Zg6wP3r65duw6ZPXv2cpZlK4rF4odLliyxnDt37ouCbTn3tXt5zR/i6ekFQWMgOA7nscFHi0tzcnIuGxoa+rOFxc09mKXgTYHQS/4k4n/88ces7t27L0lLS8PhlK4ZeEOhULDnzp1b26VLl6nZDdXc3LzC3r17j1WvXt1UIpEQoGb/7bffxuS3ZA79AH/6U6dOrdTT05mE4qxruq1hGHvd0dHZISwsLD9V/F8hePny5eTy5cuvgdCw6QO/QJS4zZs3u0+ePHlfdpi1a9eu8dGjRw/p6urWJElSERkZOW/u3Ll+uTWqy6494fMCRwBftmyZ64wZM9YzDFPmypUrXu3atQMpvTg+xIEDoUt69+41E2IraEaJVChkOyUSPUHdXhxnrQD7JBB6AYJbWFXb2tpWi4qKSmJZlnMSR7HPkbT+5s2bs25ubtZHjx7N1MoaDOwOHjy4pE2bNqPhHvH27dt7Bg0atLAgJHPoV8OGDfXv3r0byLIqO83QryiELUmSR8eMGee4ZcuWTwWBo6enZ0dPT884lUoF6lUUXhY1xdy+fXt5kyZN5mYV+KVdu3Z1goODA2vVqtWJoihVcnLyXgi/efz48XcF0WehzkJDgHjx4sXYKlWqLElISLhsaWnZtdBazkFDFhYW+qdOxe8gSaI/0mzBoVihUKj27dvnPnz4SMgvIDw/EQICoZeOyZayLBvCMIyNXC7HQdWuGWBCpVI9GjNmzIBt27Zdzmi4pqam5cLDw4/Vrl27BUisKpVqf4sWLUZkFrs8PyAzNjY2unPnTixBYG2gPmRxnpycjP0XMAfbty9kt7PzoIKMcEX8888/6+vUqTMGMENR8JDa8suXL/9aWVlZnz9//m5G4wXJ/MiRIzEGBga/KJVK+tChQ2v69u3rAUF38gMfoY4iRQD38vKSNG7c2O3Ro0fRs2bN+iFfQJH2jm/cxMSkyo0b12NIkjDTNIaTyWTPhg0bDvHtzxWHfgp9KDwEBEIvPKwLsiXi06dPXgYGBvMgKQhyW9M4tadMnz7dfd26dT9YuxsZGZU5efLkImNj4zESiUSalpYWu3v37umjRo3K9ztzTQAaNmz4y927d69iGGOI+qnhP8tGRR20s7e3jypI0DZs2NBh3Lhx4MKmC5oB0BTAw1vcs0FBQVOGDBmyLn0fmjVr9kt0dPS22rVrd4HP/kucc8TFxcU9PDy82N61FiSOpa1uLy8v4tdffyW6dOnCJecprk+LFi3q//nnhcsikUgf+vjNsFR1e+BA5/5hYWEZHkaL63iEfuUdAYHQ845hsahh0qRJZkuXLj2gq6tbBzqkaSADREWSZJxIJLKDnC2owyCZh4WFHa5Zs6a5VCpl09LSTrVo0cLh3r17WhnQ5WXgV65c+bVly5YnFQoZl689Xca1NJLkNqkCty5++fJlQuXKlS3gMIEOQrAxwu+fP3/+p3Pnzo0078MtLCyaHDlyJFxPT69BWloaGx8fH9OrVy/bvGAhvCsgkBsErly5YtuyZfMo5BkCdcC6ffHi5dHp0wf2Cw09n2/xG3LTP+GdwkdAIPTCx7ygWiQvXry4sUWLFqPgSw0qZHRi5yVg+eLFi9suWLDgOnSgXLlyhomJiV6//PLLKIqipG/fvk04ePDgTHd3dwhCU+AJQ86cObOnY8eOAzGM+W4NghGfXK7YZWBgCAY9Bd6Pf//9d1HNmjXngekB4AaSukaymzfLli2z9vDw4ILMWFhYNAwNDd1Svnz5jhCE5OPHj2dGjRrlFhoaColpCvwBH3pHR8dKZmZmPXV0dJrIZDJjkUjE5WhVKpUqAwODvyFbWERExMGdO3cWShzyOnXqSAcMGGDcrVu3niRJtpHJZPpisZhLU6tSqeD64TnDMFeOHDly2NfXN6cJfKimTZtW8PX1tUxOTm4ukUgaw+EvNTV1v62tbVh+HPiqVaumu2vXrubJycktxGKxJUEQ5cFSHEIc6+rqvmUY5lxwcPCxXbt2gXFmbtcjbmRkpLdz586OJEk2JEnSTCaTQTsUBGySyWQQ6oEViUSsSqW6r1KpDk+aNOlEdkmVrl27Ft68uakdHEbhO44SAR08GLPL3r7/0HxYkHidOnUMJ0yY0LZZs2ZtaZpuRhAE5I5n+dSsr/+75rt8+/btiOnTp2vlEZIPfRKqyAIBgdBL0fIwNjauce/evb8hShlKOIJiVMP/4+LiInv37m1nYmJSPiIiYn/9+vW78ZLp1fbt2/e7fPnyv4UBR9u2bQ0OHDhwBty8VColtxGhB7KrDR06ZEhw8L49hdGXfv36dQsLCzsIud/hAIQCzfC5thWLFy+e6enpufbXX39tExYWdsDAwKCmSCQCz4KjVlZWvUHTWRj9tLW11Q8PD/clSdItJSWFgOR0cACBf0By8BO0MlKplAkPDw/t378/HIgKVEIzMzOreOTIEV8DA4NBYHsB3hW8q+R3Ghde+/Jg/vz5o729vSHMb7aPg4ODkZ2d3VwHBwd3iqL0oW5k58AwzIdy5coZf/78GbLV5frZunWr5YgRIzxYlu2JDEmhr2gMGl4XkHN9+J49e7L1esioM0uXLh01e/bscSzLNoc5YhiGRelf4YoMvoPwD74HEKVOR0eHPXr0aF9ra+tMk6p4enrW8vLyOqZSKesj+xMgdejz/PmeZitXrrySa2D4F11cXPoEBgYGkSRpSNM0A/3jtVgQ8wJHe0xaWtqNGTNm9N+4ceODvLYpvJ83BARCzxt+xertGjVqlL979+4RPT291tAxPsUpF6scNoyPHz9emTp16qg5c+aMrl27tgtI5m/evLkeGRk5Y+zYsafyQ+LRBpDff//dYfHixdskEokBw9BfpQt+s3jj7u42cMeOIK02fm3ay6pM7969ywUGBu6oUKECqM2/fh/Ajx8kpnfv3oVNmDBh7bp169YaGRm1hM3z5cuX8TNmzBixZ8+ev/PafnbvgwS8adMmVzMzs6GGhobt1EnbiEfPnj27SRDEa4lEYmJkZNSGIAgR1MWTJxMYGLjOzc3t94I6cAQHB3fv0KHD4lq1apkRBEHK5fLnHz58UIrF4irlypXjAiAAeWlms/v06dOFhQsXdl2zZk2mB4169epVCgwMtG/QoIGLkZFRB5ZlCWRjgUKaEgShqFmzZnVtYyukx9jW1tZ4wYIFrqampsNxHK9GUVTqq1evXqSlpSVKJBJR5cqVuzAMUxFcwVDynpcvX94bMWJE/9jY2L+ymzP+c/LIkSMtpFLpqE6dOrlC+GSWZen379+/UigU78uWLVtWJBLVBEKHAxkaG5Kyjxw5sqpPnz4wfxk+06ZNc1++fPl6iiJ0UlNTQZuAyj3DcbJ+Xg5z//vf/4zbt2/vaWJiYqWvr2/Esmzy48eP7+M4foMkyaqVK1fuIBKJDFAgK4Ig2Dt37tzdv39/By8vr1ynONYSV6FYFggIhF6KlgcExpg/f/7Szp07z0Cndhgeuh+maVomlUohz7c+b4D2d9euXW1Pnjx5qxBhwI8fPz6za9euSyF+O0URSCrhupCSknpv9OgxA4KDg28WVp8GDRpkHhwcfI5hGBK5zYH0weeUZkmSBMUBBZttQkLCH05OTv0KIwIckNuuXbs8O3ToMJJhGBFEsROJREf79+8/Ojw8/DHgU7duXUNQvero6HRFBzc+J3bS+PHj7TZu3Hgnv3Fs3bp1y6ioqKhKlSrVBHe9uLi4uKioKPctW7a8jYyMnNWnTx8PkOpQu0jSpSjq+YULF7q3b98+wz65urr+snPnzgMEQbRCBwKYB02PDV6L8rBevXqtHz16lGPy6NevX9ldu3Ydkkgk7XjjR/rGjRvTnZ2dN/G2Evjp06ddLC0tN9A0bQDrgdcgMfv27Rvj7Oy8VRs8V69ebTt58uRg8GWH9wmCoO/cubNowIABW2/fvv3S3d29mpub2w5LS8vf0EESaSGAKA8fPrzT1tY2Mz9y/OzZswvMzc294PsDD48L+9+a9RKJJN659bbYuXOnxdChQzfRNN0Utg6apt/s2LFj5rhx4wLRuJOSklbVr19/Oq/FQu2zYWFho7XFRxsMhTI5R0Ag9JxjVqzfGD16tM2KFSsC9fT0yiE1IlKNQcdRWtInT57ci42NnTlx4sS4gpLiMgIKJM6//vrLX1dXdyiIPyChozj00F+5XHZ++PBRtnv37i1wwzzN/tE0/UCpVNaDvqQ30uMJiX348OGJ//3vf6O3bNmS0/zbOV4zlStXrhQSErIWsrZBxD6JRKLcvn37oi1btvj/+eefmn7u+Lp16+ZOnDgRgp/gGm53L2bPnj1ww4YNkGs+3x5zc3Ow8I8uV65cE7grv3379h/W1tYDnz59yqm/IcWpt7d33fbt228xNjZuj7Lo8VH4/vX29u7g4+PzTLNDnTt3LuPn5+cklUpn16tX7xe5XE5A6FWKokjQOMBBBeZAY15iqlev7pTTQ9WxY8e6N2nSxLNKlSrQLxI0BklJSStcXFziNO+rYY2Gh4efbdmyZSs41Gkc8k7iOG6V1fcFvEaCg4Ontm/ffpyurm5lgiDwd+/eXX39+vUaExMTuEb6augJOd7Dw8PXtGnTZjBI6ijAEXxHT548+bu1tfWqjCauWbNmeteuXdvBsqyDUinnDhz8nbbcy8vTffHiJbm5rhL7+fnZjBkzZi1FUdWg3b///vuPY8eOTR49ejRoor4a0w4ePLhzUFDQcaVSySWD4bUYbHBw8NYhQ4ZAHAvhKSIEBEIvIuALstkHDx6crlixoqWh4VchiZOCYUPkDb6e9+/f3y4yMjJXWdjy0veKFSvqv3nzJlIul3eFO1G4Q4dNEw4dIKGA1XiPHr1s8tJGbt79+PFjgKEhZ4iHpB2uX/CASpEgiOMtW7Z0uHbtWo6lwpz2p1KlSpUPHjy439zc3BJS44KGYO/evQGDBg0ak5HkNXv27KlLly5dKZPJSHQ3i2HYFzc3N7fAwEAwHsu35/Tp0zMtLS0hNCqn+Tlz5syszp07r0jfQNOmTRuHhoYG1a9f34xXI8OBaGWjRo1mpSNzatiwYWtdXFxGsiwroigq+fr163v19fVT6tatOxVJ55pS+sePHxeVK1duYU6kUMiyFxgYGGNoaPgL33d20KBBTUJCQjLUFly/fn1fkyZNnDTtO+Ry+WepVFoJbrMyAZSKj4+famlpuYhhGClP0K8HDx7cISQkJMND4Jw5c6ouWrQI8hW0B1Ln07jSo0aNarJ169YMXUfhau3x48fHcBxvieNqOz3eAPYpn/8gx/7nQUFBw1xcXJbhOG4EdV29evXypEmTHC5cuPAo/VjNzc2bnzt37hTSwiBj0qioqN329vYFGTsi39Zxaa1IIPRSOLO7d++2cnFxAYMaLoWZpksY3A1DdqaoqKhBXl5ehWIJrQkxqJHv379/R6lUllfnIf+WvxlUfLGxh8b06dNnS2FPy4wZMwauXLlyp1wu57JtaUpLIpEobeXKlRNmzpwJedQL9ClfvrxBXFzc2rZt2w4FwyPAKD4+foOzs/OszN9XPR4AACAASURBVELwTp8+ffry5ctXgmEadI63nUgeO3as27Zt28Lzq8NgZb9v375DpqamXWFNAU6JiYnj2rdvD7HEf3gaN25cdevWrSMIgmh27NixsICAgMhHjx59XXNxcXGSTp06LdTT05sul8s/3rlzJ3T16tWbExISksqUKWN448aNF3CgQXPBp9b9tG7dOvcZM2ZoPa7jx4+bd+jQYTuO4yYgUqakpPx7//79qebm5pnWcefOnah69erZIkIHzYdYLL5HEISpprSKBg2RFoODgz27desGEqoBkJxcLn9/8+bN3/+LKAjpWTMNOAQhl2fNmjXBzMysx+vXrx/v3Llz88aNG8GmJcN3evToUefQoUN3VSqVJC0tBStThgsQiclkabdmzvTo6+fnlyMN0ubNm62GDh26m6IoI96w8v6yZcusPDw8fiBzaMfS0rLV6dOnE2ia1oG5gX9fvnzBDh06FOTo6Dgkv9abUE/OERAIPeeYFfs3GjZsWO327dtHWJZtiiQpIAZk4COXy886Ojo6RkdHF3oErIkTJ7Zct24dRKzj1x4DbkhgnQ0bAzNixECj7dtD82S9nJsJgqhbe/bsCWvevHkH2IyR1gDqSk1NZa9evbq6Y8eOEAmuIK3axQkJCbMsLCw8lEqlDn9VInN1dTXdvXt3ZhbE+JkzZ+Z27NhxkUKhAGmem2ccx1+MHTt24ObNm/NN5T569OjWvr6+ByiKqg3rCTb/P//8c0zHjh1znGoWcH3//r2hrq7uVoqiuh04cGDWwIEDt6G5a9SoUYU7d+680bxGgM8eP358pVevXr/mJIrhjRs3DhkbG/dA1uvR0dHeffv2nZ/VOklKSrpet27dZpphgVUqlT9FURMyItrp06cPWLFixXa4d0epgE+cOLGsW7dusGa0ehwcHMjQ0NBsYy+cOnXK0cLCIgQqhTMcck8FzVzfvna/5SSPQKdOnX45efJkOMMwzcEIEA7VGzZsmDFhwoT/ZdZpf39/i8GDByfAQULDII/dsWPHOnd39ylaDVYoVCAICIReILAWbaVNmzatfPny5YNisZgLq6r5gIQulUpf2djY2MXExJwv7J6ePn0aDIE46VOdd1p9RwoHD4VCedbYuP5vT58+LVB3q4zGDCljFyxYECQSiVojqQwdhqA8QRCf+/fv3z08PPxiQWF26NChwdbW1ltxHJcCWaakpLyYMmXKyMDAQLBzyNAHGrLjPX78GD5vp6me/vTp07WhQ4f2iYmJ+e6+Oi99nzRp0oi1a9f6gxsyn9ELCH1e+/btfXJZL37q1KlBly9f/jxt2rRDmocluId2dnZeDXYWMC54wFf77Nmzszt16vSDij+j9sGDYevWrRsqV648ALwAwLdcT08vae3atb9OmTLlVSZ9xjds2DDU3d19nVQq1UeY0jT9ecqUKW4bNmyISP9eeHh4j65du24xNDSsAd2E6y2Kou62aNGiCxjA5RKbDF8Dw9e1a9ceNDU17aG+21d/f0Arc/Fi4gZLyy5w4NDq8fDwqDB16tRDRkZGrUHdD4fYjx8/+vfr129uQkLCh8wqefDggV+9evUmIHsN/gDMLly4sKOPj0+O1f1adVYopBUCAqFrBVPJKuTn5+c9evRID8iRDj1HIVXhd6VSxbljxcTEzLCxscn0FF4QIwbjp3379h6tWLEC3BfyRI5/NdSLiIiY6eTktDoPATxy3W2WZQ7QtNIepBTeup0zNmJZ9VcENs+EhIR9lpaWzrluJIsXra2ty+/cGRBXpUqVtqjYiRMnd3fr1j3LO8mFCxeOXrBggT+oplGAEZAQIZxv165dPfOzr1OnTh23cuXK9dAWMrT8888Lse3adeiTn+1AXceOHTvUuXNnjrR4q32YA8bNza1BYGCgVirlq1evOrRo0SIEyIpX16cEBQWNdnNzC86sv8bGxgY3b97cK5VKeyF3OfX3RnllxIgRtrt27frugGRlZVUpKCjwcMWKFTmXRmTEFxUVtdzefgAELMpXjc748eMbrFvnG00QREN1jAm1/Ql4QCQmJraysLC4pu1crFy5fNLEiZNXSiQSMb9HyLt06VIlPj4+UzsRW1vb1gEBATHly5evjOaFd7m7SFGUubZtC+UKBgGB0AsG1yKpFe7xkpKSthoaGjpgGENBpC4VoyTEIgitqrYSBjsv2KhUKtWb9u3bt7h69Wqhqd1HjHCz37p1O9wncpKP2rpdTezgsTZ8+HD3gICAH+LNFySYIJkvXOjlyTAqB4lEAlbVLFhvQ5tqNyKdr0ZyBEHcGTt2bK9NmzZleLeY2342a1ZZ78KFhyESiaQn3PHC/EDwkW3bArqPHTs2M3980efPnxdKJJLxFEUZwDs8jqnnz59f6+jouDi/NR1jxoxxX79+/SaSJDmfd1D1sqzqy65du/43YsQokNLzJfe2u7t73c2bN0eSJGmKSIOPs3/TxMSk+8OHD19nh3Xjxo1rR0REhBsbG7dCoVEvXrwY1KFDBzB8zFCtPXjw4IYzZ86cbmpq6q5QKEg+tzh77dq1a0eOHJk8Z86cM+naJdat8506ceJEb6VSCX7m3Hfs/ft3f0+YMNZu796wG9n1M6efT5s2xX316tWblEolHzyK4L7PBEE8qFmzZlvkbZBdvSNGjBjg57fWTyrVrQJloQ6lUrn5P+3d2MwO1ImJiQ7m5uZrMAwDK3juAAnf45cvX0aNHTt2UkxMTKEEpspubD/z5wKhl6LZ9/Nbv2TChPGzaJomaFrxTqVS7dLT04M7ra/SG+8+BETFbNu2zWfkyJELCguCK1cujWnatOlGlLsZCB0kDCCi5OTkp3PnznXw8/O7UFj9gXbevn0TVKFCeRf4PS0tjdbR0T2tVCq6wQanjkxGcBIi/F8mk72bN2+eq6+vL6iH8+1Zvtyn29Sp0/+ACHRwJQLt4jh+pXHjJlZ37979IRVrz549jdzc3GY6OjpOoWma84/njbbYpKSk0w4ODnY3b97MVGWa245PmDDB2s/Pb3dKSkpFuI9Wxzrg7LZUPj5LO82bNy9f1K1ubm7t/P39Q6RSaS1+XrjobXK5PKZp06YuDx48+JzVGHjjveWmpqaTuAnkCevkyZOju3fvnqHBJfjz379/P56maQgBy1VP0zSEOH09YcIElw0bNhxP3yZ4bLx+/fIuBKdBUQahzIULF3wsLCxBOs/vh7h4MdHDxMRksa6uLq4+qKj99BmG8f5v3XhpExzKwcFBvGPH9ksSicQU3ofDkkQiYf47qLqNHTs2KINOi4KCggb36tVrmYGBQSV0GKcoCq6B2H79+plER0cn5fdghfpyjoBA6DnHrNi9YWxsLLl///4euVxpJxZT+Nu3b1+OGzeu/5MnD96cPn3+CEmSv3wjciApteqdIIh4W1tb57i4uHy958sEIEqlorcSBO6G7t7U9/m6vCQsuTVhwoTeGzZs4AKmFPTj5eXVYMGCBcsxjLFJS0sj3759+2d8/OnZ8fHH9QICduxWKpWGQFgymQLuXblNE9zXcBwPaNKkybicGB5lNRZQ8R48GLWnfv36vdE1hFwu/7RggZf7ihUrOCts8Iu2trZu2KRJE/Px48ebq1SqviKRyAgsi8EwCdStKSkpd2NiYhb5+PiE51ff0vfbysoK4pEfrVq1agc+RCnndsirsxP37t01bMiQkXkOZLN+/foRI0aMAE0AiayoYYw3btzwbtWqFZBWlilqExIS2rVr1w4OF9z1CTwEQXxYtmyZ6bx5876qzMGfevLkyfVatGgxiKbpjlKpVIzCp1IUlXLr1q2d4eHhW7y8vH6QtMHfPjo6OqRZs6Y2KPwuLyl/adTIpFlSUlK+x/dXf8/v7aZp5QDe75w7rxAEIYfrEF9fX628MBYsWOA8f/7cLRRFleHPO9ijR49Chg0bNiI+Pv4L4DVw4MBq5cqVa7lq1ar2urq6cKXSnDu5fTMYTdm/f/+6zZs3bzhx4kS+2WkU9Pe+tNcvEHqJn2ET8YoV7p7Tpk2ZzRsQpU6aNGn0pk2bgv+LdmX0xx+H90gk0u5omHzmNYwgOCvll/b29n1iY2MzzJOez9BIWJaJZlnGCiSLb8Fu1CrDu3fvnhk/fnzX+Pj4fL1zzGQM4mfPnm2qVKnSMIoiILqWPCgouI+bm9txNze3sn5+a6PLlDGwRO/y6khOclapVGmmpqb17ty5ky+pUseMGem4fv2G7SRJlkHuhc+ePf/L0dGp28iRIzuUL1/eqlatWvUaNWpUVyQS1QWO4/sF0hGtVCploaGhwTt27Nh47NixAo+ud+bMGd/WrVtPBizU6nC1uhYOO3K5/GaNGrU6vn37NjkPa4dkGCYEx/H+iIzR/benp+dYHx+fjCTI75o7f/78shYtWsziNR1wYGRPnjy50cvLa/GcOXOMy5Qp4/SL+oE7XyMgft5SnFGpVEocxz9Pnjx52okTJyIzs6Z3c3NrtGPHjjCWVZlA/9AhNS0t7ZKpafPe2lwL5BQjuFJ78uTRSZFI3AatFThwikSiV+B26evrG59dnaCJiI2N3tWgQUMbsC1ANjXx8fHdIiMjH1lbW9sSBGFubW1tTJJkI+SCBwLBhw8fVGXLllUqlcq/1q1b5/X7778fBdkguzaFzwsPAYHQCw/rgmiJ+M817QDLYn0hSZhSqXzr5ORkFxERkQCNwRf29u2/POvXrw950jlpB7kbiUQSbhN69+7d/6pWrTq9IDqnWSdE0Pr330fPlEqlgb6+PnfSV/syS7g+HT16dJ21tfXkgu7HrFmzmnh7ey+lKKrnf2pK6uHD++cPHToyd/LkySdR26D69/b2BrcgTgUOLnVoA4V+37t3L9DExCTP2eBA8n748MFNgsCNUTvQB6VSCZoABsfBBZvCwTob+RpDylYdHZ03sbGxfzx58uTMp0+fzs2ePbvAiRxhs2jRol/nz59/DMMwzvCBZdUZ6hChXblyJdzBwWnq33//nav7VIizHhUVdQeF2kXW9J8+fbphZ2fXNj4+PsvYCWPGjGnq6+sbIZFIjDUOZKxCoUiWSCQ6OI6LENagUgeiAnsFHMef/fXXXyFnz549c/LkyVOhoaGfslqLzs7O/Xfv3r1bpVJK0eFUfSgQhTZp0tQ9J2512q75QYMGldu+fetrSv3wByluGu5PmjSppzb+5+fPn53Wrl07MDz9+j4fDU+B4zhUxh0YwX4EhT+mKAowP7d//35YbwkrVqw4k10mOG3HJJTLXwQEQs9fPAutNgj/6OrqOn/GjBm/K5UqXCZL/Th58uRJO3bs2K3ZCS8vr1bz5s0BtXtF5K8Kn6NN7eXL10/+swRunFnQkvwa0LJli5rMmjUXiAdH5KjerNWG+DExMa1tbW3znCEqq/42bNhQPywsbCtEAAODQXBFCwkJtnN2dv1OsoGQnI8ePXrIsqwh2qyRxTOvar42efLkvv8FOMkVaaE+LlmypP2sWb+fZRgGRQjj/HpFIlGqSCQCTQWOYZwGQfn582dFSkoKpPMMHDly5MmkpKTbmkFa8muesqsH1t25c+c2UBTlIpFIKCB0ZLjGxyJXXb16NWLw4CEuuVH9R0dHL+vevfss/s6cN+RkIHKZb5s2baZm0z/i4cOHnr/88gscYAneHx8Ojyocx9N4LQLEw4e5V7548UKuUqnenTt3bvn69etvnTlzBtanNilS8bt3725r2LChO2j/NaLYQTKfFRUrVpqT3bVAdjhn9PnBgwe79expfUzTrRKMXZ88efLnyJEjLbLTbjk4OOhs2rTxdJkyZTjXTHU9YMdC00DaqampDBxeWRaWHCNPTU2VK5XKU3PmzNn7+PHjy0ePHoW4ANrgk5vhCe/kAwICoecDiEVRhVKpDKcoqh9cEapUqmQHh/49o6KiMjRKevXqhX+FChVGQ1xptPl+24QIVXx8/LIuXbqAcVyWd5N5GWdMTOQGa+ue45DPOcrfDBuKXC5/1LRpU/MHDx7AhlEgz7Rp0xqsWLFig0ql+pWiKNGTJ08uhIWFTZ0+fXpi+k0K7kefPHmyj2VZuB/lMFP7zIMExklEnwcNGjR47969maa31GYQkZGRy/r2tZmFoq7xqmV23769U549e/qAIAgVSUogg9kLyLmenXSqTZv5UaZjx47loqOjA8qUKdMP0rFrunfx64pNTLw4s127dmARnW2gFNQnOCzs3bs3rHHjxtbIXY2X/pUrV65sNXfu3CwzncG9b2Bg4AOxWMylwkX+2Z8/f47ftm3bSsBTV1dXxbJsKsMwz6dOnZorbwXwb4+JiXlD0zQXnI+fNyBC1tPTc4GPz1JIjpLvz/HjR4I7d+46SG1Mqh4fuFWeP39+o4WFxfjsGpwyZUrnVatW7CNJsjKUVXtTQHAa8sD69et30jStZFkWrhyS9fT07o8ePTpLLUV27QmfFz4CAqEXPuZ5atHZ2bnizJkz5zZp0mQS7CYymezVqFGjpgcHB2eakGHo0KHdwMdZJpOJUaxvlNmJ97M+2rVrV5f4+PgCSYgCxlR79+6JMjQ06JbeOI+mGfbVq1ebrKyspuRGotMGTMj/vmfPHt/mzZu7grRGEMS78PBwlwEDBoDqOKOHePHixdwqVap4QXEkEak1CxSo39lnz55vrFu3HlhR5/YQJDl58mRYx44deiP1Ke8G9MXcvJ3Z9evXM4zjrc14C6PMsWPH2nfp0iWKYegKFJ/yC6ndebJ4P378uFGbNm3VOpY8uI1t3779gFgshkxfHOHwSVkegLvanTt3sjSYjIuL69ezZ88IWNvqsMJq+4xr164tat26db755IeGhg60s7Pbq45ToNZQ8AcQuY+Pz7QFC7w25vccODj0qe7vHxBVvnx5M5R0Se3doFI5Ozu3CQsLu5pdmz4+i8fPmDHDVyQSUbxlO0jorI+Pz4R58+ble5+z64/wef4jIBB6/mNaYDW6ublJ161bB4kr+vKqa0X//v07ZxfxrVevXg0iI8MjRCKRCbKMRp2EEzoQXJs2bTpfunRJ21zPORrjgAH9rEJDw/alpaWVQ+E3QeWvVvuJ6Pnz509ZsmTJhhxVqmXh2bNnGy9atGgry7IW4Lj79OnTCzt37pyyYMECiPiWKRnPnDnTfNmyZaEsy9bS8PHmrLr5ZCOKYcOGd/kvbn6uXLWGDBnSfceOHSEEgZUHAgJXKT6r1/mWLc3s/vrrr8wimWk58gIvRnh7e7cbP37sTn19/fqAiWbOAP7A+GHr1u3tRo0apdXhxM7O7reQkJBQkUjEZRVCfs4kSR7q1KmTS1bRy6B8RETEEltbWw/N1MGw3v/555/BzZo1yzSYTE6R2rNnT4CzszOXyCcdob/39l48yNNz0ZGc1pld+eHD3Ry2bNkaRBCEBBm2wnohCOqasbGxdXZGeNWqVdN99uzpPoZR2SB8QJuSkpL2ydPT083X1zcyuz4Inxd/BARCL/5zxPXQ3t6+qr+/v1elSpWGp6SkkJ8/f37m5eU1c8uWLdmmSuzcuXPZuLi4IIlE0gclQ2FYGiNwCBmpBKMv9vz583M7dOiwrCDuyJYvXzJs2rTp2+EQgozyvsWWJz6MHz9+6MaNG/Okvs5oGtu2bVt59erVqywsLCA9JcOy7CvI221vb39Yi2knrly5EtmyZUsb9QaqzovNJz7hJMD4+FMhM2b87nr58uUcW/r+888/o+vUqeMPRtX8AYEjdJIkA7p06Ta+uKjXs8Pp2LEj4ywtOy0Vi8X6KOwpHNp4aV0VGRm9ws7ODq5zsvVe8PDwGL5kyZKtYFOA0pbCevz48eO6AQMGzMjmjpg8d+5chLm5uQ1v6MbZI4AxYWRkZFs7O7v8yiwIsfP3tWnTxlGd5/w7hF75+CyyWbBgcb6HB37y5MnEihXLr0MZE6FVcOV7/fqtd7Vq1bJ15bO0tKx64sSxv1UqlVQdX4EzvgSjVDCo6+fn53c7u7kWPi/+CAiEXvznCLOxsdENDg4O0tfXt+NjoDNOTk5d9u/fr3XijcTExFnm5uY+CoWMBMlHIhFhKkaFkYQE3ce98PHxsZ03b96l/IaEZVUgfY/9Fr8dAmKo714ZBnuyePHivv/9y1ZlmJN+TZkypc6yZct2icXidhiGid68eXNr6dKlo319feHO/P/tnXlcVOX+x2fODLOgpplLbnELd3GFmyGZ4BVF1FQUcAEJFC5qKLmgKCiLiAK55AqKSYuioly5WFqKBHUtDETrepH42S8zdxNEGGb/9T0zh0ZjlXM99/5en9MfajPnec55nzPP53m+z3dpVFyor5CQkFFbtmzJYYs+i9jsbawZl1shGY3G73x85kw/dOhQk1agltdvNBrztFrtSLJWc34N5G39+eefr3Nzc39myX6aw7Su79LKz8/Px33lyvBUpVL5nKWvgTmK4WcnJ6cJ586da9QTv7q6+qJCoRhYU1MjpkmBWdRrkpKSQsLCwmoLt9R1HX5+frb79u07yjDMYEvTP4menZ1d35KSkmY/o7r6IStZcnLyIYlEwlZiMxgee5VuxcbGTYiKiuLbuZPR63WplMOBS0tstmDUREauXbxhw4ZGqxPm5p52HTXK5RRNlkz5FUzRGz/++NO5iRMnOv+7trta+n7h/OYRgKA3j9cz//aMGTN67Nq1K75Vq1ZUm1kqFotvrVixYkliYuLB5lwMFWJYs2ZNiVTKdDA5dhlEBqNBZDRw3q4iw/79+xP8/f0pw1WTHZmacg06nfoTnU7vJpfLxZYmfxpUDAbR5UWLFo1MTU3lrcLa6NGjbdasWbPeyclpFhX0EIlEd7OyshZ7eHikN+V6ue9Q+c+iom/PyeXylyjG3zK0zPwd1cqVqwI2btzYrHbpXJVKValQKFpzEwWzR7Zx/fr10atXR1Kt7/+q48aN61s6d+68kOLsHt9LFxlLS0tj+vXrR6vIeo/ExMSXly1bRqLLFn7h9ni1Wu1P77zzjv2OHTv+kDHPsrGZM2e6fvDBB+lSqbS9WezYFahUKjUMGzasH18+CZ6enq0PHz58qKamxp0EnZuQmffQ78TGxk2Oiop6mmyHYmdnZ0k9VgiJTqfNMxoNI8xOmSwfsVh8b/36DZ5RUVGNxp+fPPnJ5lGjRoWSiHPvMU0O8vO/ynN2dh71X/Wy4WLrJQBB/w9+OaZOnfrC7t27U1544QUPkwOOUfTDDz+81adPH0qu0WxnrIcPHya2bm291LQCkouM9J/BVG6TYnKtrKxyHRwcvAoLC/l0jhMbjfpfDQZDO8u9OxpUKANbYeGFrx0cHBz5egzz589/ZefOnYdVKtUgpVJpdf/+/fsxMTHep0+fzm/uKoQSedy6dWOvwWCgMDe2wMfvcfxWZsGQFTIM49Dc66dQNKpaRo/RlNOenUMZNmzYEB0RsSamue0J/f3g4OBu3t6eH44aNcqFONHWhCnvgUx0+/btsi5duvRq6BoPHjy4adq0aaGU/pYFYao3ICorK6OY/7cauz9/f/+ZqampH1HaY+qXc2Qkk72trW3fq1ev8rJCp9Cvw4cPH1ar1RNNjne/X5nRaCxfvz7ONzIyKrux633y802bNjm8+uqrA15//XXa63/SgmRlNOrJ41xJXOkgs7nBYPzfpKR3R65YseJ6Y/2dPXvmM2dnZ1eLEDt2PDl37puzTk5Ooxs7H5//dxCAoP+HPidPT8+e+/fvT7S2tp5kMBgker2+uqio6OjkyZPnP23MuK+v77i9e1PIOU4pEpsGTKlEUZsUpLq6WjV37lyX9PR0MkvzcgwePLhbYeH5nylkjstTTgMJDbhkDi0pKV1rZ2cXy0dnLi4uA2JjY+NeffVVSo1Ke6jVubm56yZMmBD/lO2LS0our+rTp0+Mpbc7FyFAbarVWkN6evqchip41dV3VVUVhVCxpnxukCWT+5YtW9YtXbq8ySZ3ylv+2WefhcTExHyXkpJCmbsEO0JDQ4clJGzIFYvFbbjwRLFYQsU7bnTp0qVbfRdGInngwAHKn0DV7sh6wU6cKF78xIkT7hMnTmzUyczPz2825WCgyQR3mPOrGx0dHfsWFBQ0VdCZrVu3vlZUVKROS0v7QwZFe3t7K0r52rFjx6mmHAWGx7zc161bF7pmTdTuZjwEsZubm82OHTtSevToccfR0TGosLCw2vL8/fv3O/n5+ebTRJyLUiFG169fL+rdu699U/rKy8s9M3z48NFcnnoucUxe3pdfuLi4ODelDe47BQUF3t98841NSEgIVWts0vZVc9rHd5+eAAT96dn9284cO3Zs3/3797/XpUsXV858+f333384a9asxS0pujF58uT+x45l0D4jpXTk9ihrzZv0/4qKitPt7e15KxF64MBHCTNnzlzOxc1yKy+zxcEQFBQ8bN++fRdbCjM4OHjotm3bPjbfG73X+jNnzuwJDg5eefXq1aeOp42MjLRfsyaCylV2ZSdAUiln0TBfMiP65ZdfTs6cOXP2uXPnmrxtYDQa9bSatIxjptVkSUnJewsXhjTmAFaLKzY21iMiIiL10qVLJYMHD+bN0kEdpKWlTReLxWO//PLLjKZOFsrLH3zetu1zY7gKZyTov/zyy43u3bvXK+iUHe7o0aMZEomEzRfO5Siorq6+4ezsPPb8+fP/tHw/goODZxw9ejT77t27bN5xOgICAmbv3bv3I66GvckDnI3XNjo5OTVZ0G1tbTuVlZWdLSwsvO3g4FDnyjUzMzN9ypQp3qZwtd/zrFAcelxc3NrIyLVNnqBu27atLxVEocpyhw4dip0xYwZNPh+zvh0+nJ7s4eERxDlPEh8S5t+y0S0bMGAgm/XN8khJSQnOzMx8/9NPPzUt50UiUU7O6TMuLi6jLSej1E55+cPCOXPmuJ44caJJxXy8vLzGJScnJ7dr167c1tZ2VEt+Wy39zeP8PxKAoP+HvRVeXl5O+/fvy1AqlZ3JgcUcc1q1bduOb6bWQwAAGItJREFUCUuWLPmiJZebn5///GuvvUYOPa6mdrUiRmIKD2LEjEitUYvEIqbi+PHj87y8Zma0pC8618PDo/vhw+lHGIZ5jRukLfdX1Wr1L0OH2js1Fl/cyHUwq1aF/SUubn2MwWAcTpYA6kutrimxtm7Tnw+v/eLios8GDx44Rm8wJZmhgVUsErNbFgY9Jeaw+snV1XXq6dOnm+zYRwk8yOTOOcTRPRIbiURyadiwYe4XL15srOCFODk52T0oKGi3RqN5ISMjY/fs2bOXtPSZmc8Xnzp1KnDs2LHbzXvautWrV/81Pj7+/cbaV6lUKXK5PJDbA6dncevWrc+6des2rr5zx48fPyo7O/vvtLK3jLFWq9X5rq6u3vn5+WzefCpO4u3tPTc6OnpD9+7dbW/dulWbiMi0QmdN7rV1AogtpdG9fPmfHkOHOjQaluXr6/vSypUrt/ft23fC5cuX3x84cOC8uq45IyNj27Rp097mnCTN/bAiq9Vq0x0cHOZdunSpqrH31tPTc0BsbHRSz549XR89qvx6zhz/qVlZWY+FK5IPzUcffUCTnVctMz3qdLpHY8e6vXb27NnayQ7laU9JSdnr7Ozc1dfX1+PgwYO1beXk5JxxdHQcTSt8y0RAIpHowYIFC3x37dp1orFnGxgYOGbbtm0H5XK5dVFR0Tv29vZ7+Ph9NdYvPm86AQh601n9u78pyc7OnuvgMCysY8eOtpzpkMywhw4dTp4924fKoNbOuJ/2Yr744otUR0fHADIXspWyGBJzsUhvMIgkjIR1lNPp9B/bvtI7sKX1tHNzz0waMcIpw8rKSmY5GFFucto/V6lUH/bs2Tv4xo0bj5kYm3Fv4h07dvguWBC8UavVvsilaSUxuXfvXli3bj0Sm9FWvV8NDAwYn5KSfMIoMopJyOkwsqZyg0hkpE1UxvD111+njxw5ki3D2pTDaDT+U6vV9uf8CrgVJW1DpKenT/Dx8WmoRCsTFRX1+tq1a9NqampscnJyPg4ICAh+2q2YJ6/X3d3d5ujRo1S+lCq7sRO+qqqq79u1aze0MYfJysrKXUqlMpjz+RCLxbpVq1Z5x8fHs5Xj6jry8vLiRowYEU6JkrjtB9qekclk+/Py8ua7uLhQLnEmMTFxLiVGUalUP3fr1m34gwcPai0vs2bNcn///dSDMpnsOcu4fuqvqOjCVnt7B/r91Hv86U9/anflypVDMpmMVuVX5s6d++a+ffuu1nXC8OHDe3399ddXKGqDi9bgfCv0ev0PI0aMcL5w4cKNhvrbsGHDuLCwsPc0mhpbuVxuLCj4Zurw4SP+sPfu4zNjQlrahxkMwyi4Z0Hvikql+jggYF7wgAEDqqOiogxBQUFtvby8UkePHj2+sLDwMz8/P29Ln5GcnJxDLi4uXhTKR+8c5xwnkUjIKpQ4aNAgSldbrzPs1KlT3VJSUt7t0KFD/ytXruR6eHhMu3z5cpMtUk35TeA7LScAQW85wxa3MG/evM4LF86fPnjw4G1qtbp2n4xE0GAw1ERERIS4u0/c7+LiQj+4FuVSTktLWzJnzpx3TTnJ5SKNtkYks5Kxq3O5zOQoR2XC/ebMHf/hhx+2KITt4cOKNGtr5RzOQcnS3Ecrp40bN8ZERq5t0Pu5Prj29vYdvLy85i5ZEhpFgx03AeJWhlOmTJ5w/Hg2iWKLeFH/9vb2A8/mfn5RqaTaHmTZ+N30bhZ0ek7V+fn541xcXL5qSp95eXnvjBw5kiYcbBghtculgL1+/Xqaq6tryJUrV/5QtYwq6Pn4+AQHBgYuNxqNbSi2fseOHR6LFy9+qgQ3dfF1d3d3OHbs2HGZTNaV46pWq3UFBQW7pkyZEvHrr7/WW4+8pqYmUyaTTTGLqvG777477uXlFVhaWlqno+X48ePlhw8fLqVIApqQ0XnUJ612t27d+l5oaOiSwMDAvqtXr/a2sbGhCIxr58+fpxDMw5acnZycuh48eCCzR4/uVEGNtXZwudyvXv2xLCnpXe+UlJTiOpxJxXPnzh29bNmy+L59+/6ZqunFxcWFrF27lvIm1HcwarX6vEwmowkOO4bSMzRbB4zh4eELTp48mV5cXFz+ZAOTJk3qMG3atHF+fn5rdTpdL6mUeVBUVJQ0adLkLXVNbKurHy1WKBSb2RfPfFCmwq1bt8aHha1cHR8f/7xOpxsaHh6+XiKR0H76+QULFkzYtWvXYyb0zz//3GPUqFE0ua51OrRIwFPk4+Mz+eOPP/6Dc92QIUPajRkzxj0hIWGPWCxWajSait9qGAQsX748s8UDHxrgnQAEnXekzWpQsnr16qHr1kXv1On0faVSaRuu3jDnVET5p6OioiJu3rz97oMHDwxHjhxpUUhZenr6cm9v7wRT6IqMvVitTi2ykpri0mkgVMgVonv3Hny5YMHCkCNHjtAg2NxDEhoaMnXz5i1kkqN6i1wOdLYdrtzm9u3b4xctCqVBmh0Tm9gJk5ycPMDV1XVHjx49hkulDFvDmhu8qQ0aWAsKvvF3cnpjfxPbbPBrH3300Z9nz/YmR8Ha30tVdZWolXUrkU4n4jzfjVKptNDT03PW0aNHf2is3zfffHPowYMHjyiVSlt6FpYZ9BQKRdXVq1cLJk+eHPj999//3LNnT6pxr0xPT/dzcHCY1bp1azuZTGZdVVVVHhYWFnLv3r2DLX0vLK/X1dW164kTJw5RjXCajJG4mp9Z1alTp9a6ubn9Yd+Wzl+2bFmn+Pj47yUSSUcSOJrk7Nq1y33RokX1bhVt37596oIFCw6IxWJ2BcpN/uiduX79+tU7d+6U2dvb20il0ld+y2Vw29PT07e4uPhcXdW+TpzI3uHsPGqBtbV17XtmzvJnqKys/N+MjGOBa9asOXf9+nVN165d5SNGjHg1ODg41NnZ2VGn03WSy+W6srKy9ydOnLi0rsmUJaNNmzbNCgoK2kPPgUvda0rFym6bVJWVlWVOmjRppUajuW9tbW24deuWIj093dfOzm5Wx44dhxgMBmuZTKYuLS1ZNWHCpB31VS9Tqar2WVlZ+XMWHHPImbGs7IeDK1euToqLi1tna2s7mHw8NBpN4c6dO2cvXbr0Dw6AlFzq+PHjp8jqQs+Ty8JH105FWR49evRVaGho7Pnz5/PKysoM7du3V0ZERPzFzc1tWb9+/fpVV1e3s7a2vpOcnBwWHBxMYZqaxt5xfP7sCUDQnz1z0cKFC230er3tkCFDXP7618DAmpqazpz3KRfCxKXSNIWU6Svi4mJXPnxYVVRTU6lp06Z9dVlZ2c2srKwG604HBAS06dSpk1ShUFiVl5e31uv1Hfz9/Tfa2dk502pIo6lhhZD20cncbjp+TzrxW9zrZ+HhEXGVlZU3du7cWdYQqqCgIKsOHZTtHz7Ud+rVy3b8okWLwnU6XTtLoeX+zsXBqlSqH959d3Po/fv3L0ul0rtJSUmq+sLxQkND2xkMBjtnZ+fX33zzzWUSieQFkwOUnjUhPhG7TPf1TXDwX7coFK1+0mg0D9u3b1+5cePGnxubOISEhMilUmkrpdIoZxgr6/v3y7uvWhW5qFOnjh70jNQaFWvJ0Ol1IqmE4vnZ3O7mNLasR/fJ2NjY1DZt2vxLqVT+HBUVVe9qNiMjY+u0adNCuIkCty1B7dFBRVl+MxBQBr3WIpHIWaPRdJHJZFStziiTyX7dvXv34vnz5/OW0tTy+X7wwQfRvr6+ESqVipK8sKZwEiuZTHb/7NmzK/bs2ZPPJdSJiopiysvLHWfMmLHR3t5+BPkxiMXiG8eOHTswffr05Q29N8nJyZuDgoIW63Q61vfBYvLAnsYJmE6n+1dBQUGsk5MTrczrDNnMysoaNXGiew45G5qz7rHvN3cYDIZKhpHkikTGf6nVmkFWVlJXhpFKzH4dmkuXLu0dP3782hs3bjQatjlv3rzue/aweerZbQlOzOl3xfmJ6PX6e0ajMZdhmCqtVjtcLpf3MT9ro0ql+jEtLS1u48aNBxqqmqdWqz4Vi8VulqZ9ek+oT1PGNzZuTqPRaHIjIyMjExIS6s2It3TpUr+kpKRdFP7GzqDZ3w/VtDflvGcYpsZgMNA9VWo0mlEKhYKul6FtP4Zh7hQXF8cOHTr035KiWYBh+P9llxD0Z/hYqf71oUOHVgwbNsxbJBK1Zximk06nEXNiTj8qMoXT/rJlXmy6xIqKimqlUnlfIpHoDQaD5vjx41ment51DpY0wKpUqsB169YFSqVSSVVVFSOXy2UkVDR5oD1tatO0GjKI9AYt+8NmB1CVhk2XaTYDG6urq29aW1tXFhR8+6tUKqW60lQ6dE1BQcH9EydODHzxxY67JRKpaPDgQRKtVkerlVYajeZFcpyh+2GnCOZgXRqE6O/cIGvqQ3KLHHNEIlHVtWvXND/++CObivbYsWOBCQkJJePGjXs+Ojo6fvjw4X/W6XSddTpdR5qg0KBp8mI2iSn93XIyRHXDZTJZtdEoLpdIJDVGo/FhdHR0ZExMTL3OP3FxcZ2XL1+eRXy0WrVULGaspFJJW61W25E4spMrvUls2b50VIVNzqYYpVUh/Un7oWKx+JFWq71jZWVVcenSJSpLWezp6bn8SZOqk5PTS2fOnPlWLpdTaVs2LS5nfqc+6B6JIQ3cFtsVxkePHp1evHhxzMWLF795mrSzTXnle/fu3SEnJ+d8t27dXqqurma4Va9ZvGrUavW1wsLCO5S4x8bGRtqpUycbiUTShRhptdr7v4n9rOjoaFrtNej3sX379vC33norVqlUSrj3xDK9LulOZWXlV0FBQYvS09MvNbTPSyFl2dlZq1588cWVIpFIYcpE+Ps7aLYa1DrNmbKuiekdvxUdHb0iOzv7b42tzC3ZjRkzZmhGRsYnrVq16iyVSlmHSU4gn/QmtzBvay5evHiMrFN79+6l+2nwqKh4cFqhUPyFW1WbE8qwEx9zJr6avLy8k5GRkUH5+fkNViukffaEhISs55577g0uCoF7l+nfnMhzddC5MeD+/fvF06dP97t3796V5uZyaOz+8Dm/BCDo/PJssLU33nij36lTp85KpVISCHZFwomQ2QucZsL0Q2VFnkvzSIMo9wOWyWSs8pqzuoXX1WFUVFS7NWvW7NXpdB7cQEKiZxYe9nxuwKHUleYZOqWEZD+jJCqc+EqlMiM5/5gHK6NcLv/U1dV19unTpytyc3P9nZycUs1tk4CygyU3GeHuo6amhv2M+qG2zGbQ2gGE+qLz6HOa0CgUigpKVNK1a9eaa9euDfzNxE5FUnqSwJGw0LXQvdDEhyYk5hrldE9k9mYdlcyJWkR6vZHzPr4bFxc3LTo6+sv6HtLJkydXjRs3LpbLZmdalarpeuh3YqyoqBC1bcvWDaldhalUajKXi81s2e+RYxtFKFhZWdGf9BxPde3a1csyzIq7hsTExOGTJ09O6NWr10iOl9l3orZimHnwpaiof6rV6rx58+YlHDhwoMHKY3y81kOGDOmVlpa2etCgQZ4Gg0HJpQ3lBn5OFMwmZ71arb7+008/5Z46dWpHaGhok/KZe3h4vHLkyBGKhBhmNlfXTgC1Wu3dysrKTF9f3z2ffPJJk/w5nJ2dFXv27Fnbs2fPxVqtVkF7xpyQc74P1A9NkvR6/bXfSuQWenl5bc3MzHyqCJJ33nln5KZNm5LUavWfub64bQPuHSTHM8ojoVarv8rMzMzz8fGJa+rzUavVcQzDhBuNRva9Nv+GOKtU6T/+8Y89M2fO3NlUx9KYmJiBERER68VisSvlp3l8LDCNR/R7ookpwzBlBQUFOdnZ2dtiY2MfCx1s6vXje8+WAAT92fJWOjg42FKX5OlNIkY/VFrl0CDDrcwtBePJv3P/NhqNN0tKSupLhykZNGjQSyKRiBSvSYdMRnY7k1C1akWibDrNMszMPKkov3TpEus807dv3xdkMhmZgWtFnLuvujp98h659um+ufPIOqDRaLTffvvtFfqcrBpt27Z9yWg0yuizBw8ePMZJJKK6KJTg4/fDdM3079/5WllZ6SoqKn5saMVoZ2fXg2EYVrHpnizvxfLatVqTl35VFfVjMrFaW1uTKZysD+ykyPJ8Kyurh4WFhfWa+yn2efr06WP9/f0X9OnTp5tarW4jl8sZrVarYRjmYVlZ2YXt27fvysvLK9XpdHee5Sqpf//+rRUKRY/ly5dP69+//zRbW9tWSqWSrTcuk8k0paWlZJ69euHCha3bt2+/ptfrbz+ZGKWxF9DX19duy5Yta5977jknqVQqu3v37oPS0tK/vf322ynt2rX7ubmFaqiu+sSJE3v5+/uvtLGxoVDG1mKxWMYwjE6n01VfuXLltkqlOhUQEJBKWwiFhYVPnaeAjDX29vad3dzc3vDz83v75Zdf7iyRSNqYJ+uqmzdvlt++fftQampq9vnz528VFBRQX01OxjJw4MDnw8LCVvn4+PjpdLq2Uqm0miY6GzZseC8zM/PvDMPcaK6VhhzdkpKSxvXu3Tukc+fOr8hksla0TUGhlFKp9NerV69ez8nJid+8eXOJWCy++Szft8beFXzeMAEIOt4QEPjPISAJDw+nUqSvSKVSRU1NTbnBYChJSEhoMATqWV6+r69vp+eff74TTa7EYnFFXFwcxcs3Ow3xk9dM20RardZBIpE8X1xc/F1WVhYf9yyJioqy0Wg0LzMMQ97gj0gA169fT2WCW3zNdXAXh4eHd1AqleTARxYAEsNf+HBYXLlyJfm99NfpdDd0Ot13iYmJ/9PS504RBo6OjoPUajVNmOVyubxCrVYXrV+/nrbBmuqk2tLLwPk8EoCg8wgTTYEACIAACICAUAQg6EKRR78gAAIgAAIgwCMBCDqPMNEUCIAACIAACAhFAIIuFHn0CwIgAAIgAAI8EoCg8wgTTYEACIAACICAUAQg6EKRR78gAAIgAAIgwCMBCDqPMNEUCIAACIAACAhFAIIuFHn0CwIgAAIgAAI8EoCg8wgTTYEACIAACICAUAQg6EKRR78gAAIgAAIgwCMBCDqPMNEUCIAACIAACAhFAIIuFHn0CwIgAAIgAAI8EoCg8wgTTYEACIAACICAUAQg6EKRR78gAAIgAAIgwCMBCDqPMNEUCIAACIAACAhFAIIuFHn0CwIgAAIgAAI8EoCg8wgTTYEACIAACICAUAQg6EKRR78gAAIgAAIgwCMBCDqPMNEUCIAACIAACAhFAIIuFHn0CwIgAAIgAAI8EoCg8wgTTYEACIAACICAUAQg6EKRR78gAAIgAAIgwCMBCDqPMNEUCIAACIAACAhFAIIuFHn0CwIgAAIgAAI8EoCg8wgTTYEACIAACICAUAQg6EKRR78gAAIgAAIgwCMBCDqPMNEUCIAACIAACAhFAIIuFHn0CwIgAAIgAAI8EoCg8wgTTYEACIAACICAUAQg6EKRR78gAAIgAAIgwCMBCDqPMNEUCIAACIAACAhFAIIuFHn0CwIgAAIgAAI8EoCg8wgTTYEACIAACICAUAQg6EKRR78gAAIgAAIgwCMBCDqPMNEUCIAACIAACAhFAIIuFHn0CwIgAAIgAAI8EoCg8wgTTYEACIAACICAUAQg6EKRR78gAAIgAAIgwCMBCDqPMNEUCIAACIAACAhFAIIuFHn0CwIgAAIgAAI8EoCg8wgTTYEACIAACICAUAQg6EKRR78gAAIgAAIgwCMBCDqPMNEUCIAACIAACAhFAIIuFHn0CwIgAAIgAAI8EoCg8wgTTYEACIAACICAUAQg6EKRR78gAAIgAAIgwCMBCDqPMNEUCIAACIAACAhFAIIuFHn0CwIgAAIgAAI8EoCg8wgTTYEACIAACICAUAQg6EKRR78gAAIgAAIgwCMBCDqPMNEUCIAACIAACAhFAIIuFHn0CwIgAAIgAAI8EoCg8wgTTYEACIAACICAUAQg6EKRR78gAAIgAAIgwCMBCDqPMNEUCIAACIAACAhFAIIuFHn0CwIgAAIgAAI8EoCg8wgTTYEACIAACICAUAQg6EKRR78gAAIgAAIgwCMBCDqPMNEUCIAACIAACAhFAIIuFHn0CwIgAAIgAAI8EoCg8wgTTYEACIAACICAUAQg6EKRR78gAAIgAAIgwCMBCDqPMNEUCIAACIAACAhFAIIuFHn0CwIgAAIgAAI8EoCg8wgTTYEACIAACICAUAQg6EKRR78gAAIgAAIgwCMBCDqPMNEUCIAACIAACAhFAIIuFHn0CwIgAAIgAAI8EoCg8wgTTYEACIAACICAUAQg6EKRR78gAAIgAAIgwCMBCDqPMNEUCIAACIAACAhFAIIuFHn0CwIgAAIgAAI8EoCg8wgTTYEACIAACICAUAQg6EKRR78gAAIgAAIgwCMBCDqPMNEUCIAACIAACAhF4P8AoZV4gNmjAgwAAAAASUVORK5CYII=;clipPath=inset(7.67% 37.33% 54.33% 27.33%);flipH=1;" vertex="1" parent="1">
          <mxGeometry x="369" y="150" width="92.98" height="100" as="geometry" />
        </mxCell>
        <mxCell id="aaofqSygZkqPP-v-TxHg-3" value="&lt;font style=&quot;font-size: 52px;&quot; data-font-src=&quot;https://fonts.googleapis.com/css?family=EB+Garamond&quot; face=&quot;EB Garamond&quot;&gt;&lt;span style=&quot;color: light-dark(rgb(255, 255, 255), rgb(18, 18, 18));&quot;&gt;D&lt;/span&gt;&lt;span style=&quot;font-family: sans-serif; text-align: start;&quot;&gt;&lt;font style=&quot;color: rgb(255, 255, 255);&quot;&gt;•&lt;/font&gt;&lt;/span&gt;&lt;span style=&quot;color: light-dark(rgb(255, 255, 255), rgb(18, 18, 18));&quot;&gt;I&lt;/span&gt;&lt;span style=&quot;color: rgb(255, 255, 255); font-family: sans-serif; text-align: start;&quot;&gt;&lt;font style=&quot;&quot;&gt;•&lt;/font&gt;&lt;/span&gt;&lt;span style=&quot;color: light-dark(rgb(255, 255, 255), rgb(18, 18, 18));&quot;&gt;L&lt;/span&gt;&lt;/font&gt;" style="text;html=1;align=center;verticalAlign=middle;whiteSpace=wrap;rounded=0;" vertex="1" parent="1">
          <mxGeometry x="490" y="155" width="81.98" height="90" as="geometry" />
        </mxCell>
      </root>
    </mxGraphModel>
  </diagram>
</mxfile>
